<svg width="138" height="46" viewBox="0 0 138 46" fill="none" xmlns="http://www.w3.org/2000/svg">
<g clip-path="url(#clip0)">
<path d="M127.011 0.0001495H10.9957C10.5728 0.0001495 10.155 0.0001495 9.73319 0.0024495C9.38013 0.0047495 9.02988 0.011431 8.67343 0.0170545C7.89905 0.0261416 7.1265 0.0940772 6.36248 0.220271C5.59953 0.349212 4.86048 0.592303 4.17033 0.941321C3.48102 1.29329 2.85118 1.75064 2.30365 2.29678C1.75326 2.84138 1.29446 3.47087 0.944898 4.16103C0.594374 4.84982 0.35132 5.58793 0.22413 6.34985C0.0957306 7.11081 0.0266377 7.88055 0.0174714 8.65215C0.00676945 9.00474 0.00563929 9.3585 0 9.71114V36.2925C0.00563929 36.6496 0.00676945 36.9955 0.0174714 37.3527C0.0266405 38.1243 0.0957334 38.894 0.22413 39.6549C0.350969 40.4173 0.594037 41.1558 0.944898 41.8449C1.2943 42.5328 1.75316 43.1597 2.30365 43.7013C2.8491 44.2499 3.47935 44.7075 4.17033 45.0568C4.86047 45.4068 5.59944 45.6513 6.36248 45.7822C7.12663 45.9074 7.8991 45.9754 8.67343 45.9855C9.02988 45.9934 9.38013 45.9978 9.73319 45.9978C10.1549 46.0001 10.5728 46.0001 10.9957 46.0001H127.011C127.425 46.0001 127.846 46.0001 128.261 45.9978C128.612 45.9978 128.972 45.9934 129.324 45.9855C130.097 45.9759 130.868 45.9079 131.63 45.7822C132.396 45.6504 133.137 45.4059 133.831 45.0568C134.521 44.7073 135.151 44.2497 135.696 43.7013C136.245 43.1576 136.705 42.5311 137.059 41.8449C137.407 41.1553 137.647 40.4168 137.772 39.6549C137.901 38.8939 137.973 38.1244 137.987 37.3527C137.991 36.9955 137.991 36.6496 137.991 36.2925C138 35.8747 138 35.4592 138 35.0347V10.9667C138 10.5456 138 10.1278 137.991 9.71114C137.991 9.3585 137.991 9.00474 137.987 8.65211C137.973 7.88044 137.901 7.11087 137.772 6.34981C137.647 5.58832 137.406 4.85028 137.059 4.16099C136.347 2.77762 135.218 1.65158 133.831 0.941217C133.137 0.593052 132.396 0.350026 131.63 0.220167C130.868 0.0934177 130.097 0.0254584 129.324 0.0168935C128.972 0.0112815 128.612 0.0045425 128.261 0.0023C127.846 0 127.425 0 127.011 0V0.0001495Z" fill="#A6A6A6"/>
<path d="M9.73881 44.9938C9.38745 44.9938 9.04457 44.9894 8.69596 44.9815C7.97379 44.9722 7.2533 44.9095 6.54041 44.794C5.87568 44.6798 5.23174 44.4675 4.62981 44.1639C4.03341 43.8628 3.48945 43.4681 3.01875 42.9948C2.54125 42.5271 2.1437 41.9846 1.84187 41.3888C1.53672 40.7892 1.32553 40.1465 1.21567 39.483C1.09703 38.7702 1.03284 38.0494 1.02366 37.3268C1.01635 37.0843 1.00677 36.2767 1.00677 36.2767V9.71109C1.00677 9.71109 1.01697 8.91597 1.02372 8.68237C1.03251 7.96095 1.09633 7.24125 1.21461 6.52949C1.32467 5.86424 1.53602 5.21966 1.84134 4.61807C2.14206 4.02273 2.5374 3.47984 3.01203 3.01043C3.48613 2.53656 4.03183 2.13979 4.62925 1.83459C5.22979 1.53201 5.87252 1.32114 6.53591 1.20906C7.25113 1.09241 7.97412 1.02934 8.6988 1.02039L9.73938 1.00635H128.255L129.308 1.02095C130.026 1.02946 130.743 1.09197 131.451 1.20793C132.121 1.32142 132.771 1.53376 133.378 1.83796C134.575 2.45303 135.549 3.42614 136.163 4.62088C136.464 5.21831 136.672 5.85763 136.78 6.51714C136.9 7.23474 136.967 7.9601 136.981 8.68743C136.984 9.01311 136.984 9.36294 136.984 9.71109C136.993 10.1423 136.993 10.5528 136.993 10.9666V35.0346C136.993 35.4524 136.993 35.8601 136.984 36.2711C136.984 36.6451 136.984 36.9877 136.98 37.3403C136.966 38.0546 136.9 38.767 136.783 39.4718C136.675 40.14 136.465 40.7877 136.16 41.3923C135.856 41.9816 135.461 42.5194 134.989 42.9858C134.517 43.4617 133.973 43.8587 133.375 44.1617C132.769 44.4676 132.121 44.6807 131.451 44.794C130.738 44.9101 130.018 44.9728 129.296 44.9815C128.958 44.9894 128.604 44.9938 128.261 44.9938L127.011 44.9961L9.73881 44.9938Z" fill="black"/>
<path d="M28.5642 23.3457C28.5766 22.3858 28.8322 21.4447 29.3074 20.6098C29.7826 19.775 30.4618 19.0736 31.2818 18.5708C30.7609 17.8289 30.0736 17.2183 29.2746 16.7876C28.4756 16.3568 27.5869 16.1178 26.6791 16.0895C24.7425 15.8868 22.8651 17.245 21.8783 17.245C20.8724 17.245 19.353 16.1096 17.7169 16.1432C16.6586 16.1773 15.6272 16.4841 14.7232 17.0339C13.8192 17.5837 13.0735 18.3576 12.5586 19.2802C10.3283 23.1309 11.9919 28.7901 14.1284 31.9027C15.1973 33.4269 16.4466 35.1294 18.0812 35.069C19.6808 35.0028 20.2782 34.0518 22.2091 34.0518C24.122 34.0518 24.6825 35.069 26.3503 35.0306C28.0668 35.0028 29.1482 33.4997 30.1796 31.9611C30.9476 30.8751 31.5386 29.6748 31.9307 28.4047C30.9335 27.9841 30.0825 27.2801 29.4838 26.3805C28.8852 25.4808 28.5653 24.4254 28.5642 23.3457V23.3457Z" fill="white"/>
<path d="M25.414 14.0425C26.3498 12.9222 26.8109 11.4822 26.6993 10.0283C25.2695 10.1781 23.9487 10.8595 23.0002 11.9369C22.5364 12.4632 22.1812 13.0755 21.9549 13.7388C21.7286 14.4021 21.6356 15.1033 21.6812 15.8025C22.3964 15.8098 23.1039 15.6552 23.7505 15.3504C24.3971 15.0455 24.9658 14.5984 25.414 14.0425Z" fill="white"/>
<path d="M48.7842 31.2108H43.3255L42.0146 35.0707H39.7025L44.8729 20.79H47.275L52.4454 35.0707H50.0939L48.7842 31.2108ZM43.8908 29.4297H48.2177L46.0847 23.1653H46.025L43.8908 29.4297Z" fill="white"/>
<path d="M63.6117 29.8652C63.6117 33.1007 61.8751 35.1794 59.2545 35.1794C58.5906 35.214 57.9304 35.0616 57.3494 34.7394C56.7684 34.4172 56.2901 33.9384 55.9693 33.3578H55.9197V38.5149H53.7766V24.6587H55.8511V26.3904H55.8905C56.226 25.8126 56.7124 25.3363 57.2978 25.0122C57.8832 24.688 58.5458 24.5282 59.215 24.5498C61.8649 24.5498 63.6117 26.6386 63.6117 29.8652ZM61.4089 29.8652C61.4089 27.7572 60.3164 26.3714 58.6497 26.3714C57.0122 26.3714 55.9108 27.7864 55.9108 29.8652C55.9108 31.963 57.0122 33.3679 58.6497 33.3679C60.3165 33.3679 61.4089 31.9922 61.4089 29.8652Z" fill="white"/>
<path d="M75.1034 29.8652C75.1034 33.1007 73.3668 35.1794 70.7462 35.1794C70.0823 35.214 69.4221 35.0615 68.8411 34.7394C68.2601 34.4172 67.7818 33.9384 67.4611 33.3578H67.4115V38.5148H65.2683V24.6587H67.3428V26.3904H67.3822C67.7177 25.8126 68.2041 25.3363 68.7895 25.0122C69.3749 24.688 70.0375 24.5282 70.7067 24.5498C73.3567 24.5498 75.1034 26.6386 75.1034 29.8652ZM72.9006 29.8652C72.9006 27.7572 71.8082 26.3713 70.1414 26.3713C68.5039 26.3713 67.4025 27.7864 67.4025 29.8652C67.4025 31.963 68.5039 33.3679 70.1414 33.3679C71.8082 33.3679 72.9006 31.9922 72.9006 29.8652H72.9006Z" fill="white"/>
<path d="M82.6985 31.0916C82.8573 32.5078 84.2369 33.4376 86.1222 33.4376C87.9286 33.4376 89.2282 32.5077 89.2282 31.2308C89.2282 30.1224 88.4444 29.4587 86.5884 29.0038L84.7325 28.558C82.1028 27.9246 80.882 26.6982 80.882 24.7082C80.882 22.2442 83.0353 20.5518 86.0929 20.5518C89.119 20.5518 91.1935 22.2442 91.2633 24.7082H89.0998C88.9703 23.283 87.7889 22.4228 86.0625 22.4228C84.336 22.4228 83.1546 23.2931 83.1546 24.5599C83.1546 25.5695 83.9092 26.1636 85.755 26.6184L87.3328 27.0048C90.2711 27.6977 91.4919 28.8747 91.4919 30.9635C91.4919 33.6352 89.3577 35.3086 85.9634 35.3086C82.7875 35.3086 80.6432 33.6745 80.5047 31.0915L82.6985 31.0916Z" fill="white"/>
<path d="M96.1172 22.1948V24.6588H98.1027V26.3512H96.1172V32.0911C96.1172 32.9828 96.5148 33.3983 97.3876 33.3983C97.6233 33.3942 97.8586 33.3777 98.0926 33.3489V35.0312C97.7001 35.1043 97.3013 35.1374 96.9022 35.13C94.7883 35.13 93.9639 34.3383 93.9639 32.3191V26.3512H92.4458V24.6588H93.9639V22.1948H96.1172Z" fill="white"/>
<path d="M99.2526 29.8652C99.2526 26.5893 101.187 24.5308 104.204 24.5308C107.232 24.5308 109.157 26.5893 109.157 29.8652C109.157 33.1501 107.242 35.1997 104.204 35.1997C101.168 35.1997 99.2526 33.1501 99.2526 29.8652ZM106.974 29.8652C106.974 27.618 105.941 26.2917 104.204 26.2917C102.468 26.2917 101.436 27.6281 101.436 29.8652C101.436 32.1214 102.468 33.4376 104.204 33.4376C105.941 33.4376 106.974 32.1214 106.974 29.8652H106.974Z" fill="white"/>
<path d="M110.924 24.6586H112.969V26.4308H113.018C113.156 25.8773 113.482 25.3882 113.939 25.0456C114.396 24.703 114.958 24.5279 115.53 24.5497C115.777 24.5488 116.023 24.5756 116.264 24.6294V26.6284C115.952 26.5334 115.627 26.4898 115.301 26.4993C114.99 26.4867 114.679 26.5414 114.391 26.6597C114.103 26.7781 113.844 26.9572 113.632 27.1847C113.42 27.4123 113.259 27.683 113.162 27.9781C113.065 28.2733 113.032 28.586 113.068 28.8947V35.0704H110.924L110.924 24.6586Z" fill="white"/>
<path d="M126.145 32.0125C125.857 33.9026 124.011 35.1997 121.649 35.1997C118.612 35.1997 116.727 33.1704 116.727 29.9146C116.727 26.6488 118.622 24.5308 121.559 24.5308C124.448 24.5308 126.264 26.5096 126.264 29.6665V30.3987H118.89V30.5278C118.856 30.911 118.904 31.297 119.031 31.6602C119.158 32.0235 119.361 32.3556 119.627 32.6345C119.893 32.9134 120.215 33.1328 120.572 33.278C120.929 33.4233 121.313 33.4911 121.699 33.4769C122.205 33.5243 122.714 33.4073 123.148 33.1434C123.582 32.8796 123.92 32.4829 124.11 32.0125L126.145 32.0125ZM118.9 28.905H124.12C124.139 28.5605 124.087 28.2157 123.966 27.8923C123.846 27.5689 123.659 27.2739 123.419 27.0258C123.178 26.7776 122.889 26.5818 122.569 26.4504C122.249 26.3191 121.905 26.2551 121.559 26.2625C121.21 26.2604 120.864 26.3273 120.541 26.4592C120.218 26.5912 119.925 26.7856 119.678 27.0313C119.43 27.277 119.234 27.569 119.101 27.8906C118.968 28.2122 118.899 28.557 118.9 28.905V28.905Z" fill="white"/>
<path d="M43.6222 10.0405C44.0716 10.0083 44.5224 10.076 44.9423 10.2387C45.3622 10.4013 45.7407 10.6549 46.0504 10.9811C46.3602 11.3072 46.5935 11.6979 46.7335 12.1248C46.8735 12.5518 46.9167 13.0044 46.8601 13.4501C46.8601 15.6423 45.6719 16.9024 43.6222 16.9024H41.1367V10.0405H43.6222ZM42.2055 15.932H43.5029C43.8239 15.9511 44.1452 15.8986 44.4434 15.7783C44.7415 15.658 45.009 15.4729 45.2264 15.2365C45.4438 15.0001 45.6056 14.7183 45.7 14.4117C45.7944 14.1051 45.819 13.7814 45.7721 13.4641C45.8156 13.148 45.7885 12.8263 45.6926 12.5219C45.5968 12.2175 45.4346 11.9381 45.2177 11.7036C45.0008 11.469 44.7346 11.2853 44.4381 11.1654C44.1417 11.0455 43.8223 10.9925 43.5029 11.0102H42.2055V15.932Z" fill="white"/>
<path d="M48.0673 14.3109C48.0347 13.9706 48.0737 13.6272 48.182 13.3028C48.2902 12.9784 48.4652 12.6802 48.6958 12.4272C48.9263 12.1742 49.2074 11.9721 49.5209 11.8338C49.8344 11.6955 50.1734 11.624 50.5163 11.624C50.8591 11.624 51.1981 11.6955 51.5116 11.8338C51.8251 11.9721 52.1062 12.1742 52.3368 12.4272C52.5673 12.6802 52.7423 12.9784 52.8506 13.3028C52.9588 13.6272 52.9978 13.9706 52.9652 14.3109C52.9984 14.6515 52.9599 14.9953 52.8519 15.3202C52.744 15.6451 52.5691 15.9439 52.3385 16.1974C52.1078 16.4509 51.8266 16.6534 51.5127 16.7921C51.1989 16.9307 50.8595 17.0023 50.5163 17.0023C50.173 17.0023 49.8336 16.9307 49.5198 16.7921C49.206 16.6534 48.9247 16.4509 48.6941 16.1974C48.4634 15.9439 48.2885 15.6451 48.1806 15.3202C48.0726 14.9953 48.0341 14.6515 48.0673 14.3109V14.3109ZM51.911 14.3109C51.911 13.1884 51.4054 12.532 50.5179 12.532C49.6271 12.532 49.126 13.1884 49.126 14.3109C49.126 15.4423 49.6272 16.0937 50.5179 16.0937C51.4054 16.0937 51.9111 15.4378 51.9111 14.3109H51.911Z" fill="white"/>
<path d="M59.4757 16.9025H58.4126L57.3394 13.0886H57.2583L56.1895 16.9025H55.1365L53.7051 11.7241H54.7446L55.6748 15.6755H55.7514L56.8191 11.7241H57.8022L58.8699 15.6755H58.9509L59.8767 11.7241H60.9015L59.4757 16.9025Z" fill="white"/>
<path d="M62.1054 11.7242H63.092V12.5468H63.1685C63.2985 12.2514 63.5176 12.0037 63.7954 11.8383C64.0731 11.6729 64.3957 11.5981 64.7182 11.6242C64.9709 11.6053 65.2246 11.6433 65.4605 11.7354C65.6965 11.8275 65.9086 11.9714 66.0812 12.1563C66.2538 12.3413 66.3825 12.5626 66.4577 12.8039C66.5329 13.0452 66.5527 13.3003 66.5156 13.5503V16.9025H65.4908V13.8069C65.4908 12.9747 65.1281 12.5609 64.3702 12.5609C64.1986 12.5529 64.0274 12.582 63.8682 12.6462C63.709 12.7104 63.5656 12.8082 63.4478 12.9328C63.33 13.0575 63.2407 13.206 63.1859 13.3683C63.131 13.5306 63.1121 13.7028 63.1302 13.8731V16.9026H62.1054L62.1054 11.7242Z" fill="white"/>
<path d="M68.1486 9.70264H69.1735V16.9025H68.1486V9.70264Z" fill="white"/>
<path d="M70.5981 14.311C70.5655 13.9706 70.6045 13.6273 70.7128 13.3029C70.821 12.9785 70.9961 12.6802 71.2267 12.4272C71.4573 12.1742 71.7384 11.9721 72.0519 11.8338C72.3654 11.6955 72.7045 11.624 73.0473 11.624C73.3902 11.624 73.7292 11.6955 74.0427 11.8338C74.3563 11.9721 74.6373 12.1742 74.8679 12.4272C75.0985 12.6802 75.2736 12.9785 75.3818 13.3029C75.4901 13.6273 75.5291 13.9706 75.4965 14.311C75.5297 14.6516 75.4911 14.9955 75.3832 15.3204C75.2752 15.6453 75.1003 15.944 74.8696 16.1975C74.6389 16.451 74.3576 16.6535 74.0438 16.7921C73.73 16.9307 73.3905 17.0024 73.0473 17.0024C72.7041 17.0024 72.3646 16.9307 72.0508 16.7921C71.737 16.6535 71.4557 16.451 71.225 16.1975C70.9944 15.944 70.8194 15.6453 70.7115 15.3204C70.6035 14.9955 70.5649 14.6516 70.5981 14.311V14.311ZM74.4418 14.311C74.4418 13.1885 73.9361 12.5321 73.0487 12.5321C72.1579 12.5321 71.6568 13.1885 71.6568 14.311C71.6568 15.4424 72.1579 16.0938 73.0487 16.0938C73.9362 16.0938 74.4418 15.4379 74.4418 14.311H74.4418Z" fill="white"/>
<path d="M76.5754 15.4379C76.5754 14.5058 77.2714 13.9684 78.5068 13.892L79.9135 13.8112V13.3642C79.9135 12.8173 79.5508 12.5084 78.8503 12.5084C78.2782 12.5084 77.8818 12.7179 77.7681 13.084H76.7759C76.8806 12.1945 77.7196 11.624 78.8976 11.624C80.1995 11.624 80.9338 12.2703 80.9338 13.3642V16.9023H79.9472V16.1746H79.8662C79.7016 16.4356 79.4705 16.6485 79.1964 16.7913C78.9224 16.9341 78.6153 17.0019 78.3064 16.9877C78.0884 17.0103 77.868 16.9871 77.6596 16.9196C77.4511 16.8521 77.2592 16.7418 77.0961 16.5957C76.933 16.4497 76.8024 16.2713 76.7127 16.0718C76.623 15.8724 76.5763 15.6564 76.5754 15.4379V15.4379ZM79.9135 14.9954V14.5625L78.6454 14.6433C77.9302 14.6911 77.6059 14.9336 77.6059 15.3901C77.6059 15.8562 78.0113 16.1274 78.5688 16.1274C78.7322 16.1439 78.8972 16.1275 79.054 16.0791C79.2109 16.0307 79.3563 15.9513 79.4818 15.8457C79.6072 15.7401 79.7101 15.6103 79.7843 15.4643C79.8584 15.3182 79.9024 15.1587 79.9135 14.9954V14.9954Z" fill="white"/>
<path d="M82.2807 14.3111C82.2807 12.6748 83.1243 11.6382 84.4363 11.6382C84.7608 11.6233 85.0829 11.7008 85.3649 11.8617C85.6469 12.0226 85.8771 12.2602 86.0287 12.5467H86.1053V9.70264H87.1301V16.9025H86.1481V16.0843H86.067C85.9037 16.369 85.6654 16.6036 85.378 16.7629C85.0906 16.9221 84.7649 16.9999 84.4363 16.9878C83.1153 16.9879 82.2807 15.9513 82.2807 14.3111ZM83.3394 14.3111C83.3394 15.4094 83.8586 16.0703 84.7269 16.0703C85.5906 16.0703 86.1245 15.3999 86.1245 14.3156C86.1245 13.2363 85.585 12.5563 84.7269 12.5563C83.8642 12.5563 83.3394 13.2217 83.3394 14.3111H83.3394Z" fill="white"/>
<path d="M91.3703 14.3109C91.3376 13.9706 91.3767 13.6272 91.4849 13.3028C91.5931 12.9784 91.7681 12.6802 91.9987 12.4272C92.2293 12.1742 92.5103 11.9721 92.8238 11.8338C93.1373 11.6955 93.4764 11.624 93.8192 11.624C94.162 11.624 94.5011 11.6955 94.8146 11.8338C95.1281 11.9721 95.4091 12.1742 95.6397 12.4272C95.8703 12.6802 96.0453 12.9784 96.1535 13.3028C96.2617 13.6272 96.3008 13.9706 96.2681 14.3109C96.3014 14.6515 96.2628 14.9953 96.1549 15.3202C96.047 15.6451 95.872 15.9439 95.6414 16.1974C95.4108 16.4509 95.1295 16.6534 94.8157 16.7921C94.5019 16.9307 94.1624 17.0023 93.8192 17.0023C93.476 17.0023 93.1365 16.9307 92.8227 16.7921C92.5089 16.6534 92.2276 16.4509 91.997 16.1974C91.7664 15.9439 91.5915 15.6451 91.4835 15.3202C91.3756 14.9953 91.337 14.6515 91.3703 14.3109V14.3109ZM95.214 14.3109C95.214 13.1884 94.7083 12.532 93.8209 12.532C92.9301 12.532 92.429 13.1884 92.429 14.3109C92.429 15.4423 92.9301 16.0937 93.8209 16.0937C94.7083 16.0937 95.214 15.4378 95.214 14.3109Z" fill="white"/>
<path d="M97.6432 11.7242H98.6298V12.5468H98.7064C98.8363 12.2514 99.0554 12.0037 99.3332 11.8383C99.611 11.6729 99.9336 11.5981 100.256 11.6242C100.509 11.6053 100.762 11.6433 100.998 11.7354C101.234 11.8275 101.446 11.9714 101.619 12.1563C101.792 12.3413 101.92 12.5626 101.996 12.8039C102.071 13.0452 102.091 13.3003 102.053 13.5503V16.9025H101.029V13.8069C101.029 12.9747 100.666 12.5609 99.908 12.5609C99.7365 12.5529 99.5652 12.582 99.406 12.6462C99.2468 12.7104 99.1034 12.8082 98.9856 12.9328C98.8678 13.0575 98.7785 13.206 98.7237 13.3683C98.6689 13.5306 98.6499 13.7028 98.6681 13.8731V16.9026H97.6432V11.7242Z" fill="white"/>
<path d="M107.844 10.4351V11.7479H108.969V12.6087H107.844V15.2715C107.844 15.8139 108.068 16.0514 108.579 16.0514C108.709 16.051 108.84 16.0431 108.969 16.0278V16.8791C108.785 16.9119 108.599 16.9294 108.412 16.9313C107.272 16.9313 106.818 16.5315 106.818 15.5331V12.6087H105.994V11.7479H106.818V10.4351H107.844Z" fill="white"/>
<path d="M110.369 9.70264H111.385V12.5563H111.466C111.602 12.2581 111.828 12.009 112.111 11.843C112.394 11.677 112.722 11.6022 113.05 11.6287C113.301 11.615 113.552 11.6569 113.785 11.7512C114.019 11.8456 114.228 11.9901 114.399 12.1745C114.57 12.3589 114.698 12.5786 114.774 12.8179C114.85 13.0573 114.871 13.3104 114.838 13.5592V16.9025H113.812V13.8113C113.812 12.9842 113.426 12.5653 112.702 12.5653C112.526 12.5509 112.348 12.575 112.183 12.636C112.017 12.697 111.866 12.7934 111.742 12.9185C111.617 13.0435 111.522 13.1942 111.462 13.36C111.402 13.5257 111.379 13.7026 111.394 13.8781V16.9025H110.369L110.369 9.70264Z" fill="white"/>
<path d="M120.814 15.5042C120.674 15.9775 120.373 16.3869 119.961 16.6608C119.55 16.9346 119.055 17.0556 118.564 17.0024C118.221 17.0114 117.881 16.946 117.567 16.8109C117.253 16.6757 116.972 16.474 116.744 16.2197C116.515 15.9654 116.345 15.6646 116.245 15.3382C116.145 15.0118 116.118 14.6676 116.165 14.3295C116.119 13.9904 116.147 13.6455 116.247 13.3181C116.347 12.9907 116.516 12.6886 116.743 12.432C116.97 12.1755 117.249 11.9706 117.563 11.8312C117.876 11.6918 118.216 11.6212 118.559 11.6241C120.004 11.6241 120.876 12.6085 120.876 14.2346V14.5912H117.209V14.6485C117.193 14.8385 117.217 15.0298 117.279 15.2101C117.341 15.3903 117.441 15.5556 117.571 15.6953C117.701 15.8349 117.859 15.9459 118.035 16.0211C118.211 16.0963 118.4 16.1341 118.592 16.132C118.837 16.1613 119.085 16.1173 119.305 16.0055C119.525 15.8937 119.707 15.7192 119.827 15.5042L120.814 15.5042ZM117.209 13.8354H119.832C119.845 13.6616 119.821 13.487 119.762 13.3229C119.703 13.1588 119.611 13.0087 119.49 12.8824C119.37 12.756 119.224 12.6562 119.063 12.5893C118.902 12.5224 118.728 12.4899 118.553 12.4939C118.376 12.4917 118.2 12.5249 118.036 12.5915C117.872 12.6582 117.723 12.7569 117.597 12.8819C117.472 13.0069 117.373 13.1557 117.306 13.3195C117.24 13.4832 117.206 13.6586 117.209 13.8354H117.209Z" fill="white"/>
</g>
<defs>
<clipPath id="clip0">
<rect width="138" height="46" fill="white"/>
</clipPath>
</defs>
</svg>
