<svg width="676" height="411" viewBox="0 0 676 411" fill="none" xmlns="http://www.w3.org/2000/svg">
<mask id="mask0_67:5037" style="mask-type:alpha" maskUnits="userSpaceOnUse" x="0" y="0" width="676" height="411">
<path d="M0 0H338H611.438H676V25.6875V51.375V102.75V205.5V411H0V0Z" fill="#161616"/>
<path d="M0.5 410.5V0.5H338H611.438H675.5V25.6875V51.375V102.75V205.5V410.5H0.5Z" stroke="white" stroke-opacity="0.25"/>
</mask>
<g mask="url(#mask0_67:5037)">
<g filter="url(#filter0_b_67:5037)">
<path d="M0 0H338H611.438H676V25.6875V51.375V102.75V205.5V411H0V0Z" fill="#161616"/>
<path d="M0.5 0.5H338H611.438H675.5V25.6875V51.375V102.75V205.5V410.5H0.5V0.5Z" stroke="white" stroke-opacity="0.25"/>
</g>
<g opacity="0.1">
<path d="M9.55148 611.637C-20.2611 581.652 -46.4931 545.373 -67.3728 506.131C-88.2525 466.889 -103.684 424.864 -111.896 383.385" stroke="white" stroke-miterlimit="9.1468"/>
<path d="M48.447 646.432C3.43731 610.675 -36.164 560.664 -65.6637 505.222C-95.1635 449.779 -114.514 388.994 -119.021 331.686" stroke="white" stroke-miterlimit="9.1468"/>
<path d="M83.4297 671.589C25.4199 633.971 -26.1618 572.84 -62.9407 503.716C-99.6717 434.683 -121.621 357.727 -120.387 288.529" stroke="white" stroke-miterlimit="9.1468"/>
<path d="M116.579 691.136C83.4528 673.481 50.7968 647.376 20.7886 615.07C-9.21957 582.764 -36.5589 544.187 -59.1147 501.795C-81.6705 459.403 -98.3893 415.176 -108.416 372.238C-118.444 329.3 -121.917 287.611 -117.982 250.294" stroke="white" stroke-miterlimit="9.1468"/>
<path d="M148.716 706.604C110.902 690.23 73.1021 662.705 38.2904 627.123C3.47865 591.541 -28.4135 547.88 -54.3216 499.188C-80.2296 450.495 -98.6211 399.651 -108.682 350.899C-118.742 302.147 -120.382 255.44 -112.902 214.909" stroke="white" stroke-miterlimit="9.1468"/>
<path d="M180.178 718.851C138.191 704.293 95.5819 675.978 56.1851 637.638C16.8093 599.23 -19.4231 550.776 -48.4708 496.075C-77.5874 441.352 -97.4812 384.32 -107.335 330.204C-117.121 276.109 -116.846 224.861 -105.412 181.995" stroke="white" stroke-miterlimit="9.1468"/>
<path d="M211.202 728.326C165.488 716.098 118.331 687.374 74.5613 646.568C30.792 605.762 -9.58915 552.876 -41.7228 492.483C-73.8565 432.09 -95.1566 369.051 -104.544 309.951C-113.932 250.852 -111.476 195.671 -96.0074 150.948" stroke="white" stroke-miterlimit="9.1468"/>
<path d="M241.779 735.328C192.807 725.874 141.382 697.052 93.4317 654.14C45.5503 611.249 1.16417 554.2 -33.8907 488.317C-68.9456 422.433 -91.4607 353.747 -100.28 290.072C-109.1 226.397 -104.34 167.624 -84.7294 121.678" stroke="white" stroke-miterlimit="9.1468"/>
<path d="M271.978 740.105C220.028 733.736 164.687 705.15 112.837 660.444C60.9874 615.738 12.6709 554.775 -25.1615 483.671C-62.994 412.568 -86.4903 338.456 -94.6668 270.455C-102.843 202.454 -95.541 140.537 -71.8186 93.9624" stroke="white" stroke-miterlimit="9.1468"/>
<path d="M301.852 742.746C247.365 739.748 188.23 711.737 132.646 665.439C77.0615 619.14 24.9374 554.602 -15.5079 478.479C-55.9532 402.356 -80.446 323.115 -87.788 251.148C-95.13 179.181 -85.3212 114.487 -57.3645 67.6226" stroke="white" stroke-miterlimit="9.1468"/>
<path d="M331.353 743.39C274.631 744.006 212.075 716.834 152.968 669.234C93.8406 621.702 38.0945 553.72 -4.88897 472.828C-47.8935 392.003 -73.1281 307.787 -79.5819 232.172C-85.9668 156.577 -73.6189 89.493 -41.4163 42.7946" stroke="white" stroke-miterlimit="9.1468"/>
<path d="M360.465 742.104C301.88 746.599 236.134 720.489 173.65 671.856C111.165 623.224 51.9882 552.16 6.54136 466.745C-38.9266 381.4 -64.8013 292.616 -70.1544 213.643C-75.5075 134.67 -60.4978 65.5348 -24.0378 19.4582" stroke="white" stroke-miterlimit="9.1468"/>
<path d="M389.144 739.029C329.02 747.576 260.341 722.68 194.759 673.328C129.177 623.976 66.6662 550.009 18.9207 460.274C-28.8938 370.519 -55.2441 277.369 -59.6017 195.383C-63.8903 113.419 -46.1652 42.5495 -5.48423 -2.53934" stroke="white" stroke-miterlimit="9.1468"/>
<path d="M417.252 734.121C355.933 746.826 284.581 723.526 216.088 673.587C147.526 623.626 81.8933 547.047 31.9927 453.262C-17.9078 359.477 -44.7488 262.258 -47.8773 177.482C-51.0268 92.7748 -30.4636 20.511 14.3121 -23.1765" stroke="white" stroke-miterlimit="9.1468"/>
<path d="M444.835 727.47C382.715 744.528 308.875 722.956 237.684 672.72C166.424 622.463 97.7434 543.521 45.8526 445.887C-6.03822 348.253 -33.1364 247.186 -35.0241 160.076C-36.9118 72.9648 -13.6159 -0.348761 35.3081 -42.317" stroke="white" stroke-miterlimit="9.1468"/>
<path d="M471.896 719.077C409.228 740.641 333.294 720.992 259.59 670.591C185.865 620.26 114.371 539.177 60.5436 438.012C6.69505 336.916 -20.5376 232.341 -21.1578 143.054C-21.709 53.7886 4.35217 -20.188 57.2504 -60.1133" stroke="white" stroke-miterlimit="9.1468"/>
<path d="M498.165 709.084C435.295 735.261 357.52 717.688 281.585 667.435C205.629 617.251 131.465 534.297 75.845 429.871C20.2246 325.445 -6.99888 217.631 -6.18103 126.598C-5.36318 35.5646 23.517 -38.7571 80.2841 -76.2947" stroke="white" stroke-miterlimit="9.1468"/>
<path d="M523.799 697.466C461.092 728.29 381.78 713.036 303.757 663.201C225.735 613.366 149.093 528.902 91.9343 421.368C34.6857 313.881 7.45612 203.126 9.71777 110.574C11.9105 18.0006 43.5734 -56.3003 104.242 -91.0635" stroke="white" stroke-miterlimit="9.1468"/>
<path d="M548.551 684.296C508.338 707.367 459.27 710.32 406.908 694.931C354.547 679.542 298.894 645.81 245.505 595.283C192.117 544.755 145.131 481.409 108.496 412.556C71.9296 343.723 45.576 269.342 33.4997 196.833C21.4235 124.324 24.4738 59.3 41.0349 7.2968C57.5482 -44.7964 87.4823 -83.8207 128.994 -104.233" stroke="white" stroke-miterlimit="9.1468"/>
<path d="M572.51 669.528C532.945 695.661 483.616 700.947 430.585 687.011C377.485 673.055 320.682 639.877 265.915 588.928C211.216 538.001 163.062 473.544 125.709 403.34C88.3551 333.137 61.781 257.256 50.1259 183.368C38.4498 109.549 42.6912 43.8334 60.7845 -8.00338C78.8777 -59.8402 110.802 -97.729 154.581 -115.942" stroke="white" stroke-miterlimit="9.1468"/>
<path d="M595.564 653.277C556.785 682.514 507.471 690.217 453.887 677.847C400.302 665.476 342.467 632.963 286.555 581.815C230.642 530.667 181.485 465.301 143.508 393.927C105.532 322.554 78.7857 245.263 67.6054 170.314C56.4251 95.3657 61.7734 29.2341 81.4525 -22.1183C101.132 -73.4708 135.003 -110.086 180.987 -125.892" stroke="white" stroke-miterlimit="9.1468"/>
<path d="M617.554 635.571C579.857 667.928 530.745 678.18 476.883 667.458C423.021 656.736 364.298 625.158 307.288 573.901C250.278 522.644 200.213 456.548 161.779 384.206C123.345 311.863 96.3623 233.37 85.7527 157.54C75.143 81.7107 81.694 15.3434 102.917 -35.3869C124.118 -86.0482 159.992 -121.072 207.958 -134.237" stroke="white" stroke-miterlimit="9.1468"/>
<path d="M638.482 616.41C602.074 651.949 553.413 664.676 499.369 655.783C445.325 646.89 385.92 616.309 328.094 565.256C270.2 514.181 219.364 447.398 180.409 374.293C141.523 301.209 114.56 221.666 104.548 145.115C94.5354 68.5629 102.343 2.27783 125.163 -47.5123C147.983 -97.3025 185.726 -130.55 235.542 -140.888" stroke="white" stroke-miterlimit="9.1468"/>
<path d="M658.279 595.772C623.389 634.489 575.342 649.89 521.393 642.911C467.443 635.931 407.5 606.618 348.906 555.858C290.244 505.076 238.713 437.854 199.492 364.141C160.27 290.427 133.38 210.152 124.04 133.128C114.7 56.1028 123.79 -9.94116 148.144 -58.5843C172.498 -107.228 212.116 -138.47 263.72 -145.775" stroke="white" stroke-miterlimit="9.1468"/>
<path d="M676.9 573.796C643.754 615.683 596.62 633.776 542.929 628.91C489.259 623.976 428.964 596.063 369.719 545.707C310.453 495.419 258.302 428.008 218.841 353.844C179.381 279.681 152.589 198.833 144.017 121.516C135.445 44.1976 145.893 -21.3563 171.788 -68.6246C197.682 -115.893 239.159 -144.834 292.349 -148.941" stroke="white" stroke-miterlimit="9.1468"/>
<path d="M694.161 550.348C663.079 595.353 617.021 616.337 563.796 613.65C510.57 610.962 450.199 584.533 390.426 534.92C330.674 485.238 278.109 417.7 238.552 343.356C198.996 269.013 172.352 187.683 164.622 110.321C156.803 33.0065 168.684 -31.8083 196.193 -77.4528C223.701 -123.097 266.769 -149.593 321.44 -150.157" stroke="white" stroke-miterlimit="9.1468"/>
<path d="M710.111 525.52C681.367 573.727 636.683 597.618 584.178 597.261C531.673 596.904 471.279 572.277 411.136 523.38C350.972 474.552 298.047 407.206 258.443 332.772C218.838 258.339 192.555 176.817 185.674 99.6391C178.793 22.4608 192.112 -41.3871 221.082 -85.153C250.052 -128.919 294.901 -152.609 350.942 -149.513" stroke="white" stroke-miterlimit="9.1468"/>
<path d="M724.612 499.27C698.434 550.673 655.399 577.555 603.78 579.73C552.181 581.835 492.019 559.164 431.629 511.322C371.239 463.481 318.092 396.368 278.515 322.094C238.937 247.819 213.061 166.196 207.124 89.3814C201.187 12.5668 215.999 -49.9962 246.574 -91.6136C277.15 -133.231 323.558 -153.882 380.815 -146.872" stroke="white" stroke-miterlimit="9.1468"/>
<path d="M737.593 471.576C714.37 526.142 673.218 556.238 622.759 561.028C572.3 565.818 512.534 545.303 451.993 498.697C391.453 452.091 338.179 385.392 298.766 311.318C259.353 237.244 233.87 155.817 228.973 79.546C224.076 3.27522 240.523 -57.7329 272.689 -96.9049C304.854 -136.077 352.806 -153.392 411.037 -142.165" stroke="white" stroke-miterlimit="9.1468"/>
<path d="M748.822 442.216C728.918 499.982 689.994 533.396 640.908 541.093C591.844 548.722 532.618 530.633 472.112 485.394C411.606 440.155 358.212 374.098 319.039 300.474C279.865 226.85 254.913 145.66 251.2 70.2033C247.486 -5.2538 265.575 -64.4791 299.315 -100.909C333.054 -137.339 382.514 -150.952 441.613 -135.163" stroke="white" stroke-miterlimit="9.1468"/>
<path d="M758.277 411.259C742.058 472.261 705.732 509.258 658.365 519.967C610.977 530.746 552.505 515.375 492.108 471.752C431.711 428.13 378.334 362.756 339.427 289.741C300.541 216.658 276.146 135.864 273.781 61.4217C271.347 -13.0416 291.269 -70.1241 326.685 -103.404C362.101 -136.683 413.032 -146.229 472.666 -125.528" stroke="white" stroke-miterlimit="9.1468"/>
<path d="M765.695 378.323C753.734 442.661 720.353 483.346 674.943 497.518C629.534 511.69 572.027 499.327 511.746 457.549C451.464 415.771 398.131 351.24 359.628 278.876C321.125 206.513 297.404 126.226 296.436 52.8889C295.446 -20.3795 317.323 -74.9803 354.517 -104.702C391.641 -134.444 444.035 -139.398 504.077 -113.371" stroke="white" stroke-miterlimit="9.1468"/>
<path d="M770.823 343.029C763.782 410.754 733.95 455.614 690.828 473.65C647.727 491.617 591.404 482.782 531.381 443.118C471.289 403.433 418.049 339.835 379.86 268.17C341.74 196.527 318.762 116.769 319.423 44.7585C320.064 -27.183 344.205 -78.831 383.188 -104.539C422.17 -130.246 476.043 -129.924 536.214 -97.9028" stroke="white" stroke-miterlimit="9.1468"/>
<path d="M773.132 304.613C772.197 356.79 758.015 398.289 733.823 425.424C709.63 452.558 675.338 465.376 634.34 460.167C593.322 455.026 549.67 432.347 508.753 397.01C467.836 361.674 429.765 313.563 399.93 257.49C370.095 201.418 351.486 142.894 345.019 89.285C338.505 35.5859 344.154 -13.2675 362.74 -50.1799C381.394 -87.0712 411.095 -108.302 447.137 -113.274C483.158 -118.178 525.499 -106.754 569.295 -78.3771" stroke="white" stroke-miterlimit="9.1468"/>
<path d="M771.883 261.568C776.237 316.416 766.372 361.796 745.544 392.973C724.694 424.219 692.721 441.288 652.887 439.675C612.983 438.041 569.643 417.794 528.767 384.053C487.911 350.243 449.588 302.959 419.869 246.998C390.151 191.036 372.142 132.771 366.997 80.0175C361.783 27.2432 369.296 -20.0611 390.214 -53.9996C411.154 -88.007 443.153 -104.918 480.716 -104.752C518.28 -104.586 561.358 -87.4341 604.415 -53.178" stroke="white" stroke-miterlimit="9.1468"/>
<path d="M764.688 209.847C776.14 267.617 772.375 317.95 756.063 354.577C739.751 391.204 711.008 414.235 672.503 417.399C633.998 420.564 590.67 403.487 549.474 371.532C508.278 339.578 469.282 292.768 439.351 236.515C409.42 180.262 392.407 121.698 388.901 69.7473C385.417 17.7275 395.441 -27.6793 419.6 -57.9143C443.738 -88.0805 478.919 -99.1198 518.389 -92.1154C557.859 -85.111 601.727 -60.1798 643.241 -18.4048" stroke="white" stroke-miterlimit="9.1468"/>
<path d="M739.93 127.283C765.091 188.788 773.297 248.054 766.054 295.215C758.811 342.375 736.141 377.362 699.5 390.217C662.86 403.072 618.468 391.7 575.284 362.304C532.101 332.909 490.215 285.442 458.635 226.198C427.055 166.954 411.228 105.737 410.908 53.4777C410.656 1.2391 426.117 -41.9794 457.25 -65.1849C488.383 -88.3905 530.066 -87.645 573.225 -67.3022C616.385 -46.9595 660.953 -7.04067 697.904 48.1905" stroke="white" stroke-miterlimit="9.1468"/>
<path d="M720.525 86.9096C751.653 145.412 766.222 205.566 764.613 255.503C763.053 305.53 745.248 345.319 711.745 363.203C678.173 381.065 635.247 373.533 592.885 346.876C550.523 320.219 508.773 274.528 477.693 216.115C446.613 157.702 431.976 97.5267 433.536 47.4999C435.097 -2.527 452.902 -42.3158 486.405 -60.1995C519.977 -78.0622 562.903 -70.5297 605.265 -43.8727C647.627 -17.2158 689.376 28.4756 720.525 86.9096Z" stroke="white" stroke-miterlimit="9.1468"/>
<path d="M719.087 87.6753C747.629 141.318 760.999 196.508 759.563 242.427C758.127 288.346 741.836 324.904 711.054 341.282C680.272 357.66 640.851 350.746 601.965 326.281C563.08 301.816 524.778 259.892 496.236 206.249C467.694 152.606 454.323 97.4162 455.759 51.4973C457.196 5.57836 473.487 -30.9794 504.268 -47.3575C535.05 -63.7356 574.472 -56.8213 613.357 -32.3567C652.174 -7.91316 690.545 34.0327 719.087 87.6753Z" stroke="white" stroke-miterlimit="9.1468"/>
<path d="M716.567 89.0171C742.475 137.709 754.601 187.846 753.261 229.498C751.922 271.15 737.188 304.339 709.196 319.232C681.295 334.078 645.447 327.803 610.154 305.642C574.862 283.48 540.055 245.412 514.147 196.72C488.239 148.027 476.114 97.8912 477.453 56.2392C478.792 14.5871 493.527 -18.6018 521.518 -33.4953C549.42 -48.341 585.268 -42.0658 620.56 -19.9047C655.943 2.20858 690.68 40.2557 716.567 89.0171Z" stroke="white" stroke-miterlimit="9.1468"/>
<path d="M713.146 90.8366C736.372 134.489 747.246 179.343 746.025 216.659C744.804 253.976 731.578 283.706 706.557 297.019C681.536 310.332 649.489 304.69 617.859 284.854C586.228 265.017 555.124 230.869 531.877 187.285C508.651 143.633 497.777 98.7787 498.998 61.4625C500.219 24.1463 513.445 -5.58367 538.466 -18.8969C563.487 -32.2101 595.534 -26.5683 627.164 -6.73165C658.705 13.1529 689.899 47.2534 713.146 90.8366Z" stroke="white" stroke-miterlimit="9.1468"/>
<path d="M708.556 93.2789C729.005 131.711 738.559 171.263 737.498 204.105C736.438 236.947 724.81 263.171 702.759 274.904C680.708 286.636 652.442 281.697 624.633 264.158C596.802 246.688 569.358 216.597 548.889 178.234C528.44 139.802 518.886 100.251 519.947 67.4082C521.008 34.5658 532.635 8.34254 554.686 -3.39032C576.737 -15.1232 605.003 -10.1838 632.812 7.35519C660.712 24.8463 688.108 54.847 708.556 93.2789Z" stroke="white" stroke-miterlimit="9.1468"/>
<path d="M703.065 96.2004C720.688 129.322 728.964 163.433 728.084 191.733C727.184 220.102 717.129 242.659 698.138 252.764C679.147 262.868 654.82 258.605 630.789 243.501C606.759 228.398 583.14 202.566 565.538 169.375C547.915 136.253 539.639 102.142 540.518 73.8427C541.419 45.4739 551.474 22.9164 570.465 12.8118C589.456 2.70719 613.782 6.97102 637.813 22.0744C661.754 37.2258 685.441 63.0788 703.065 96.2004Z" stroke="white" stroke-miterlimit="9.1468"/>
<path d="M696.496 99.6962C711.246 127.418 718.195 155.998 717.428 179.734C716.662 203.47 708.247 222.383 692.316 230.859C676.385 239.336 655.999 235.747 635.884 223.122C615.77 210.496 595.95 188.764 581.2 161.042C566.45 133.321 559.5 104.741 560.267 81.0045C561.034 57.2685 569.449 38.3556 585.38 29.8793C601.31 21.4029 621.697 24.9912 641.811 37.6169C661.926 50.2427 681.746 71.9749 696.496 99.6962Z" stroke="white" stroke-miterlimit="9.1468"/>
<path d="M689.024 103.671C700.901 125.992 706.429 148.862 705.795 167.965C705.183 186.999 698.43 202.199 685.65 208.999C672.869 215.799 656.491 212.908 640.362 202.781C624.234 192.653 608.307 175.201 596.41 152.949C584.533 130.628 579.005 107.758 579.639 88.6548C580.251 69.6204 587.004 54.4212 599.784 47.6209C612.565 40.8207 628.943 43.7123 645.072 53.8394C661.2 63.9664 677.127 81.4188 689.024 103.671Z" stroke="white" stroke-miterlimit="9.1468"/>
<path d="M680.474 108.22C689.381 124.961 693.604 142.231 693.146 156.564C692.688 170.897 687.619 182.313 677.988 187.437C668.358 192.562 656.056 190.387 643.914 182.759C631.771 175.131 619.786 162.048 610.9 145.239C601.993 128.498 597.77 111.228 598.227 96.8949C598.685 82.5621 603.755 71.1455 613.386 66.0213C623.016 60.8972 635.317 63.0712 647.46 70.6995C659.603 78.3278 671.587 91.4104 680.474 108.22Z" stroke="white" stroke-miterlimit="9.1468"/>
<path d="M671.115 113.201C677.053 124.361 679.855 135.92 679.572 145.483C679.29 155.045 675.903 162.679 669.423 166.127C663.033 169.527 654.788 168.14 646.631 163.01C638.542 157.902 630.5 149.189 624.583 137.959C618.665 126.73 615.843 115.239 616.125 105.677C616.407 96.115 619.794 88.4809 626.275 85.0329C632.665 81.6327 640.91 83.0202 649.067 88.1497C657.155 93.2583 665.108 102.019 671.115 113.201Z" stroke="white" stroke-miterlimit="9.1468"/>
<path d="M660.764 118.708C663.734 124.288 665.134 130.067 665.028 134.859C664.852 139.63 663.148 143.481 659.977 145.226C656.737 146.95 652.659 146.233 648.557 143.623C644.502 141.103 640.491 136.712 637.543 131.063C634.574 125.483 633.173 119.703 633.28 114.911C633.456 110.141 635.16 106.289 638.331 104.544C641.571 102.82 645.648 103.538 649.751 106.148C653.785 108.736 657.795 113.127 660.764 118.708Z" stroke="white" stroke-miterlimit="9.1468"/>
</g>
</g>
<defs>
<filter id="filter0_b_67:5037" x="-4" y="-4" width="684" height="419" filterUnits="userSpaceOnUse" color-interpolation-filters="sRGB">
<feFlood flood-opacity="0" result="BackgroundImageFix"/>
<feGaussianBlur in="BackgroundImage" stdDeviation="2"/>
<feComposite in2="SourceAlpha" operator="in" result="effect1_backgroundBlur_67:5037"/>
<feBlend mode="normal" in="SourceGraphic" in2="effect1_backgroundBlur_67:5037" result="shape"/>
</filter>
</defs>
</svg>
