<svg width="155" height="46" viewBox="0 0 155 46" fill="none" xmlns="http://www.w3.org/2000/svg">
<path fill-rule="evenodd" clip-rule="evenodd" d="M149.257 46H5.74285C2.57773 46 0 43.4075 0 40.25V5.75C0 2.58105 2.57773 0 5.74285 0H149.257C152.419 0 155 2.58105 155 5.75V40.25C155 43.4075 152.419 46 149.257 46Z" fill="black"/>
<path fill-rule="evenodd" clip-rule="evenodd" d="M149.257 0.920574C151.912 0.920574 154.085 3.09152 154.085 5.75V40.25C154.085 42.9085 151.926 45.0794 149.257 45.0794H5.74285C3.08814 45.0794 0.915321 42.9085 0.915321 40.25V5.75C0.915321 3.09152 3.07388 0.920574 5.74285 0.920574C5.74285 0.920574 149.257 0.920574 149.257 0.920574ZM149.257 0H5.74285C2.57773 0 0 2.59252 0 5.75V40.25C0 43.419 2.57773 46 5.74285 46H149.257C152.419 46 155 43.419 155 40.25V5.75C155 2.59252 152.419 0 149.257 0Z" fill="#A6A6A6"/>
<path d="M81.6544 15.2166C80.6193 15.2166 79.7468 14.8523 79.0567 14.1354C78.3724 13.4385 77.9903 12.4778 78.0074 11.497C78.0074 10.4502 78.361 9.56406 79.0567 8.86145C79.7439 8.14449 80.6165 7.78027 81.6515 7.78027C82.6752 7.78027 83.5477 8.14449 84.2492 8.86145C84.945 9.58701 85.2985 10.4732 85.2985 11.497C85.2871 12.5466 84.9336 13.4328 84.2492 14.1325C83.562 14.8552 82.6895 15.2166 81.6544 15.2166ZM50.8559 15.2166C49.8436 15.2166 48.9654 14.8581 48.2468 14.1497C47.5339 13.4442 47.1718 12.5523 47.1718 11.4999C47.1718 10.4474 47.5339 9.55546 48.2468 8.84997C48.9511 8.14162 49.8294 7.78314 50.8559 7.78314C51.3577 7.78314 51.8453 7.88352 52.313 8.08713C52.7721 8.28501 53.1456 8.55459 53.4222 8.88439L53.4906 8.96756L52.7179 9.7304L52.638 9.63576C52.2018 9.11381 51.6172 8.85858 50.8445 8.85858C50.1544 8.85858 49.5528 9.10521 49.0566 9.59274C48.5576 10.0831 48.3038 10.7255 48.3038 11.5027C48.3038 12.2799 48.5576 12.9223 49.0566 13.4127C49.5528 13.9002 50.1544 14.1469 50.8445 14.1469C51.5802 14.1469 52.1989 13.9002 52.6808 13.4127C52.966 13.1259 53.1427 12.7244 53.2055 12.2168H50.7276V11.1442H54.2691L54.2833 11.2417C54.309 11.4224 54.3347 11.6088 54.3347 11.7809C54.3347 12.7703 54.0381 13.5704 53.4507 14.1612C52.7835 14.8609 51.9109 15.2166 50.8559 15.2166ZM91.8055 15.0646H90.7134L87.3687 9.68165L87.3972 10.651V15.0617H86.3051V7.93514H87.5512L87.5854 7.98963L90.7305 13.0599L90.702 12.0935V7.93514H91.8055V15.0646V15.0646ZM73.4479 15.0646H72.3416V9.00771H70.4225V7.93514H75.3641V9.00771H73.4451V15.0646H73.4479ZM69.5215 15.0646H68.418V7.93514H69.5215V15.0646ZM63.3196 15.0646H62.2161V9.00771H60.297V7.93514H65.2386V9.00771H63.3196V15.0646ZM59.5984 15.0531H55.3669V7.93514H59.5984V9.00771H56.4732V10.9636H59.2933V12.0247H56.4732V13.9805H59.5984V15.0531ZM79.8665 13.3984C80.3598 13.8945 80.9586 14.144 81.6544 14.144C82.3701 14.144 82.9546 13.9002 83.4422 13.3984C83.927 12.9108 84.1722 12.2713 84.1722 11.4999C84.1722 10.7284 83.927 10.086 83.4451 9.60135C82.9518 9.10521 82.3501 8.85571 81.6572 8.85571C80.9415 8.85571 80.357 9.09948 79.8722 9.60135C79.3875 10.0889 79.1423 10.7284 79.1423 11.4999C79.1423 12.2713 79.3846 12.9137 79.8665 13.3984Z" fill="white"/>
<path fill-rule="evenodd" clip-rule="evenodd" d="M77.9048 25.0191C75.2102 25.0191 73.0259 27.0753 73.0259 29.9116C73.0259 32.7221 75.2244 34.8041 77.9048 34.8041C80.5995 34.8041 82.7837 32.7335 82.7837 29.9116C82.7837 27.0753 80.5995 25.0191 77.9048 25.0191ZM77.9048 32.8655C76.4306 32.8655 75.1617 31.638 75.1617 29.9001C75.1617 28.1364 76.4335 26.9348 77.9048 26.9348C79.379 26.9348 80.6479 28.1364 80.6479 29.9001C80.6508 31.6495 79.379 32.8655 77.9048 32.8655ZM67.2603 25.0191C64.5656 25.0191 62.3814 27.0753 62.3814 29.9116C62.3814 32.7221 64.5799 34.8041 67.2603 34.8041C69.9549 34.8041 72.1391 32.7335 72.1391 29.9116C72.1391 27.0753 69.9521 25.0191 67.2603 25.0191ZM67.2603 32.8655C65.7861 32.8655 64.5172 31.638 64.5172 29.9001C64.5172 28.1364 65.7889 26.9348 67.2603 26.9348C68.7345 26.9348 70.0034 28.1364 70.0034 29.9001C70.0034 31.6495 68.7345 32.8655 67.2603 32.8655ZM54.594 26.5132V28.5838H59.5356C59.3845 29.7453 59.0024 30.6027 58.4179 31.1906C57.6936 31.9191 56.5758 32.7106 54.6055 32.7106C51.5686 32.7106 49.1934 30.2443 49.1934 27.19C49.1934 24.1358 51.5686 21.6694 54.6055 21.6694C56.245 21.6694 57.4398 22.3204 58.3266 23.1521L59.7866 21.6838C58.5547 20.4965 56.9151 19.5874 54.6169 19.5874C50.4509 19.5874 46.955 23.0001 46.955 27.1785C46.955 31.3684 50.448 34.7697 54.6169 34.7697C56.8667 34.7697 58.5547 34.0298 59.8892 32.636C61.2494 31.2681 61.68 29.338 61.68 27.7808C61.68 27.2961 61.6429 26.8602 61.5659 26.4903H54.5912C54.594 26.4874 54.594 26.5132 54.594 26.5132ZM106.402 28.1249C105.995 27.0266 104.763 25.0076 102.236 25.0076C99.7328 25.0076 97.6512 26.9893 97.6512 29.9001C97.6512 32.6475 99.71 34.7926 102.479 34.7926C104.703 34.7926 105.997 33.4247 106.531 32.6217L104.88 31.509C104.332 32.3263 103.571 32.8626 102.49 32.8626C101.398 32.8626 100.634 32.3636 100.126 31.3799L106.631 28.6698C106.631 28.6727 106.402 28.1249 106.402 28.1249ZM99.7699 29.7596C99.7186 27.8697 101.23 26.909 102.311 26.909C103.163 26.909 103.873 27.3305 104.116 27.9443L99.7699 29.7596ZM94.4861 34.5001H96.6219V20.1266H94.4861V34.5001ZM90.9788 26.106H90.9018C90.4199 25.5295 89.5046 25.0076 88.3355 25.0076C85.9089 25.0076 83.6733 27.1556 83.6733 29.9145C83.6733 32.6618 85.8975 34.784 88.3355 34.784C89.4903 34.784 90.4199 34.2592 90.9018 33.6713H90.9788V34.3739C90.9788 36.2409 89.9865 37.2475 88.3868 37.2475C87.078 37.2475 86.2653 36.3011 85.9346 35.5096L84.0782 36.2896C84.6115 37.5802 86.0344 39.1775 88.384 39.1775C90.8876 39.1775 93.0091 37.6949 93.0091 34.0785V25.3001H90.9902V26.106C90.9931 26.106 90.9788 26.106 90.9788 26.106ZM88.5265 32.8655C87.0523 32.8655 85.8205 31.6266 85.8205 29.9145C85.8205 28.188 87.0523 26.9376 88.5265 26.9376C89.9865 26.9376 91.1185 28.2024 91.1185 29.9145C91.1328 31.6266 89.9893 32.8655 88.5265 32.8655ZM116.403 20.1266H111.296V34.5001H113.431V29.057H116.405C118.769 29.057 121.093 27.3334 121.093 24.5975C121.093 21.8616 118.778 20.1266 116.403 20.1266ZM116.465 27.0495H113.428V22.1168H116.465C118.065 22.1168 118.969 23.4446 118.969 24.5832C118.969 25.7102 118.054 27.0495 116.465 27.0495ZM129.653 24.9933C128.102 24.9933 126.502 25.6844 125.841 27.19L127.734 27.9815C128.142 27.19 128.889 26.9204 129.679 26.9204C130.785 26.9204 131.903 27.5858 131.929 28.7731V28.9251C131.547 28.7071 130.708 28.3744 129.705 28.3744C127.66 28.3744 125.587 29.4986 125.587 31.6065C125.587 33.5365 127.264 34.7754 129.131 34.7754C130.566 34.7754 131.356 34.1244 131.849 33.3702H131.926V34.4829H133.985V28.9767C133.985 26.4128 132.091 24.9933 129.653 24.9933ZM129.385 32.8655C128.687 32.8655 127.709 32.5213 127.709 31.638C127.709 30.5253 128.929 30.1037 129.97 30.1037C130.911 30.1037 131.356 30.3073 131.915 30.5884C131.761 31.8789 130.677 32.854 129.385 32.8655ZM141.495 25.3001L139.043 31.5348H138.966L136.426 25.3001H134.127L137.94 34.0155L135.767 38.8592H137.991L143.856 25.3001H141.495ZM122.271 34.5001H124.407V20.1266H122.271V34.5001Z" fill="white"/>
<path fill-rule="evenodd" clip-rule="evenodd" d="M11.9306 8.66386C11.5998 9.02234 11.4088 9.57009 11.4088 10.287V35.7161C11.4088 36.4331 11.5998 36.9808 11.942 37.325L12.0304 37.4024L26.1965 23.155V22.8367L12.019 8.58643L11.9306 8.66386Z" fill="url(#paint0_linear)"/>
<path fill-rule="evenodd" clip-rule="evenodd" d="M30.9098 27.9182L26.1849 23.1662V22.8335L30.9098 18.0815L31.0124 18.1446L36.6013 21.3394C38.201 22.2456 38.201 23.7426 36.6013 24.6603L31.0124 27.8551L30.9098 27.9182Z" fill="url(#paint1_linear)"/>
<path fill-rule="evenodd" clip-rule="evenodd" d="M31.0125 27.8552L26.185 23L11.9305 37.3363C12.4523 37.8984 13.3277 37.9615 14.3058 37.4137L31.0125 27.8552Z" fill="url(#paint2_linear)"/>
<path fill-rule="evenodd" clip-rule="evenodd" d="M31.0125 18.1448L14.3058 8.60067C13.3277 8.03857 12.4495 8.11601 11.9305 8.6781L26.185 23L31.0125 18.1448Z" fill="url(#paint3_linear)"/>
<path opacity="0.2" fill-rule="evenodd" clip-rule="evenodd" d="M30.9099 27.752L14.3171 37.233C13.3904 37.7692 12.5635 37.732 12.0302 37.2444L11.9418 37.3333L12.0302 37.4108C12.5635 37.8954 13.3904 37.9356 14.3171 37.3993L31.024 27.8552L30.9099 27.752Z" fill="black"/>
<path opacity="0.12" fill-rule="evenodd" clip-rule="evenodd" d="M36.6014 24.4941L30.8956 27.752L30.9983 27.8552L36.5872 24.6605C37.3884 24.2016 37.7819 23.5994 37.7819 23C37.7334 23.5506 37.3257 24.0726 36.6014 24.4941Z" fill="black"/>
<path opacity="0.25" fill-rule="evenodd" clip-rule="evenodd" d="M14.3058 8.76713L36.6015 21.506C37.3257 21.9161 37.7335 22.4524 37.7962 23.0002C37.7962 22.4008 37.4027 21.7986 36.6015 21.3397L14.3058 8.6008C12.7062 7.68022 11.4088 8.4488 11.4088 10.2871V10.4534C11.4088 8.61227 12.7062 7.85803 14.3058 8.76713Z" fill="white"/>
<defs>
<linearGradient id="paint0_linear" x1="24.9258" y1="10.0127" x2="2.21703" y2="16.0289" gradientUnits="userSpaceOnUse">
<stop stop-color="#00A0FF"/>
<stop offset="0.00657" stop-color="#00A1FF"/>
<stop offset="0.2601" stop-color="#00BEFF"/>
<stop offset="0.5122" stop-color="#00D2FF"/>
<stop offset="0.7604" stop-color="#00DFFF"/>
<stop offset="1" stop-color="#00E3FF"/>
</linearGradient>
<linearGradient id="paint1_linear" x1="38.6875" y1="22.9999" x2="11.0197" y2="22.9999" gradientUnits="userSpaceOnUse">
<stop stop-color="#FFE000"/>
<stop offset="0.4087" stop-color="#FFBD00"/>
<stop offset="0.7754" stop-color="#FFA500"/>
<stop offset="1" stop-color="#FF9C00"/>
</linearGradient>
<linearGradient id="paint2_linear" x1="28.3875" y1="25.6419" x2="10.0163" y2="56.3858" gradientUnits="userSpaceOnUse">
<stop stop-color="#FF3A44"/>
<stop offset="1" stop-color="#C31162"/>
</linearGradient>
<linearGradient id="paint3_linear" x1="8.34108" y1="0.205656" x2="16.5373" y2="13.9364" gradientUnits="userSpaceOnUse">
<stop stop-color="#32A071"/>
<stop offset="0.0685" stop-color="#2DA771"/>
<stop offset="0.4762" stop-color="#15CF74"/>
<stop offset="0.8009" stop-color="#06E775"/>
<stop offset="1" stop-color="#00F076"/>
</linearGradient>
</defs>
</svg>
