<svg width="210" height="211" viewBox="0 0 210 211" fill="none" xmlns="http://www.w3.org/2000/svg">
<g clip-path="url(#clip0_63:4793)">
<path d="M104.921 105.649V0.324589C162.954 0.324589 210 47.4804 210 105.649C210 116.77 208.245 127.815 204.796 138.384L104.921 105.649Z" fill="#BD1025"/>
<path d="M105.079 105.649L204.951 138.384C186.914 193.674 127.579 223.834 72.4178 205.758C61.8739 202.301 51.942 197.195 42.9946 190.626L105.079 105.649Z" fill="#500810"/>
<path d="M105.079 105.649L42.9946 190.626C34.0893 184.089 26.2689 176.188 19.8149 167.21L105.079 105.649Z" fill="#750518"/>
<path d="M105.079 105.649L19.8153 167.207C15.5245 161.235 11.8685 154.827 8.90869 148.092L105.079 105.649Z" fill="#820718"/>
<path d="M105.079 105.649L8.91175 148.095C-0.0388899 127.718 -2.31865 105.023 2.40278 83.2659L105.079 105.649Z" fill="#8E0D1C"/>
<path d="M105.079 105.649L2.39941 83.2627C4.74394 72.4507 8.77561 62.0802 14.3422 52.5277L105.079 105.649Z" fill="#C41432"/>
<path d="M105.079 105.646L14.3423 52.5277C20.4691 42.0143 28.3673 32.6468 37.6871 24.8373L105.079 105.646Z" fill="#E51538"/>
<path d="M105.08 105.649L37.6875 24.8373C47.859 16.3137 59.546 9.79925 72.1365 5.63157L105.08 105.649Z" fill="#FC1531"/>
<path d="M105.079 105.649L72.1362 5.63481C82.7643 2.1163 93.8846 0.324589 105.079 0.324589V105.649Z" fill="#FC3053"/>
<path d="M104.921 105.653L104.598 0.805344" stroke="#FF6A6A" stroke-width="2"/>
<ellipse cx="104.598" cy="105.5" rx="38.6207" ry="38.6565" fill="black"/>
</g>
<defs>
<clipPath id="clip0_63:4793">
<rect width="210" height="211" fill="white"/>
</clipPath>
</defs>
</svg>
