<svg width="80" height="80" viewBox="0 0 80 80" fill="none" xmlns="http://www.w3.org/2000/svg">
<g clip-path="url(#clip0_42:2313)">
<g filter="url(#filter0_f_42:2313)">
<circle cx="40" cy="40" r="18" fill="#FC1531"/>
</g>
<path d="M55.82 78.194L78.1999 55.8158V24.1842L55.82 1.81502H24.186L1.8061 24.1842V55.8158L24.177 78.194H55.82ZM79.7402 56.8335L56.572 80H23.431C15.6237 72.1933 7.80731 64.3835 0 56.5768C0 45.5236 0 34.4734 0 23.4292C7.80731 15.6134 15.6237 7.80672 23.431 0H56.572C64.3793 7.80672 72.1866 15.6134 79.997 23.4292C80.006 34.4734 79.997 45.5236 79.997 56.5768L79.7402 56.8335Z" fill="white"/>
<path d="M55.1848 76.66L76.6647 55.1817V24.8185L55.1848 3.34024H24.8193L3.33943 24.8185V55.1817L24.8103 76.66H55.1848ZM77.1781 55.526L55.4324 77.261H24.5626C17.2869 69.9918 10.0081 62.7166 2.7384 55.4384C2.7384 45.1492 2.72934 34.8601 2.7384 24.5588C10.0081 17.2836 17.2839 10.0084 24.5626 2.73926H55.4355C62.7203 10.0084 69.999 17.2836 77.2657 24.5618C77.2748 34.8601 77.2657 45.1492 77.2657 55.4414L77.1781 55.526Z" fill="white"/>
<path fill-rule="evenodd" clip-rule="evenodd" d="M53.1477 71.8672L53.5252 71.4897L55.0414 69.9736L55.7088 69.3062L57.1887 67.8324L57.7868 67.2254L59.2334 65.7788L59.7982 65.2141L61.2268 63.7856L61.7735 63.245L63.196 61.8166L63.7427 61.276L65.1712 59.8475L65.727 59.2828L67.1736 57.8362L67.7807 57.2292L69.2546 55.7554L69.9221 55.088L71.2661 53.7441H65.7692L66.1981 53.9917L64.7242 55.4655L61.7463 53.7441H61.3355L64.3407 55.849L62.894 57.2956L58.27 54.0612L62.5406 57.649L61.112 59.0774L56.9592 55.5833L60.7768 59.4096L59.3543 60.8321L55.5457 57.0238L59.022 61.1673L57.5935 62.5957L53.9813 58.2983L57.2431 62.9461L55.7964 64.3927L52.3533 59.47L55.4189 64.7762L53.939 66.25L50.6077 60.4787L53.501 66.6848L51.9849 68.2009L48.7502 61.2579L51.3688 68.4576H49.2274L46.8807 62.0038L48.6113 68.4576H47.8411L46.0441 66.6607L44.9387 62.5354L45.6575 66.6275H43.6128L42.9544 62.8706L43.2806 66.6275H41.2691L40.952 63.0155V66.6275H38.9405V63.0669L38.6234 66.6275H36.6028L36.9381 62.8615L36.2706 66.6275H34.2259L34.9538 62.5263L33.8393 66.6607L32.0513 68.4576H31.2721L33.0027 62.0038L30.656 68.4576H28.5146L31.1181 61.3002L27.8985 68.2009L26.3914 66.6848L29.3029 60.4455L25.9474 66.25L24.4736 64.7762L27.5542 59.4429L24.087 64.3896L22.6403 62.943L25.8931 58.2953L22.2899 62.5927L20.8614 61.1643L24.3618 56.9967L20.5261 60.8321L19.1036 59.4096L22.9302 55.5833L18.7683 59.0774L17.3398 57.649L21.6104 54.0612L16.9864 57.2956L15.5397 55.849L18.5448 53.7441H18.1431L15.1652 55.4655L13.6853 53.9917L14.1141 53.7441H8.62939L9.96434 55.088L10.6318 55.7554L12.1117 57.2292L12.7097 57.8362L14.1564 59.2828L14.7212 59.8385L16.1498 61.2669L16.6964 61.8136L18.119 63.236L18.6656 63.7826L20.0942 65.2111L20.659 65.7758L22.0966 67.2224L22.7037 67.8294L24.1776 69.3032L24.8541 69.9706L26.3612 71.4867L26.7387 71.8642H27.2703H29.4116H30.363H32.444H33.2987H33.4618L35.3011 70.025H35.6696H36.3129H38.3244H38.9405H40.952H41.559H43.5796H44.2138H44.5913L46.4307 71.8642H46.5847H47.4394H49.5204H50.4717H52.6131H53.1477V71.8672ZM71.2721 26.2469L69.9281 24.903L69.2606 24.2356L67.7868 22.7618L67.1797 22.1548L65.733 20.7082L65.1682 20.1435L63.7396 18.715L63.199 18.1745L61.7705 16.746L61.2298 16.2054L59.8013 14.7769L59.2365 14.2122L57.7898 12.7656L57.1918 12.1586L55.7119 10.6848L55.0444 10.0174L53.1537 8.12689H52.6222H50.4808H49.5294H47.4485H46.5938H46.4397L44.6004 9.97513H44.2229H43.5886H41.5681H40.961H38.9495H38.3334H36.3219H35.6786H35.3102L33.4708 8.12689H33.3077H32.453H30.3721H29.4177H27.2763H26.7448L24.8601 10.0174L24.1836 10.6848L22.7097 12.1586L22.1027 12.7656L20.665 14.2122L20.1003 14.7769L18.6717 16.2054L18.125 16.752L16.7025 18.1745L16.1558 18.7211L14.7273 20.1435L14.1625 20.7082L12.7158 22.1548L12.1178 22.7618L10.6379 24.2356L9.96736 24.903L8.63241 26.2469H14.1202L13.6913 25.9993L15.1712 24.5255L18.1492 26.2469H18.5509L15.5457 24.142L16.9924 22.6954L21.6315 25.9389L17.3428 22.3421L18.7713 20.9136L22.9332 24.4078L19.1096 20.5784L20.5321 19.156L24.3678 22.9914L20.8734 18.8238L22.302 17.3953L25.8991 21.6837L22.6463 17.045L24.093 15.5984L27.5602 20.5542L24.4796 15.2118L25.9535 13.7381L29.309 19.5516L26.3974 13.3032L27.9136 11.7871L31.1241 18.6697L28.5207 11.5304H30.662L33.0178 17.9842L31.2812 11.5304H32.0604L33.8484 13.3273L34.9628 17.4617L34.235 13.3606H36.2797L36.9471 17.1356L36.6119 13.3606H38.6324L38.9495 16.9212V13.3636H40.961V16.9755L41.2781 13.3636H43.2896L42.9634 17.1205L43.6218 13.3636H45.6665L44.9477 17.4557L46.0531 13.3394L47.8502 11.5335H48.6203L46.8897 17.9872L49.2365 11.5335H51.3778L48.7653 18.7241L51.9939 11.7902L53.5101 13.3062L50.6077 19.5214L53.948 13.7441L55.4219 15.2179L52.3654 20.524L55.8085 15.6014L57.2552 17.048L54.0024 21.6958L57.6055 17.3983L59.0341 18.8268L55.5578 22.9702L59.3663 19.162L60.7889 20.5844L56.9713 24.4108L61.1241 20.9166L62.5527 22.3451L58.264 25.9419L62.903 22.6984L64.3497 24.145L61.3446 26.25H61.7463L64.7333 24.5286L66.2072 26.0023L65.7783 26.25H71.2721V26.2469ZM51.9939 11.7871L53.5252 8.49835L53.1477 8.12085L53.5252 8.49835L51.9939 11.7871Z" fill="white"/>
<path d="M16.8647 42.3226H23.9865L22.0595 49.5314H27.8463C29.5407 43.1894 31.2531 36.8021 32.9566 30.457H27.1637L25.2368 37.6658H18.1151L20.042 30.457H14.2553L9.14502 49.5314H14.9318L16.8647 42.3226ZM36.2577 49.5314L38.1997 42.2713H47.7104L48.9276 37.7171H39.4259L40.1024 35.1743H50.9239L52.1834 30.457H35.5751L30.4739 49.5314H36.2577ZM56.6231 44.2917L58.9276 35.6967L59.586 35.1743H69.4923L70.7518 30.457H56.6352L53.9804 32.5529L49.9907 47.4325L51.531 49.5284H65.6476L66.907 44.8111H57.0097L56.6231 44.2917Z" fill="white"/>
<path d="M33.4909 56.8095L33.9953 54.9099L34.1493 54.7891H36.342L36.6259 53.7441H33.4939L32.9019 54.2062L32.02 57.501L32.3613 57.9722H35.4873L35.7712 56.9272H33.5785L33.4909 56.8095ZM39.6884 54.9068L39.175 56.8064L39.03 56.9272H37.7041L37.6195 56.8064L38.133 54.9068L38.2779 54.786H39.6038L39.6884 54.9068ZM37.6105 53.7441L37.0185 54.2062L36.1366 57.501L36.4779 57.9722H39.6975L40.2894 57.501L41.1713 54.2062L40.83 53.7441H37.6105ZM43.1919 53.7441H41.9083L40.7696 57.9722H42.0532L43.1919 53.7441ZM44.551 55.7041L45.6715 57.9722H46.7406L47.8702 53.7441H46.5957L46.049 55.7736L45.0825 53.7441H43.7989L42.6694 57.9722H43.9439L44.551 55.7041Z" fill="white"/>
<path d="M31.9004 24.6554H33.4769L33.0481 26.2469H34.3317C34.7092 24.8426 35.0837 23.4292 35.4612 22.0189H34.1776L33.7578 23.6195H32.1752L32.6041 22.0189H31.3205L30.1909 26.2469H31.4745L31.9004 24.6554ZM37.0106 24.758L37.8653 23.3628L37.968 24.758H37.0106ZM36.0774 26.2469L36.4277 25.6912H38.0556L38.107 26.2469H39.4419L39.004 22.0189H37.4455L34.7394 26.2469H36.0774ZM42.586 26.2469H43.9904L43.4165 24.903H43.7669L44.4947 24.3624L44.9901 22.487L44.6548 22.0159H40.9822L39.8526 26.2439H41.1362L41.4957 24.9H42.0272L42.586 26.2469ZM41.7554 23.9517L41.988 23.0608H43.4346L43.5132 23.1816L43.341 23.84L43.196 23.9517H41.7554ZM46.7116 23.0638H48.1492L48.2338 23.1846L47.7204 25.0842L47.5663 25.205H46.1378L46.7116 23.0638ZM44.5703 26.2469H48.2429L48.8348 25.7848L49.7167 22.49L49.3754 22.0189H45.7119L44.5703 26.2469Z" fill="white"/>
<path fill-rule="evenodd" clip-rule="evenodd" d="M12.449 18.8841L12.9806 19.0653L13.1437 18.8931L12.6635 18.0626L12.4671 18.2589L12.6997 18.6606L12.2285 18.4975L12.0322 18.6938L12.5124 19.5243L12.7088 19.328L12.449 18.8841ZM35.436 5.6232L35.6837 6.11848H35.9162L36.1639 5.1853H35.88L35.7592 5.6383L35.5448 5.1853H35.2609L35.0132 6.11848H35.2971L35.436 5.6232ZM36.472 6.1215L36.5656 5.77118H37.0277L37.0881 5.5477H36.626L36.6592 5.41784H37.1908L37.2512 5.1853H36.4387L36.1911 6.11848H36.472V6.1215ZM37.4988 5.18832L37.4384 5.42086H37.7374L37.5502 6.1215H37.8341L38.0213 5.42086H38.3204L38.3808 5.18832H37.4988ZM39.4076 5.18832L39.3472 5.42086H39.6462L39.459 6.1215H39.7429L39.9301 5.42086H40.2291L40.2986 5.18832H39.4076ZM41.111 5.44502L40.9993 5.8648L40.9661 5.89198H40.6761L40.649 5.8648L40.7698 5.44502L40.7969 5.41784H41.096L41.111 5.44502ZM40.649 5.18832L40.5191 5.291L40.3228 6.01882L40.4013 6.1215H41.111L41.2409 6.01882L41.4372 5.291L41.3587 5.18832H40.649ZM41.8631 5.77722H42.153L42.1712 5.8044L42.0866 6.1215H42.3705L42.5004 5.65038L42.4218 5.5477H42.3191L42.6876 5.19738H42.3705L42.002 5.5477H41.9235L42.0171 5.19738H41.7332L41.4856 6.1215H41.7695L41.8631 5.77722ZM43.0198 5.77118H43.491L43.5514 5.5477H43.0802L43.1135 5.41784H43.645L43.7145 5.1853H42.893L42.6453 6.11848H43.4578L43.5272 5.88594H42.9866L43.0198 5.77118ZM44.1494 5.6232L44.3971 6.11848H44.6296L44.8773 5.1853H44.5934L44.4726 5.6383L44.2581 5.1853H43.9742L43.7266 6.11848H44.0105L44.1494 5.6232ZM44.4665 74.3676L44.2189 73.8723H43.9803L43.7326 74.8055H44.0165L44.1373 74.3525L44.3518 74.8055H44.6357L44.8833 73.8723H44.5994L44.4665 74.3676ZM43.4306 73.8693L43.3279 74.2196H42.8658L42.8054 74.4431H43.2766L43.2433 74.573H42.7118L42.6514 74.8055H43.4548L43.7115 73.8723H43.4306V73.8693ZM42.4037 74.8025L42.4641 74.57H42.1651L42.3524 73.8693H42.0685L41.8812 74.57H41.5822L41.5127 74.8025H42.4037ZM40.4949 74.8025L40.5553 74.57H40.2473L40.4345 73.8693H40.1506L39.9634 74.57H39.6644L39.604 74.8025H40.4949ZM38.7915 74.5458L38.9033 74.126L38.9365 74.0988H39.2264L39.2445 74.126L39.1328 74.5458L39.0996 74.573H38.8096L38.7915 74.5458ZM39.2445 74.8025L39.3805 74.6998L39.5677 73.972L39.4982 73.8693H38.7885L38.6586 73.972L38.4623 74.6998L38.5408 74.8025H39.2445ZM38.0364 74.2136H37.7465L37.7193 74.1864L37.8039 73.8693H37.52L37.3992 74.3404L37.4686 74.4431H37.5804L37.2119 74.8025H37.529L37.8975 74.4431H37.976L37.8824 74.8025H38.1663L38.414 73.8693H38.1301L38.0364 74.2136ZM36.8737 74.2196H36.4116L36.3512 74.4431H36.8133L36.7861 74.573H36.2455L36.185 74.8055H36.9975L37.2542 73.8723H36.4327L36.3723 74.1049H36.9039L36.8737 74.2196ZM35.7501 74.3676L35.5025 73.8723H35.2639L35.0162 74.8055H35.3001L35.4209 74.3525L35.6354 74.8055H35.9193L36.1669 73.8723H35.883L35.7501 74.3676ZM61.0597 12.4998L60.8876 13.0313L61.0506 13.1944L61.8903 12.7142L61.6849 12.5088L61.2832 12.7414L61.4554 12.2793L61.247 12.08L60.4164 12.5602L60.6127 12.7565L61.0597 12.4998ZM61.4433 13.587L61.7604 13.3997L62.0866 13.7349L62.292 13.6141L61.9567 13.288L62.0685 13.2276L62.446 13.596L62.6514 13.4752L62.0775 12.9014L61.247 13.3907L61.4433 13.587ZM62.8296 13.6534L62.6151 13.7742L62.8296 13.9796L62.2044 14.348L62.4007 14.5443L63.0349 14.1849L63.2494 14.3993L63.4548 14.2785L62.8296 13.6534ZM64.1766 15.0064L63.9712 15.1272L64.1856 15.3325L63.5605 15.701L63.7568 15.8973L64.391 15.5379L64.6055 15.7523L64.8108 15.6315L64.1766 15.0064ZM65.2035 16.3865L64.8259 16.6009H64.7837L64.5783 16.3956V16.3623L64.9558 16.1479H64.9981L65.2035 16.3533V16.3865ZM65.0555 15.8791L64.8924 15.861L64.243 16.2385L64.2249 16.3593L64.7202 16.8637L64.8833 16.8818L65.5327 16.5043L65.5599 16.3835L65.0555 15.8791ZM65.5025 17.1475L65.7078 17.362L65.6988 17.3952L65.4149 17.5583L65.6112 17.7546L66.0401 17.516L66.0582 17.3861L65.9797 17.3076L66.4931 17.3167L66.2696 17.0932L65.7562 17.0841L65.7048 17.0328L66.0219 16.8455L65.8256 16.6492L64.986 17.1294L65.1823 17.3257L65.5025 17.1475ZM66.324 17.969L66.6592 18.2952L66.8555 18.1834L66.5294 17.8482L66.6411 17.7878L67.0186 18.1653L67.224 18.0445L66.6411 17.4616L65.8105 17.9509L66.3844 18.5247L66.5898 18.4039L66.2122 18.0264L66.324 17.969ZM67.224 18.6636L67.0518 19.1861L67.2149 19.3582L68.0455 18.878L67.8492 18.6727L67.4475 18.9052L67.6197 18.4431L67.4143 18.2378L66.5837 18.727L66.78 18.9233L67.224 18.6636ZM18.8338 67.4911L19.015 66.9686L18.8519 66.7965L18.0123 67.2766L18.2086 67.482L18.6103 67.2495L18.4472 67.7115L18.6435 67.9169L19.4831 67.4276L19.2778 67.2313L18.8338 67.4911ZM18.4563 66.4039L18.1391 66.5911L17.8039 66.2559L17.6076 66.3767L17.9338 66.7028L17.822 66.7723L17.4535 66.3948L17.2482 66.5156L17.822 67.0894L18.6526 66.6092L18.4563 66.4039ZM17.07 66.3374L17.2754 66.2257L17.0609 66.0113L17.6952 65.6428L17.4898 65.4465L16.8646 65.8059L16.6502 65.5915L16.4448 65.7123L17.07 66.3374ZM15.7169 64.9935L15.9223 64.8727L15.7078 64.6583L16.3421 64.2899L16.1367 64.0936L15.5115 64.4529L15.2971 64.2385L15.0917 64.3593L15.7169 64.9935ZM14.6991 63.6043L15.0766 63.3899H15.1189L15.3243 63.5953L15.3152 63.6285L14.9377 63.8429H14.9045L14.69 63.6375L14.6991 63.6043ZM14.8441 64.1117L15.0072 64.1298L15.6565 63.7523L15.6746 63.6315L15.1702 63.1272L15.0072 63.109L14.3578 63.4865L14.3397 63.6073L14.8441 64.1117ZM14.4001 62.8433L14.1947 62.6289V62.6017L14.4847 62.4295L14.2793 62.2332L13.8595 62.4718L13.8413 62.6017L13.9199 62.6802L13.4064 62.6711L13.6299 62.8946L14.1434 62.9037L14.1947 62.955L13.8776 63.1423L14.0739 63.3386L14.9135 62.8584L14.7082 62.6621L14.4001 62.8433ZM13.5695 62.0218L13.2433 61.6957L13.038 61.8074L13.3732 62.1426L13.2615 62.203L12.8839 61.8255L12.6786 61.9463L13.2524 62.5292L14.092 62.0399L13.5091 61.4661L13.3037 61.5869L13.6813 61.9644L13.5695 62.0218ZM12.6695 61.3272L12.8507 60.8048L12.6876 60.6326L11.848 61.1219L12.0534 61.3182L12.446 61.0856L12.2829 61.5477L12.4792 61.753L13.3188 61.2638L13.1225 61.0675L12.6695 61.3272ZM74.3216 35.485L73.8262 35.7236V35.9622L74.7595 36.2098V35.926L74.3155 35.8052L74.7595 35.5907V35.3069L73.8262 35.0592V35.3431L74.3216 35.485ZM73.8232 36.5209L74.1826 36.6145V37.0766L74.4061 37.137V36.6749L74.5269 36.7081V37.2306L74.7595 37.3001V36.4877L73.8262 36.24V36.5209H73.8232ZM74.7565 37.5477L74.5239 37.4782V37.7863L73.8232 37.599V37.8829L74.5239 38.0702V38.3691L74.7565 38.4295V37.5477ZM74.7565 39.4563L74.5239 39.3959V39.6949L73.8232 39.5077V39.7916L74.5239 39.9788V40.2778L74.7565 40.3382V39.4563ZM74.4997 41.1506L74.0799 41.0388L74.0528 41.0116V40.7127L74.0799 40.6945L74.4997 40.8063L74.5269 40.8395V41.1294L74.4997 41.1506ZM74.7565 40.6976L74.6538 40.5677L73.9259 40.3714L73.8232 40.4499V41.1596L73.9259 41.2895L74.6538 41.4858L74.7565 41.4073V40.6976ZM74.1736 41.9056V42.2045L74.1464 42.2227L73.8202 42.1381V42.422L74.2914 42.5518L74.394 42.4733V42.3616L74.7534 42.73V42.422L74.394 42.0535V41.969L74.7534 42.0717V41.7878L73.8202 41.5401V41.824L74.1736 41.9056ZM74.1826 43.0683V43.5394L74.4061 43.5998V43.1287L74.5269 43.1619V43.6934L74.7595 43.7538V42.9414L73.8262 42.6938V43.5062L74.0588 43.5666V43.035L74.1826 43.0683ZM74.3216 44.1978L73.8262 44.4454V44.6779L74.7595 44.9256V44.6417L74.3155 44.5209L74.7595 44.3065V44.0226L73.8262 43.7749V44.0588L74.3216 44.1978ZM67.4445 61.1068L66.922 60.9256L66.7498 61.0977L67.2391 61.9282L67.4354 61.7319L67.2029 61.3302L67.674 61.4933L67.8703 61.297L67.3901 60.4665L67.1847 60.6628L67.4445 61.1068ZM5.57194 44.5149L6.06726 44.2672V44.0286L5.14307 43.781V44.0649L5.58704 44.1857L5.14609 44.3941V44.6779L6.07028 44.9256V44.6417L5.57194 44.5149ZM6.07028 43.4699L5.71993 43.3763V42.9142L5.49643 42.8538V43.3159L5.37562 43.2827V42.7602L5.14307 42.6908V43.5032L6.06726 43.7508V43.4699H6.07028ZM5.14609 42.4522L5.37864 42.5126V42.2136L6.0733 42.3948V42.1109L5.37864 41.9297V41.6217L5.14609 41.5613V42.4522ZM5.14609 40.5345L5.37864 40.5949V40.2959L6.0733 40.4831V40.1993L5.37864 40.012V39.713L5.14609 39.6526V40.5345ZM5.40281 38.8403L5.82262 38.952L5.8498 38.9852V39.2751L5.82262 39.2933L5.40281 39.1815L5.37562 39.1483V38.8584L5.40281 38.8403ZM5.14609 39.2933L5.24877 39.4231L5.97665 39.6194L6.07028 39.5409V38.8312L5.97665 38.7013L5.24877 38.5141L5.14609 38.5836V39.2933ZM5.72597 38.0853V37.7863L5.75315 37.7682L6.07028 37.8527V37.5688L5.59912 37.439L5.49643 37.5175V37.6292L5.14609 37.2608V37.5779L5.49643 37.9373V38.0218L5.14609 37.9282V38.2121L6.07028 38.4597V38.1759L5.72597 38.0853ZM5.71993 36.9226V36.4514L5.49643 36.391V36.8622L5.37562 36.8289V36.2974L5.14307 36.237V37.0494L6.06726 37.297V36.4847L5.84376 36.4243V36.9558L5.71993 36.9226ZM5.57194 35.7991L6.06726 35.5515V35.3129L5.14307 35.0653V35.3491L5.58704 35.4699L5.14307 35.6844V35.9682L6.06726 36.2159V35.932L5.57194 35.7991ZM61.2892 67.2706L60.7577 67.0894L60.5946 67.2615L61.0748 68.092L61.2711 67.8957L61.0386 67.4941L61.5097 67.6572L61.706 67.4609L61.2258 66.6304L61.0204 66.8267L61.2892 67.2706ZM61.9839 66.3706L61.6486 66.7059L61.7604 66.9022L62.0956 66.5669L62.1651 66.6787L61.7876 67.0562L61.9084 67.2615L62.4822 66.6877L62.002 65.8572L61.4191 66.431L61.5399 66.6364L61.9174 66.2589L61.9839 66.3706ZM62.7963 65.5401L62.591 65.7546L62.5577 65.7455L62.3946 65.4616L62.1893 65.6579L62.4369 66.0777L62.5577 66.1049L62.6363 66.0264L62.6272 66.5307L62.8507 66.3072L62.8598 65.8029L62.9202 65.7425L63.1014 66.0686L63.3068 65.8633L62.8175 65.0328L62.6212 65.2291L62.7963 65.5401ZM63.5574 65.2502L63.343 64.8727V64.8304L63.5574 64.6251H63.5846L63.8081 65.0026L63.7991 65.0449L63.5937 65.2502H63.5574ZM64.0648 65.1022L64.092 64.9392L63.7145 64.2899L63.5846 64.2627L63.0802 64.767L63.0621 64.9301L63.4396 65.5794L63.5695 65.5975L64.0648 65.1022ZM64.9467 64.2234L64.8259 64.0181L64.6115 64.2325L64.2521 63.6073L64.0467 63.8036L64.4152 64.4288L64.2007 64.6432L64.3216 64.8486L64.9467 64.2234ZM66.2968 62.8704L66.176 62.6651L65.9615 62.8795L65.6021 62.2544L65.3968 62.4507L65.7652 63.0758L65.5508 63.2902L65.6716 63.4956L66.2968 62.8704ZM66.3663 61.4903L66.5475 61.8074L66.2213 62.1336L66.333 62.3299L66.6592 62.0037L66.7287 62.1154L66.3512 62.4929L66.472 62.6983L67.0458 62.1245L66.5656 61.2849L66.3663 61.4903ZM18.6133 12.7202L19.1449 12.9014L19.308 12.7293L18.8278 11.8988L18.6314 12.0951L18.864 12.4967L18.3928 12.3337L18.1965 12.53L18.6767 13.3695L18.8731 13.1642L18.6133 12.7202ZM17.9187 13.6202L18.2539 13.285L18.1331 13.0887L17.7979 13.4239L17.7374 13.3121L18.115 12.9346L17.9942 12.7293L17.4203 13.3031L17.9005 14.1426L18.4744 13.5598L18.3536 13.3544L17.976 13.7319L17.9187 13.6202ZM17.1062 14.4507L17.3116 14.2363L17.3448 14.2453L17.5079 14.5292L17.7042 14.3329L17.4656 13.9131L17.3358 13.8859L17.2572 13.9645L17.2663 13.4601L17.0428 13.6836L17.0337 14.1879L16.9824 14.2483L16.7951 13.9312L16.5988 14.1275L17.079 14.958L17.2844 14.7617L17.1062 14.4507ZM16.3361 14.7497L16.5596 15.1272L16.5505 15.1604L16.3451 15.3748L16.3089 15.3657L16.0944 14.9882L16.1035 14.946L16.3089 14.7406L16.3361 14.7497ZM15.8287 14.8856L15.8105 15.0577L16.1881 15.707L16.3179 15.7251L16.8133 15.2208L16.8404 15.0577L16.4629 14.4084L16.333 14.3903L15.8287 14.8856ZM14.9558 15.7674L15.0766 15.9728L15.2911 15.7583L15.6505 16.3835L15.8468 16.1872L15.4874 15.562L15.7018 15.3476L15.581 15.1423L14.9558 15.7674ZM13.6027 17.1204L13.7236 17.3257L13.938 17.1113L14.2974 17.7365L14.4937 17.5402L14.1343 16.915L14.3487 16.7006L14.2279 16.4952L13.6027 17.1204ZM13.5363 18.5005L13.3551 18.1834L13.6813 17.8573L13.5695 17.6609L13.2343 17.9871L13.1739 17.8754L13.5423 17.4979L13.4306 17.2925L12.8567 17.8663L13.337 18.7059L13.5363 18.5005Z" fill="white"/>
<path d="M74.3647 54.4298L68.895 59.899L68.6806 59.6846L74.1955 54.1792V46.3815H74.4945V54.3L74.3647 54.4298ZM59.8615 68.9379L54.262 74.537H46.3429V74.229H54.1351L59.6501 68.7235L59.8615 68.9379ZM33.5613 74.537H25.6422L20.0427 68.9379L20.2571 68.7235L25.7721 74.229H33.5643V74.537H33.5613ZM74.1925 33.6099C74.1925 31.0066 74.1925 28.4124 74.1925 25.8122C72.4981 24.1271 70.6558 22.2758 68.6776 20.3067L68.892 20.0923C70.6286 21.8228 72.471 23.671 74.4492 25.6491L74.4915 25.6914V25.7518C74.4915 28.3702 74.4915 30.9915 74.4915 33.6099H74.1925ZM11.0092 59.899C9.15174 58.0508 7.30336 56.1995 5.45195 54.3422L5.40967 54.3V46.3815H5.70867V54.1792C7.54799 56.0123 9.38128 57.8515 11.2146 59.6937L11.0092 59.899ZM5.40967 33.6099C5.40967 30.9915 5.40967 28.3702 5.40967 25.7518V25.6914L5.45195 25.6491C7.42114 23.671 9.26953 21.8228 11.0092 20.0923L11.2146 20.3067C9.24537 22.2758 7.39698 24.124 5.70867 25.8122C5.70867 28.4155 5.70867 31.0097 5.70867 33.6099H5.40967ZM20.0427 11.0534C21.7733 9.32298 23.6307 7.47473 25.5999 5.50569L25.6422 5.45435H33.5613V5.76239H25.7691C24.0747 7.44755 22.2414 9.2807 20.2541 11.2679L20.0427 11.0534ZM46.3429 5.45435H54.2529L54.3043 5.50569C56.2734 7.47473 58.1218 9.32298 59.8615 11.0534L59.647 11.2679C57.6597 9.2807 55.8204 7.45057 54.1321 5.76239H46.3399V5.45435H46.3429Z" fill="white"/>
<path d="M37.4724 8.13293H38.2335L38.0281 8.90303H38.6533C38.8345 8.22655 39.0218 7.54101 39.2 6.85849H38.5748L38.3694 7.63765H37.6083L37.8137 6.85849H37.1975L36.6509 8.90303H37.267L37.4724 8.13293ZM39.5533 8.90303L39.7587 8.12387H40.7856L40.9155 7.63463H39.8976L39.9671 7.35981H41.1329L41.2688 6.85547H39.4869L38.9402 8.90001H39.5533V8.90303ZM41.737 8.34735L41.9846 7.42323L42.0541 7.36283H43.1142L43.2501 6.85849H41.7339L41.45 7.09103L41.0212 8.68257L41.1843 8.90605H42.7004L42.8363 8.40171H41.7762L41.737 8.34735Z" fill="white"/>
<path d="M42.4225 71.8581H41.6614L41.8668 71.088H41.2507C41.0695 71.7645 40.8822 72.45 40.704 73.1325H41.3202L41.5346 72.3624H42.2957L42.0903 73.1325H42.7064L43.2531 71.088H42.637L42.4225 71.8581ZM40.3507 71.088L40.1362 71.8671H39.1184L38.9885 72.3564H40.0064L39.9278 72.6312H38.7711L38.6352 73.1355H40.4171L40.9638 71.091H40.3507V71.088ZM38.167 71.6527L37.9194 72.5678L37.8409 72.6282H36.7807L36.6509 73.1325H38.158L38.4479 72.909L38.8768 71.3084L38.7046 71.085H37.1975L37.0616 71.5893H38.1217L38.167 71.6527Z" fill="white"/>
</g>
<defs>
<filter id="filter0_f_42:2313" x="-3" y="-3" width="86" height="86" filterUnits="userSpaceOnUse" color-interpolation-filters="sRGB">
<feFlood flood-opacity="0" result="BackgroundImageFix"/>
<feBlend mode="normal" in="SourceGraphic" in2="BackgroundImageFix" result="shape"/>
<feGaussianBlur stdDeviation="12.5" result="effect1_foregroundBlur_42:2313"/>
</filter>
<clipPath id="clip0_42:2313">
<rect width="80" height="80" fill="white"/>
</clipPath>
</defs>
</svg>
