<svg width="54" height="54" viewBox="0 0 54 54" fill="none" xmlns="http://www.w3.org/2000/svg">
<g clip-path="url(#clip0_103:1459)">
<path d="M37.6785 52.781L52.785 37.6757V16.3243L37.6785 1.22514H16.3256L1.21912 16.3243V37.6757L16.3195 52.781H37.6785ZM53.8247 38.3626L38.1861 54H15.8159C10.546 48.7305 5.26993 43.4589 0 38.1894C0 30.7284 0 23.2695 0 15.8147C5.26993 10.5391 10.546 5.26954 15.8159 0H38.1861C43.4561 5.26954 48.726 10.5391 53.998 15.8147C54.0041 23.2695 53.998 30.7284 53.998 38.1894L53.8247 38.3626Z" fill="white"/>
<path d="M37.2497 51.7454L51.7487 37.2475V16.7524L37.2497 2.25454H16.7531L2.25411 16.7524V37.2475L16.7469 51.7454H37.2497ZM52.0952 37.4799L37.4169 52.151H16.5798C11.6686 47.2443 6.75547 42.3336 1.84842 37.4208C1.84842 30.4756 1.84231 23.5304 1.84842 16.5771C6.75547 11.6663 11.6666 6.75556 16.5798 1.84888H37.4189C42.3362 6.75556 47.2494 11.6663 52.1544 16.5791C52.1605 23.5304 52.1544 30.4756 52.1544 37.4228L52.0952 37.4799Z" fill="white"/>
<path fill-rule="evenodd" clip-rule="evenodd" d="M35.8745 48.5103L36.1294 48.2555L37.1528 47.2322L37.6033 46.7817L38.6023 45.7869L39.0059 45.3772L39.9824 44.4007L40.3637 44.0195L41.328 43.0553L41.6969 42.6904L42.6572 41.7262L43.0262 41.3613L43.9904 40.3971L44.3656 40.0159L45.3421 39.0394L45.7518 38.6297L46.7467 37.6349L47.1973 37.1844L48.1045 36.2773H44.3941L44.6836 36.4444L43.6887 37.4392L41.6786 36.2773H41.4013L43.4298 37.6981L42.4533 38.6745L39.3321 36.4913L42.2148 38.9131L41.2505 39.8773L38.4473 37.5187L41.0242 40.1015L40.064 41.0616L37.4932 38.4911L39.8397 41.2879L38.8754 42.2521L36.4372 39.3513L38.639 42.4886L37.6624 43.465L35.3384 40.1423L37.4076 43.7239L36.4087 44.7187L34.16 40.8231L36.1131 45.0123L35.0897 46.0356L32.9063 41.3491L34.6738 46.2089H33.2284L31.6443 41.8526L32.8125 46.2089H32.2926L31.0796 44.996L30.3335 42.2114L30.8187 44.9735H29.4385L28.9941 42.4376L29.2142 44.9735H27.8565L27.6424 42.5355V44.9735H26.2847V42.5701L26.0706 44.9735H24.7068L24.9331 42.4315L24.4825 44.9735H23.1023L23.5937 42.2052L22.8414 44.996L21.6345 46.2089H21.1085L22.2767 41.8526L20.6926 46.2089H19.2472L21.0046 41.3776L18.8314 46.0356L17.8141 45.0123L19.7793 40.8007L17.5144 44.7187L16.5195 43.7239L18.5989 40.1239L16.2586 43.463L15.282 42.4866L17.4777 39.3493L15.0456 42.2501L14.0813 41.2859L16.4441 38.4727L13.855 41.0616L12.8948 40.1015L15.4778 37.5187L12.6685 39.8773L11.7042 38.9131L14.5869 36.4913L11.4657 38.6745L10.4892 37.6981L12.5176 36.2773H12.2465L10.2364 37.4392L9.23742 36.4444L9.52691 36.2773H5.82471L6.72579 37.1844L7.17634 37.6349L8.17528 38.6297L8.57894 39.0394L9.55545 40.0159L9.93668 40.391L10.901 41.3552L11.27 41.7242L12.2302 42.6843L12.5992 43.0533L13.5635 44.0175L13.9447 44.3987L14.9151 45.3751L15.3249 45.7849L16.3197 46.7796L16.7764 47.2302L17.7937 48.2535L18.0485 48.5083H18.4073H19.8527H20.4949H21.8995H22.4765H22.5866L23.8281 47.2668H24.0768H24.5111H25.8688H26.2847H27.6424H28.0522H29.4161H29.8442H30.099L31.3406 48.5083H31.4445H32.0215H33.4261H34.0683H35.5137H35.8745V48.5103ZM48.1085 17.7167L47.2013 16.8095L46.7508 16.359L45.7559 15.3642L45.3461 14.9545L44.3696 13.9781L43.9884 13.5969L43.0241 12.6326L42.6592 12.2678L41.6949 11.3035L41.33 10.9386L40.3657 9.97443L39.9845 9.59323L39.008 8.61679L38.6043 8.20705L37.6054 7.21226L37.1548 6.76175L35.8786 5.48564H35.5198H34.0744H33.4322H32.0276H31.4507H31.3467L30.1051 6.73321H29.8503H29.4222H28.0583H27.6486H26.2908H25.8749H24.5172H24.0829H23.8342L22.5927 5.48564H22.4826H21.9056H20.501H19.8568H18.4114H18.0526L16.7805 6.76175L16.3238 7.21226L15.3289 8.20705L14.9192 8.61679L13.9488 9.59323L13.5675 9.97443L12.6032 10.9386L12.2343 11.3076L11.274 12.2678L10.905 12.6367L9.94076 13.5969L9.55953 13.9781L8.58301 14.9545L8.17936 15.3642L7.18042 16.359L6.72783 16.8095L5.82675 17.7167H9.53099L9.2415 17.5495L10.2404 16.5547L12.2506 17.7167H12.5217L10.4932 16.2958L11.4698 15.3194L14.6011 17.5087L11.7062 15.0809L12.6705 14.1167L15.4798 16.4752L12.8989 13.8904L13.8591 12.9303L16.4482 15.5192L14.0894 12.706L15.0537 11.7418L17.4818 14.6365L15.2861 11.5054L16.2626 10.5289L18.603 13.8741L16.5236 10.268L17.5185 9.27319L19.7834 13.1973L17.8181 8.97964L18.8415 7.95631L21.0086 12.6021L19.2513 7.78304H20.6967L22.2869 12.1393L21.1146 7.78304H21.6406L22.8475 8.99595L23.5998 11.7867L23.1085 9.01837H24.4886L24.9392 11.5665L24.7129 9.01837H26.0767L26.2908 11.4218V9.02041H27.6486V11.4585L27.8626 9.02041H29.2204L29.0002 11.5563L29.4446 9.02041H30.8248L30.3396 11.7826L31.0857 9.0041L32.2987 7.78508H32.8186L31.6504 12.1414L33.2345 7.78508H34.6799L32.9165 12.6388L35.0958 7.95835L36.1192 8.98168L34.16 13.1769L36.4148 9.27726L37.4096 10.2721L35.3465 13.8537L37.6706 10.5309L38.6471 11.5074L36.4515 14.6446L38.8836 11.7439L39.8479 12.7081L37.5014 15.5049L40.0721 12.9343L41.0324 13.8945L38.4555 16.4773L41.2586 14.1187L42.2229 15.0829L39.328 17.5108L42.4594 15.3214L43.4359 16.2979L41.4075 17.7187H41.6786L43.6948 16.5568L44.6897 17.5516L44.4002 17.7187H48.1085V17.7167ZM35.0958 7.95631L36.1294 5.73638L35.8745 5.48157L36.1294 5.73638L35.0958 7.95631Z" fill="white"/>
<path d="M11.3837 28.5676H16.1908L14.8902 33.4335H18.7962C19.9399 29.1527 21.0958 24.8412 22.2456 20.5583H18.3355L17.0348 25.4243H12.2277L13.5283 20.5583H9.62226L6.17285 33.4335H10.0789L11.3837 28.5676ZM24.4739 33.4335L25.7848 28.533H32.2045L33.0261 25.4589H26.6124L27.0691 23.7425H34.3736L35.2237 20.5583H24.0132L20.5699 33.4335H24.4739ZM38.2206 29.8967L39.7761 24.0952L40.2205 23.7425H46.9073L47.7574 20.5583H38.2287L36.4367 21.9731L33.7437 32.0168L34.7834 33.4315H44.3121L45.1622 30.2474H38.4815L38.2206 29.8967Z" fill="white"/>
<path d="M22.6061 38.3463L22.9466 37.0641L23.0505 36.9825H24.5306L24.7222 36.2772H22.6081L22.2086 36.5891L21.6133 38.8131L21.8437 39.1311H23.9537L24.1453 38.4258H22.6652L22.6061 38.3463ZM26.7894 37.062L26.4429 38.3443L26.345 38.4258H25.45L25.393 38.3443L25.7395 37.062L25.8374 36.9805H26.7324L26.7894 37.062ZM25.3868 36.2772L24.9873 36.5891L24.392 38.8131L24.6223 39.1311H26.7956L27.1951 38.8131L27.7904 36.5891L27.56 36.2772H25.3868ZM29.1543 36.2772H28.2878L27.5193 39.1311H28.3857L29.1543 36.2772ZM30.0717 37.6002L30.828 39.1311H31.5497L32.3122 36.2772H31.4518L31.0828 37.6471L30.4305 36.2772H29.5641L28.8016 39.1311H29.6619L30.0717 37.6002Z" fill="white"/>
<path d="M21.5328 16.6424H22.597L22.3075 17.7167H23.1739C23.4287 16.7688 23.6815 15.8147 23.9364 14.8628H23.0699L22.7866 15.9432H21.7183L22.0078 14.8628H21.1414L20.3789 17.7167H21.2453L21.5328 16.6424ZM24.9822 16.7117L25.5591 15.7699L25.6285 16.7117H24.9822ZM24.3523 17.7167L24.5887 17.3416H25.6876L25.7222 17.7167H26.6233L26.3277 14.8628H25.2758L23.4491 17.7167H24.3523ZM28.7456 17.7167H29.6935L29.3062 16.8095H29.5427L30.034 16.4446L30.3683 15.1787L30.142 14.8607H27.663L26.9006 17.7146H27.767L28.0096 16.8075H28.3684L28.7456 17.7167ZM28.1849 16.1674L28.3419 15.566H29.3184L29.3714 15.6476L29.2552 16.092L29.1574 16.1674H28.1849ZM31.5304 15.5681H32.5008L32.5578 15.6496L32.2113 16.9318L32.1073 17.0134H31.143L31.5304 15.5681ZM30.085 17.7167H32.564L32.9635 17.4048L33.5588 15.1808L33.3285 14.8628H30.8556L30.085 17.7167Z" fill="white"/>
<path fill-rule="evenodd" clip-rule="evenodd" d="M8.4032 12.7467L8.762 12.869L8.87209 12.7528L8.54794 12.1922L8.41543 12.3247L8.5724 12.5958L8.25437 12.4857L8.12186 12.6182L8.44601 13.1788L8.57852 13.0463L8.4032 12.7467ZM23.9194 3.79558L24.0866 4.1299H24.2436L24.4107 3.5H24.2191L24.1376 3.80578L23.9928 3.5H23.8012L23.634 4.1299H23.8257L23.9194 3.79558ZM24.6187 4.13194L24.6819 3.89547H24.9938L25.0346 3.74462H24.7227L24.7451 3.65696H25.1039L25.1447 3.5H24.5963L24.4291 4.1299H24.6187V4.13194ZM25.3118 3.50204L25.2711 3.659H25.4729L25.3465 4.13194H25.5381L25.6645 3.659H25.8663L25.9071 3.50204H25.3118ZM26.6003 3.50204L26.5595 3.659H26.7613L26.6349 4.13194H26.8266L26.953 3.659H27.1548L27.2017 3.50204H26.6003ZM27.7501 3.67531L27.6746 3.95866L27.6522 3.97701H27.4565L27.4382 3.95866L27.5197 3.67531L27.538 3.65696H27.7399L27.7501 3.67531ZM27.4382 3.50204L27.3505 3.57135L27.218 4.06263L27.271 4.13194H27.7501L27.8377 4.06263L27.9702 3.57135L27.9172 3.50204H27.4382ZM28.2577 3.89955H28.4534L28.4656 3.91789L28.4086 4.13194H28.6002L28.6879 3.81393L28.6348 3.74462H28.5655L28.8142 3.50815H28.6002L28.3515 3.74462H28.2985L28.3617 3.50815H28.17L28.0029 4.13194H28.1945L28.2577 3.89955ZM29.0385 3.89547H29.3565L29.3973 3.74462H29.0793L29.1017 3.65696H29.4605L29.5074 3.5H28.9529L28.7857 4.1299H29.3341L29.381 3.97293H29.0161L29.0385 3.89547ZM29.801 3.79558L29.9681 4.1299H30.1251L30.2923 3.5H30.1006L30.0191 3.80578L29.8744 3.5H29.6827L29.5155 4.1299H29.7072L29.801 3.79558ZM30.015 50.1981L29.8479 49.8638H29.6868L29.5196 50.4936H29.7113L29.7928 50.1879L29.9376 50.4936H30.1292L30.2964 49.8638H30.1047L30.015 50.1981ZM29.3158 49.8617L29.2464 50.0982H28.9345L28.8938 50.249H29.2118L29.1894 50.3367H28.8306L28.7898 50.4936H29.3321L29.5054 49.8638H29.3158V49.8617ZM28.6226 50.4916L28.6634 50.3346H28.4616L28.588 49.8617H28.3963L28.2699 50.3346H28.0681L28.0212 50.4916H28.6226ZM27.3342 50.4916L27.375 50.3346H27.167L27.2934 49.8617H27.1018L26.9754 50.3346H26.7736L26.7328 50.4916H27.3342ZM26.1844 50.3183L26.2598 50.035L26.2822 50.0166H26.4779L26.4902 50.035L26.4147 50.3183L26.3923 50.3367H26.1966L26.1844 50.3183ZM26.4902 50.4916L26.5819 50.4223L26.7083 49.931L26.6614 49.8617H26.1823L26.0947 49.931L25.9622 50.4223L26.0152 50.4916H26.4902ZM25.6747 50.0941H25.479L25.4607 50.0758L25.5177 49.8617H25.3261L25.2446 50.1797L25.2914 50.249H25.3669L25.1182 50.4916H25.3322L25.5809 50.249H25.6339L25.5707 50.4916H25.7624L25.9295 49.8617H25.7379L25.6747 50.0941ZM24.8898 50.0982H24.5779L24.5371 50.249H24.8491L24.8307 50.3367H24.4658L24.425 50.4936H24.9734L25.1467 49.8638H24.5922L24.5514 50.0207H24.9102L24.8898 50.0982ZM24.1315 50.1981L23.9643 49.8638H23.8032L23.6361 50.4936H23.8277L23.9092 50.1879L24.054 50.4936H24.2456L24.4128 49.8638H24.2212L24.1315 50.1981ZM41.2154 8.43726L41.0992 8.79604L41.2093 8.90611L41.776 8.58199L41.6374 8.44337L41.3663 8.60034L41.4825 8.28845L41.3418 8.15391L40.7812 8.47803L40.9137 8.61053L41.2154 8.43726ZM41.4743 9.17112L41.6884 9.04473L41.9086 9.27101L42.0472 9.18947L41.8209 8.96931L41.8963 8.92854L42.1512 9.17724L42.2898 9.0957L41.9024 8.70838L41.3418 9.03862L41.4743 9.17112ZM42.4101 9.21597L42.2653 9.29751L42.4101 9.43613L41.9881 9.68482L42.1206 9.81733L42.5487 9.57474L42.6934 9.71948L42.8321 9.63794L42.4101 9.21597ZM43.3193 10.1292L43.1807 10.2108L43.3254 10.3494L42.9034 10.5981L43.0359 10.7306L43.4641 10.488L43.6088 10.6327L43.7474 10.5512L43.3193 10.1292ZM44.0125 11.0608L43.7576 11.2055H43.7291L43.5905 11.0669V11.0445L43.8453 10.8998H43.8738L44.0125 11.0384V11.0608ZM43.9126 10.7183L43.8025 10.7061L43.3642 10.9609L43.3519 11.0425L43.6863 11.3829L43.7964 11.3951L44.2347 11.1403L44.253 11.0588L43.9126 10.7183ZM44.2143 11.5745L44.3529 11.7193L44.3468 11.7417L44.1552 11.8518L44.2877 11.9843L44.5772 11.8232L44.5894 11.7356L44.5364 11.6826L44.883 11.6887L44.7321 11.5378L44.3855 11.5317L44.3509 11.4971L44.5649 11.3707L44.4324 11.2382L43.8657 11.5623L43.9982 11.6948L44.2143 11.5745ZM44.7688 12.129L44.9951 12.3491L45.1276 12.2737L44.9074 12.0475L44.9829 12.0067L45.2377 12.2615L45.3763 12.18L44.9829 11.7865L44.4222 12.1168L44.8096 12.5041L44.9482 12.4225L44.6934 12.1677L44.7688 12.129ZM45.3763 12.5978L45.2601 12.9505L45.3702 13.0667L45.9308 12.7426L45.7983 12.604L45.5272 12.7609L45.6434 12.449L45.5048 12.3104L44.9441 12.6407L45.0766 12.7732L45.3763 12.5978ZM12.7129 45.5564L12.8352 45.2037L12.7252 45.0875L12.1584 45.4117L12.2909 45.5503L12.5621 45.3933L12.452 45.7052L12.5845 45.8438L13.1512 45.5136L13.0126 45.3811L12.7129 45.5564ZM12.4581 44.8225L12.244 44.9489L12.0177 44.7226L11.8852 44.8042L12.1054 45.0243L12.03 45.0712L11.7813 44.8164L11.6426 44.898L12.03 45.2853L12.5906 44.9611L12.4581 44.8225ZM11.5223 44.7777L11.661 44.7023L11.5162 44.5575L11.9443 44.3088L11.8057 44.1763L11.3837 44.4189L11.239 44.2742L11.1003 44.3557L11.5223 44.7777ZM10.609 43.8705L10.7477 43.789L10.6029 43.6443L11.031 43.3956L10.8924 43.2631L10.4704 43.5057L10.3257 43.3609L10.187 43.4425L10.609 43.8705ZM9.922 42.9328L10.1768 42.7881H10.2054L10.344 42.9267L10.3379 42.9491L10.0831 43.0939H10.0606L9.91588 42.9553L9.922 42.9328ZM10.0199 43.2753L10.1299 43.2875L10.5683 43.0327L10.5805 42.9512L10.24 42.6107L10.1299 42.5985L9.69163 42.8533L9.6794 42.9349L10.0199 43.2753ZM9.72017 42.4191L9.58154 42.2744V42.2561L9.77725 42.1399L9.63862 42.0074L9.35525 42.1684L9.34302 42.2561L9.39602 42.3091L9.04945 42.3029L9.20031 42.4538L9.54688 42.4599L9.58154 42.4946L9.36748 42.6209L9.49999 42.7534L10.0667 42.4293L9.92811 42.2968L9.72017 42.4191ZM9.15954 41.8647L8.93936 41.6445L8.80073 41.7199L9.02703 41.9462L8.95159 41.987L8.69676 41.7322L8.55813 41.8137L8.94548 42.2071L9.51223 41.8769L9.11876 41.4896L8.98014 41.5711L9.23497 41.8259L9.15954 41.8647ZM8.55202 41.3958L8.67434 41.0431L8.56425 40.9269L7.9975 41.2572L8.13613 41.3897L8.40116 41.2327L8.29107 41.5446L8.42358 41.6832L8.99033 41.353L8.85782 41.2205L8.55202 41.3958ZM50.1672 23.9523L49.8328 24.1134V24.2744L50.4628 24.4416V24.2499L50.1631 24.1684L50.4628 24.0237V23.832L49.8328 23.6649V23.8565L50.1672 23.9523ZM49.8308 24.6515L50.0734 24.7147V25.0266L50.2242 25.0674V24.7555L50.3058 24.7779V25.1306L50.4628 25.1775V24.6291L49.8328 24.4619V24.6515H49.8308ZM50.4607 25.3446L50.3038 25.2977V25.5057L49.8308 25.3793V25.5709L50.3038 25.6973V25.8991L50.4607 25.9399V25.3446ZM50.4607 26.6329L50.3038 26.5922V26.794L49.8308 26.6676V26.8592L50.3038 26.9856V27.1874L50.4607 27.2282V26.6329ZM50.2874 27.7766L50.0041 27.7011L49.9857 27.6828V27.481L50.0041 27.4687L50.2874 27.5442L50.3058 27.5666V27.7623L50.2874 27.7766ZM50.4607 27.4708L50.3914 27.3831L49.9001 27.2506L49.8308 27.3036V27.7827L49.9001 27.8703L50.3914 28.0028L50.4607 27.9498V27.4708ZM50.0673 28.2862V28.488L50.0489 28.5002L49.8287 28.4431V28.6348L50.1468 28.7224L50.2161 28.6694V28.594L50.4587 28.8427V28.6348L50.2161 28.3861V28.329L50.4587 28.3983V28.2067L49.8287 28.0395V28.2311L50.0673 28.2862ZM50.0734 29.071V29.389L50.2242 29.4298V29.1118L50.3058 29.1342V29.493L50.4628 29.5337V28.9854L49.8328 28.8182V29.3666L49.9898 29.4074V29.0486L50.0734 29.071ZM50.1672 29.8334L49.8328 30.0006V30.1575L50.4628 30.3247V30.1331L50.1631 30.0515L50.4628 29.9068V29.7152L49.8328 29.548V29.7396L50.1672 29.8334ZM45.5251 41.247L45.1725 41.1247L45.0562 41.2409L45.3865 41.8015L45.519 41.669L45.362 41.3978L45.6801 41.5079L45.8126 41.3754L45.4884 40.8148L45.3498 40.9473L45.5251 41.247ZM3.76117 30.0474L4.09551 29.8803V29.7192L3.47168 29.5521V29.7437L3.77136 29.8252L3.47372 29.9659V30.1575L4.09755 30.3247V30.1331L3.76117 30.0474ZM4.09755 29.3421L3.86106 29.2789V28.967L3.7102 28.9263V29.2382L3.62866 29.2157V28.8631L3.47168 28.8162V29.3645L4.09551 29.5317V29.3421H4.09755ZM3.47372 28.6551L3.63069 28.6959V28.4941L4.09959 28.6164V28.4248L3.63069 28.3025V28.0946L3.47372 28.0538V28.6551ZM3.47372 27.3607L3.63069 27.4015V27.1997L4.09959 27.326V27.1344L3.63069 27.008V26.8062L3.47372 26.7655V27.3607ZM3.647 26.2171L3.93038 26.2925L3.94873 26.3149V26.5106L3.93038 26.5229L3.647 26.4474L3.62866 26.425V26.2293L3.647 26.2171ZM3.47372 26.5229L3.54303 26.6105L4.03435 26.743L4.09755 26.69V26.211L4.03435 26.1233L3.54303 25.9969L3.47372 26.0438V26.5229ZM3.86514 25.7075V25.5057L3.88349 25.4934L4.09755 25.5505V25.3589L3.77952 25.2712L3.7102 25.3242V25.3997L3.47372 25.151V25.365L3.7102 25.6076V25.6647L3.47372 25.6015V25.7931L4.09755 25.9602V25.7686L3.86514 25.7075ZM3.86106 24.9226V24.6046L3.7102 24.5639V24.8819L3.62866 24.8595V24.5007L3.47168 24.4599V25.0083L4.09551 25.1754V24.6271L3.94465 24.5863V24.9451L3.86106 24.9226ZM3.76117 24.1643L4.09551 23.9972V23.8361L3.47168 23.669V23.8606L3.77136 23.9421L3.47168 24.0869V24.2785L4.09551 24.4456V24.254L3.76117 24.1643ZM41.3703 45.4076L41.0115 45.2853L40.9015 45.4015L41.2256 45.9621L41.3581 45.8296L41.2011 45.5584L41.5192 45.6685L41.6517 45.536L41.3275 44.9754L41.1889 45.1079L41.3703 45.4076ZM41.8392 44.8001L41.6129 45.0264L41.6884 45.1589L41.9147 44.9326L41.9616 45.008L41.7067 45.2628L41.7883 45.4015L42.1756 45.0141L41.8515 44.4536L41.458 44.8409L41.5396 44.9795L41.7944 44.7247L41.8392 44.8001ZM42.3876 44.2395L42.249 44.3842L42.2266 44.3781L42.1165 44.1865L41.9779 44.319L42.145 44.6024L42.2266 44.6207L42.2796 44.5677L42.2735 44.9081L42.4243 44.7573L42.4305 44.4169L42.4712 44.3761L42.5935 44.5963L42.7322 44.4576L42.4019 43.897L42.2694 44.0296L42.3876 44.2395ZM42.9014 44.0438L42.7566 43.789V43.7605L42.9014 43.6218H42.9197L43.0706 43.8767L43.0645 43.9052L42.9258 44.0438H42.9014ZM43.2439 43.9439L43.2622 43.8339L43.0074 43.3956L42.9197 43.3772L42.5793 43.7177L42.567 43.8277L42.8219 44.266L42.9095 44.2782L43.2439 43.9439ZM43.8392 43.3507L43.7576 43.2121L43.6129 43.3568L43.3703 42.9349L43.2316 43.0674L43.4804 43.4893L43.3356 43.6341L43.4172 43.7727L43.8392 43.3507ZM44.7504 42.4375L44.6689 42.2989L44.5242 42.4436L44.2816 42.0216L44.1429 42.1541L44.3916 42.5761L44.2469 42.7208L44.3284 42.8594L44.7504 42.4375ZM44.7973 41.5059L44.9197 41.7199L44.6995 41.9401L44.7749 42.0726L44.9951 41.8524L45.042 41.9278L44.7871 42.1827L44.8687 42.3213L45.256 41.934L44.9319 41.3673L44.7973 41.5059ZM12.5641 8.58607L12.9229 8.70838L13.033 8.59219L12.7088 8.0316L12.5763 8.1641L12.7333 8.43522L12.4153 8.32514L12.2828 8.45764L12.6069 9.02435L12.7394 8.88573L12.5641 8.58607ZM12.0952 9.19354L12.3215 8.96727L12.24 8.83477L12.0137 9.06104L11.9729 8.98562L12.2277 8.7308L12.1462 8.59219L11.7588 8.9795L12.083 9.54621L12.4703 9.15277L12.3888 9.01416L12.1339 9.26897L12.0952 9.19354ZM11.5468 9.75413L11.6854 9.6094L11.7079 9.61551L11.818 9.80713L11.9505 9.67463L11.7894 9.39128L11.7017 9.37293L11.6487 9.42593L11.6549 9.0855L11.504 9.23635L11.4979 9.57678L11.4632 9.61755L11.3368 9.40351L11.2043 9.53601L11.5285 10.0966L11.6671 9.9641L11.5468 9.75413ZM11.0269 9.95594L11.1778 10.2108L11.1717 10.2332L11.0331 10.3779L11.0086 10.3718L10.8639 10.117L10.87 10.0884L11.0086 9.94983L11.0269 9.95594ZM10.6845 10.0477L10.6722 10.1639L10.9271 10.6021L11.0147 10.6144L11.3491 10.274L11.3674 10.1639L11.1126 9.72559L11.0249 9.71336L10.6845 10.0477ZM10.0953 10.6429L10.1768 10.7815L10.3216 10.6368L10.5642 11.0588L10.6967 10.9263L10.4541 10.5043L10.5988 10.3596L10.5173 10.221L10.0953 10.6429ZM9.18196 11.5562L9.26351 11.6948L9.40826 11.5501L9.65086 11.972L9.78337 11.8395L9.54077 11.4176L9.68551 11.2728L9.60397 11.1342L9.18196 11.5562ZM9.13711 12.4878L9.01479 12.2737L9.23497 12.0536L9.15954 11.9211L8.93325 12.1412L8.89247 12.0658L9.14119 11.811L9.06576 11.6724L8.67841 12.0597L9.00256 12.6264L9.13711 12.4878Z" fill="white"/>
<path d="M50.196 36.74L46.504 40.4317L46.3592 40.287L50.0818 36.5708V31.3074H50.2836V36.6524L50.196 36.74ZM40.4063 46.533L36.6267 50.3124H31.2813V50.1045H36.541L40.2636 46.3883L40.4063 46.533ZM22.6537 50.3124H17.3083L13.5287 46.533L13.6734 46.3883L17.396 50.1045H22.6557V50.3124H22.6537ZM50.0798 22.6866C50.0798 20.9294 50.0798 19.1783 50.0798 17.4231C48.9361 16.2857 47.6925 15.0361 46.3572 13.7069L46.5019 13.5622C47.6742 14.7303 48.9177 15.9778 50.2531 17.3131L50.2816 17.3416V17.3824C50.2816 19.1498 50.2816 20.9192 50.2816 22.6866H50.0798ZM7.43104 40.4317C6.17727 39.1842 4.92961 37.9346 3.67991 36.6809L3.65137 36.6524V31.3074H3.85319V36.5708C5.09474 37.8082 6.3322 39.0496 7.56967 40.2931L7.43104 40.4317ZM3.65137 22.6866C3.65137 20.9192 3.65137 19.1498 3.65137 17.3824V17.3416L3.67991 17.3131C5.00911 15.9778 6.25677 14.7303 7.43104 13.5622L7.56967 13.7069C6.24046 15.0361 4.9928 16.2836 3.85319 17.4231C3.85319 19.1803 3.85319 20.9314 3.85319 22.6866H3.65137ZM13.5287 7.46097C14.6968 6.2929 15.9506 5.04534 17.2798 3.71623L17.3083 3.68158H22.6537V3.88951H17.394C16.2503 5.02699 15.0128 6.26437 13.6714 7.6057L13.5287 7.46097ZM31.2813 3.68158H36.6206L36.6552 3.71623C37.9844 5.04534 39.2321 6.2929 40.4063 7.46097L40.2616 7.6057C38.9202 6.26437 37.6786 5.02903 36.539 3.88951H31.2793V3.68158H31.2813Z" fill="white"/>
<path d="M25.2938 5.48967H25.8075L25.6689 6.00949H26.0909C26.2132 5.55286 26.3396 5.09012 26.4599 4.62942H26.0379L25.8993 5.15535H25.3855L25.5241 4.62942H25.1083L24.7393 6.00949H25.1551L25.2938 5.48967ZM26.6984 6.00949L26.837 5.48355H27.5302L27.6178 5.15331H26.9308L26.9777 4.96781H27.7646L27.8564 4.62738H26.6536L26.2846 6.00745H26.6984V6.00949ZM28.1724 5.6344L28.3395 5.01062L28.3864 4.96985H29.102L29.1937 4.62942H28.1703L27.9787 4.78638L27.6892 5.86067L27.7993 6.01152H28.8227L28.9144 5.67109H28.1989L28.1724 5.6344Z" fill="white"/>
<path d="M28.6351 48.5043H28.1214L28.26 47.9845H27.8441C27.7218 48.4411 27.5954 48.9038 27.4751 49.3645H27.891L28.0358 48.8447H28.5495L28.4109 49.3645H28.8268L29.1958 47.9845H28.7799L28.6351 48.5043ZM27.2366 47.9845L27.0919 48.5104H26.4048L26.3172 48.8406H27.0042L26.9512 49.0261H26.1704L26.0787 49.3666H27.2815L27.6505 47.9865H27.2366V47.9845ZM25.7627 48.3657L25.5955 48.9833L25.5425 49.0241H24.8269L24.7393 49.3645H25.7565L25.9523 49.2137L26.2417 48.1333L26.1255 47.9824H25.1083L25.0165 48.3229H25.7321L25.7627 48.3657Z" fill="white"/>
</g>
<defs>
<clipPath id="clip0_103:1459">
<rect width="54" height="54" fill="white"/>
</clipPath>
</defs>
</svg>
