<svg width="131" height="121" viewBox="0 0 131 121" fill="none" xmlns="http://www.w3.org/2000/svg">
<path d="M124.506 3.66666L74.8892 39.3004L84.1158 18.3003L124.506 3.66666Z" fill="#E17726" stroke="#E17726" stroke-width="0.25" stroke-linecap="round" stroke-linejoin="round"/>
<path d="M10.0596 3.66666L59.2342 39.633L50.4496 18.3003L10.0596 3.66666Z" fill="#E27625" stroke="#E27625" stroke-width="0.25" stroke-linecap="round" stroke-linejoin="round"/>
<path d="M106.641 86.2892L93.4395 105.864L121.707 113.418L129.805 86.7171L106.641 86.2892Z" fill="#E27625" stroke="#E27625" stroke-width="0.25" stroke-linecap="round" stroke-linejoin="round"/>
<path d="M4.80811 86.7171L12.8566 113.418L41.0756 105.864L27.9231 86.2892L4.80811 86.7171Z" fill="#E27625" stroke="#E27625" stroke-width="0.25" stroke-linecap="round" stroke-linejoin="round"/>
<path d="M39.5537 53.2213L31.7017 64.7192L59.6751 65.9545L58.7428 36.7348L39.5537 53.2213Z" fill="#E27625" stroke="#E27625" stroke-width="0.25" stroke-linecap="round" stroke-linejoin="round"/>
<path d="M95.0097 53.2217L75.5267 36.4026L74.8887 65.9549L102.862 64.7196L95.0097 53.2217Z" fill="#E27625" stroke="#E27625" stroke-width="0.25" stroke-linecap="round" stroke-linejoin="round"/>
<path d="M41.0757 105.864L58.0068 97.9297L43.4314 86.907L41.0757 105.864Z" fill="#E27625" stroke="#E27625" stroke-width="0.25" stroke-linecap="round" stroke-linejoin="round"/>
<path d="M76.5581 97.9297L93.4402 105.864L91.1335 86.907L76.5581 97.9297Z" fill="#E27625" stroke="#E27625" stroke-width="0.25" stroke-linecap="round" stroke-linejoin="round"/>
<path d="M93.4402 105.865L76.5581 97.9304L77.932 108.573L77.7847 113.087L93.4402 105.865Z" fill="#D5BFB2" stroke="#D5BFB2" stroke-width="0.25" stroke-linecap="round" stroke-linejoin="round"/>
<path d="M41.0757 105.865L56.7802 113.087L56.682 108.573L58.0068 97.9304L41.0757 105.865Z" fill="#D5BFB2" stroke="#D5BFB2" stroke-width="0.25" stroke-linecap="round" stroke-linejoin="round"/>
<path d="M57.074 79.8754L43.0381 75.8846L52.9515 71.4659L57.074 79.8754Z" fill="#233447" stroke="#233447" stroke-width="0.25" stroke-linecap="round" stroke-linejoin="round"/>
<path d="M77.4902 79.8754L81.6128 71.4659L91.5753 75.8846L77.4902 79.8754Z" fill="#233447" stroke="#233447" stroke-width="0.25" stroke-linecap="round" stroke-linejoin="round"/>
<path d="M41.0752 105.864L43.5292 86.2892L27.9229 86.7171L41.0752 105.864Z" fill="#CC6228" stroke="#CC6228" stroke-width="0.25" stroke-linecap="round" stroke-linejoin="round"/>
<path d="M91.0352 86.2892L93.44 105.864L106.641 86.7171L91.0352 86.2892Z" fill="#CC6228" stroke="#CC6228" stroke-width="0.25" stroke-linecap="round" stroke-linejoin="round"/>
<path d="M102.862 64.7189L74.8887 65.9542L77.4896 79.8755L81.6122 71.4656L91.5747 75.8843L102.862 64.7189Z" fill="#CC6228" stroke="#CC6228" stroke-width="0.25" stroke-linecap="round" stroke-linejoin="round"/>
<path d="M43.0383 75.8843L52.9516 71.4656L57.0742 79.8755L59.6751 65.9542L31.7017 64.7189L43.0383 75.8843Z" fill="#CC6228" stroke="#CC6228" stroke-width="0.25" stroke-linecap="round" stroke-linejoin="round"/>
<path d="M31.7026 64.7189L43.432 86.907L43.0391 75.8843L31.7026 64.7189Z" fill="#E27525" stroke="#E27525" stroke-width="0.25" stroke-linecap="round" stroke-linejoin="round"/>
<path d="M91.5754 75.8843L91.1338 86.907L102.863 64.7189L91.5754 75.8843Z" fill="#E27525" stroke="#E27525" stroke-width="0.25" stroke-linecap="round" stroke-linejoin="round"/>
<path d="M59.6765 65.9542L57.0752 79.8754L60.3633 96.3142L61.0996 74.649L59.6765 65.9542Z" fill="#E27525" stroke="#E27525" stroke-width="0.25" stroke-linecap="round" stroke-linejoin="round"/>
<path d="M74.8895 65.9542L73.5151 74.6017L74.2023 96.3142L77.4904 79.8754L74.8895 65.9542Z" fill="#E27525" stroke="#E27525" stroke-width="0.25" stroke-linecap="round" stroke-linejoin="round"/>
<path d="M77.4902 79.8758L74.2021 96.3145L76.5579 97.9301L91.1337 86.9073L91.5753 75.8846L77.4902 79.8758Z" fill="#F5841F" stroke="#F5841F" stroke-width="0.25" stroke-linecap="round" stroke-linejoin="round"/>
<path d="M43.0381 75.8846L43.431 86.9073L58.0064 97.9301L60.3621 96.3145L57.074 79.8758L43.0381 75.8846Z" fill="#F5841F" stroke="#F5841F" stroke-width="0.25" stroke-linecap="round" stroke-linejoin="round"/>
<path d="M77.7849 113.086L77.9318 108.573L76.6561 107.527H57.909L56.682 108.573L56.7802 113.086L41.0757 105.864L46.5722 110.235L57.7126 117.695H76.803L87.9925 110.235L93.4399 105.864L77.7849 113.086Z" fill="#C0AC9D" stroke="#C0AC9D" stroke-width="0.25" stroke-linecap="round" stroke-linejoin="round"/>
<path d="M76.5575 97.9297L74.2017 96.3146H60.3622L58.0068 97.9297L56.6816 108.573L57.9086 107.527H76.6557L77.9318 108.573L76.5575 97.9297Z" fill="#161616" stroke="#161616" stroke-width="0.25" stroke-linecap="round" stroke-linejoin="round"/>
<path d="M126.616 41.6284L130.787 21.9587L124.505 3.66666L76.5581 38.1128L95.0105 53.2213L121.07 60.5858L126.812 54.0767L124.309 52.3185L128.284 48.8029L125.242 46.5223L129.217 43.5765L126.616 41.6284Z" fill="#763E1A" stroke="#763E1A" stroke-width="0.25" stroke-linecap="round" stroke-linejoin="round"/>
<path d="M3.77783 21.9587L7.9984 41.6284L5.29921 43.5765L9.32346 46.5223L6.28073 48.8029L10.2559 52.3185L7.753 54.0767L13.495 60.5858L39.5547 53.2213L58.0071 38.1128L10.0596 3.66666L3.77783 21.9587Z" fill="#763E1A" stroke="#763E1A" stroke-width="0.25" stroke-linecap="round" stroke-linejoin="round"/>
<path d="M121.07 60.5854L95.0108 53.2213L102.863 64.7192L91.1338 86.907L106.642 86.717H129.806L121.07 60.5854Z" fill="#F5841F" stroke="#F5841F" stroke-width="0.25" stroke-linecap="round" stroke-linejoin="round"/>
<path d="M39.554 53.2213L13.4946 60.5854L4.80811 86.717H27.9231L43.431 86.907L31.7019 64.7192L39.554 53.2213Z" fill="#F5841F" stroke="#F5841F" stroke-width="0.25" stroke-linecap="round" stroke-linejoin="round"/>
<path d="M74.8888 65.9545L76.5574 38.1124L84.115 18.3002H50.4487L58.0063 38.1124L59.6749 65.9545L60.313 74.6966L60.3621 96.3145H74.2016L74.2507 74.6966L74.8888 65.9545Z" fill="#F5841F" stroke="#F5841F" stroke-width="0.25" stroke-linecap="round" stroke-linejoin="round"/>
</svg>
