<svg width="1062" height="16" viewBox="0 0 1062 16" fill="none" xmlns="http://www.w3.org/2000/svg">
<g filter="url(#filter0_f)">
<path d="M605 11L457 11L457 10.3333C457 10.3333 497.566 9.08064 526.488 9.00369C527.404 9.00125 530.9 4.99999 531 4.99999C531.1 4.99999 534.596 9.00125 535.512 9.00369C564.434 9.08065 605 10.3333 605 10.3333L605 11Z" fill="url(#paint0_linear)"/>
</g>
<path d="M613 12L449 12L449 11C449 11 493.952 9.12097 526 9.00554C527.016 9.00188 530.889 6.99999 531 6.99999C531.111 6.99999 534.984 9.00188 536 9.00554C568.048 9.12098 613 11 613 11L613 12Z" fill="url(#paint1_linear)"/>
<g filter="url(#filter1_f)">
<circle cx="531" cy="8" r="1" transform="rotate(-180 531 8)" fill="white"/>
</g>
<path d="M616.845 12.5L616.845 14C934.885 13.9287 892.256 13.1847 892.256 13.1847L1062 13.1848L892.256 12.548C892.256 12.548 773.605 13.1693 616.845 12.5Z" fill="url(#paint2_linear)"/>
<path fill-rule="evenodd" clip-rule="evenodd" d="M617.766 13.7773C617.612 14.007 617.348 14 616.845 14C616.845 14 615.338 12 613.831 12C612.323 12 613.328 11.5 613.328 11C613.831 11 612.826 11 613.831 11C614.835 11 616.845 12.5 616.845 12.5C617.076 12.6531 617.919 13.5475 617.766 13.7773Z" fill="url(#paint3_linear)"/>
<path d="M445 12L445 14L88.7634 14L2.08219e-07 12.913L88.7634 12.6667C88.7634 12.6667 179.198 12.8925 445 12Z" fill="url(#paint4_linear)"/>
<path fill-rule="evenodd" clip-rule="evenodd" d="M444.257 13.7773C444.411 14.007 444.673 14 445.173 14C445.173 14 446.673 12 448.173 12C449.673 12 448.673 11.5 448.673 11C448.173 11 449.173 11 448.173 11C447.173 11 445.173 12.5 445.173 12.5C444.944 12.6531 444.104 13.5475 444.257 13.7773Z" fill="url(#paint5_linear)"/>
<defs>
<filter id="filter0_f" x="452" y="0" width="158" height="16" filterUnits="userSpaceOnUse" color-interpolation-filters="sRGB">
<feFlood flood-opacity="0" result="BackgroundImageFix"/>
<feBlend mode="normal" in="SourceGraphic" in2="BackgroundImageFix" result="shape"/>
<feGaussianBlur stdDeviation="2.5" result="effect1_foregroundBlur"/>
</filter>
<filter id="filter1_f" x="528" y="5" width="6" height="6" filterUnits="userSpaceOnUse" color-interpolation-filters="sRGB">
<feFlood flood-opacity="0" result="BackgroundImageFix"/>
<feBlend mode="normal" in="SourceGraphic" in2="BackgroundImageFix" result="shape"/>
<feGaussianBlur stdDeviation="1" result="effect1_foregroundBlur"/>
</filter>
<linearGradient id="paint0_linear" x1="602.744" y1="7.00004" x2="457" y2="7.00002" gradientUnits="userSpaceOnUse">
<stop stop-color="#382C09"/>
<stop offset="0.494966" stop-color="#BEBEBE"/>
<stop offset="1" stop-color="#382C09"/>
</linearGradient>
<linearGradient id="paint1_linear" x1="610.5" y1="6.00006" x2="449" y2="6.00004" gradientUnits="userSpaceOnUse">
<stop stop-color="#CDCDCD"/>
<stop offset="0.494966" stop-color="#D7D7D7"/>
<stop offset="1" stop-color="#E3E3E3"/>
</linearGradient>
<linearGradient id="paint2_linear" x1="1062" y1="13.25" x2="616.845" y2="13.25" gradientUnits="userSpaceOnUse">
<stop stop-color="#3C3624"/>
<stop offset="1" stop-color="#ABABAB"/>
</linearGradient>
<linearGradient id="paint3_linear" x1="615.392" y1="14" x2="615.392" y2="11" gradientUnits="userSpaceOnUse">
<stop stop-color="#3C3624"/>
<stop offset="1" stop-color="#ABABAB"/>
</linearGradient>
<linearGradient id="paint4_linear" x1="-309.805" y1="13.0007" x2="445" y2="13.0008" gradientUnits="userSpaceOnUse">
<stop stop-color="#3C3624"/>
<stop offset="1" stop-color="#959595"/>
</linearGradient>
<linearGradient id="paint5_linear" x1="446.619" y1="14" x2="446.619" y2="11" gradientUnits="userSpaceOnUse">
<stop stop-color="#3C3624"/>
<stop offset="1" stop-color="#ABABAB"/>
</linearGradient>
</defs>
</svg>
