<svg width="1440" height="14022" viewBox="0 0 1440 14022" fill="none" xmlns="http://www.w3.org/2000/svg">
<g opacity="0.1" clip-path="url(#clip0)">
<path d="M689.5 5638L689.5 -242" stroke="#ECECEC"/>
<path d="M569.5 5638L569.5 -242" stroke="#ECECEC"/>
<path d="M389.5 5638L389.5 -242" stroke="#ECECEC"/>
<path d="M209.5 5638L209.5 -242" stroke="#ECECEC"/>
<path d="M29.5 5638L29.5002 -242" stroke="#ECECEC"/>
<path d="M509.5 5638L509.5 -242" stroke="#ECECEC"/>
<path d="M329.5 5638L329.5 -242" stroke="#ECECEC"/>
<path d="M149.5 5638L149.5 -242" stroke="#ECECEC"/>
<path d="M629.5 5638L629.5 -242" stroke="#ECECEC"/>
<path d="M449.5 5638L449.5 -242" stroke="#ECECEC"/>
<path d="M269.5 5638L269.5 -242" stroke="#ECECEC"/>
<path d="M89.5 5638L89.5002 -242" stroke="#ECECEC"/>
<path d="M720 58.5L-360 58.5" stroke="#ECECEC"/>
<path d="M720 298.5L-360 298.5" stroke="#ECECEC"/>
<path d="M720 538.501L-360 538.501" stroke="#ECECEC"/>
<path d="M720 778.5L-360 778.5" stroke="#ECECEC"/>
<path d="M720 1018.5L-360 1018.5" stroke="#ECECEC"/>
<path d="M720 1258.5L-360 1258.5" stroke="#ECECEC"/>
<path d="M720 1498.5L-360 1498.5" stroke="#ECECEC"/>
<path d="M720 178.5L-360 178.5" stroke="#ECECEC"/>
<path d="M720 418.501L-360 418.501" stroke="#ECECEC"/>
<path d="M720 658.501L-360 658.501" stroke="#ECECEC"/>
<path d="M720 898.5L-360 898.5" stroke="#ECECEC"/>
<path d="M720 1138.5L-360 1138.5" stroke="#ECECEC"/>
<path d="M720 1378.5L-360 1378.5" stroke="#ECECEC"/>
<path d="M720 1618.5L-360 1618.5" stroke="#ECECEC"/>
<path d="M720 118.5L-360 118.5" stroke="#ECECEC"/>
<path d="M720 358.5L-360 358.5" stroke="#ECECEC"/>
<path d="M720 598.501L-360 598.501" stroke="#ECECEC"/>
<path d="M720 838.5L-360 838.5" stroke="#ECECEC"/>
<path d="M720 1078.5L-360 1078.5" stroke="#ECECEC"/>
<path d="M720 1318.5L-360 1318.5" stroke="#ECECEC"/>
<path d="M720 1558.5L-360 1558.5" stroke="#ECECEC"/>
<path d="M720 238.5L-360 238.5" stroke="#ECECEC"/>
<path d="M720 478.501L-360 478.501" stroke="#ECECEC"/>
<path d="M720 718.501L-360 718.501" stroke="#ECECEC"/>
<path d="M720 958.5L-360 958.5" stroke="#ECECEC"/>
<path d="M720 1198.5L-360 1198.5" stroke="#ECECEC"/>
<path d="M720 1438.5L-360 1438.5" stroke="#ECECEC"/>
<path d="M720 1678.5L-360 1678.5" stroke="#ECECEC"/>
<path d="M720 1738.5L-360 1738.5" stroke="#ECECEC"/>
<path d="M720 1798.5L-360 1798.5" stroke="#ECECEC"/>
<path d="M720 2038.5L-360 2038.5" stroke="#ECECEC"/>
<path d="M720 2278.5L-360 2278.5" stroke="#ECECEC"/>
<path d="M720 2518.5L-360 2518.5" stroke="#ECECEC"/>
<path d="M720 2758.5L-360 2758.5" stroke="#ECECEC"/>
<path d="M720 2998.5L-360 2998.5" stroke="#ECECEC"/>
<path d="M720 3238.5L-360 3238.5" stroke="#ECECEC"/>
<path d="M720 3478.5L-360 3478.5" stroke="#ECECEC"/>
<path d="M720 1918.5L-360 1918.5" stroke="#ECECEC"/>
<path d="M720 2158.5L-360 2158.5" stroke="#ECECEC"/>
<path d="M720 2398.5L-360 2398.5" stroke="#ECECEC"/>
<path d="M720 2638.5L-360 2638.5" stroke="#ECECEC"/>
<path d="M720 2878.5L-360 2878.5" stroke="#ECECEC"/>
<path d="M720 3118.5L-360 3118.5" stroke="#ECECEC"/>
<path d="M720 3358.5L-360 3358.5" stroke="#ECECEC"/>
<path d="M720 3598.5L-360 3598.5" stroke="#ECECEC"/>
<path d="M720 1858.5L-360 1858.5" stroke="#ECECEC"/>
<path d="M720 2098.5L-360 2098.5" stroke="#ECECEC"/>
<path d="M720 2338.5L-360 2338.5" stroke="#ECECEC"/>
<path d="M720 2578.5L-360 2578.5" stroke="#ECECEC"/>
<path d="M720 2818.5L-360 2818.5" stroke="#ECECEC"/>
<path d="M720 3058.5L-360 3058.5" stroke="#ECECEC"/>
<path d="M720 3298.5L-360 3298.5" stroke="#ECECEC"/>
<path d="M720 3538.5L-360 3538.5" stroke="#ECECEC"/>
<path d="M720 1978.5L-360 1978.5" stroke="#ECECEC"/>
<path d="M720 2218.5L-360 2218.5" stroke="#ECECEC"/>
<path d="M720 2458.5L-360 2458.5" stroke="#ECECEC"/>
<path d="M720 2698.5L-360 2698.5" stroke="#ECECEC"/>
<path d="M720 2938.5L-360 2938.5" stroke="#ECECEC"/>
<path d="M720 3178.5L-360 3178.5" stroke="#ECECEC"/>
<path d="M720 3418.5L-360 3418.5" stroke="#ECECEC"/>
<path d="M720 3658.5L-360 3658.5" stroke="#ECECEC"/>
<path d="M720 3718.5L-360 3718.5" stroke="#ECECEC"/>
<path d="M720 3778.5L-360 3778.5" stroke="#ECECEC"/>
<path d="M720 4018.5L-360 4018.5" stroke="#ECECEC"/>
<path d="M720 4258.5L-360 4258.5" stroke="#ECECEC"/>
<path d="M720 4498.5L-360 4498.5" stroke="#ECECEC"/>
<path d="M720 4738.5L-360 4738.5" stroke="#ECECEC"/>
<path d="M720 4978.5L-360 4978.5" stroke="#ECECEC"/>
<path d="M720 5218.5L-360 5218.5" stroke="#ECECEC"/>
<path d="M720 5458.5L-360 5458.5" stroke="#ECECEC"/>
<path d="M720 3898.5L-360 3898.5" stroke="#ECECEC"/>
<path d="M720 4138.5L-360 4138.5" stroke="#ECECEC"/>
<path d="M720 4378.5L-360 4378.5" stroke="#ECECEC"/>
<path d="M720 4618.5L-360 4618.5" stroke="#ECECEC"/>
<path d="M720 4858.5L-360 4858.5" stroke="#ECECEC"/>
<path d="M720 5098.5L-360 5098.5" stroke="#ECECEC"/>
<path d="M720 5338.5L-360 5338.5" stroke="#ECECEC"/>
<path d="M720 5578.5L-360 5578.5" stroke="#ECECEC"/>
<path d="M720 3838.5L-360 3838.5" stroke="#ECECEC"/>
<path d="M720 4078.5L-360 4078.5" stroke="#ECECEC"/>
<path d="M720 4318.5L-360 4318.5" stroke="#ECECEC"/>
<path d="M720 4558.5L-360 4558.5" stroke="#ECECEC"/>
<path d="M720 4798.5L-360 4798.5" stroke="#ECECEC"/>
<path d="M720 5038.5L-360 5038.5" stroke="#ECECEC"/>
<path d="M720 5278.5L-360 5278.5" stroke="#ECECEC"/>
<path d="M720 5518.5L-360 5518.5" stroke="#ECECEC"/>
<path d="M720 3958.5L-360 3958.5" stroke="#ECECEC"/>
<path d="M720 4198.5L-360 4198.5" stroke="#ECECEC"/>
<path d="M720 4438.5L-360 4438.5" stroke="#ECECEC"/>
<path d="M720 4678.5L-360 4678.5" stroke="#ECECEC"/>
<path d="M720 4918.5L-360 4918.5" stroke="#ECECEC"/>
<path d="M720 5158.5L-360 5158.5" stroke="#ECECEC"/>
<path d="M720 5398.5L-360 5398.5" stroke="#ECECEC"/>
</g>
<g opacity="0.1" clip-path="url(#clip1)">
<path d="M1289.5 5638L1289.5 -242" stroke="#ECECEC"/>
<path d="M1109.5 5638L1109.5 -242" stroke="#ECECEC"/>
<path d="M929.5 5638L929.5 -242" stroke="#ECECEC"/>
<path d="M1409.5 5638L1409.5 -242" stroke="#ECECEC"/>
<path d="M1229.5 5638L1229.5 -242" stroke="#ECECEC"/>
<path d="M1049.5 5638L1049.5 -242" stroke="#ECECEC"/>
<path d="M869.5 5638L869.5 -242" stroke="#ECECEC"/>
<path d="M809.5 5638L809.5 -242" stroke="#ECECEC"/>
<path d="M1349.5 5638L1349.5 -242" stroke="#ECECEC"/>
<path d="M1169.5 5638L1169.5 -242" stroke="#ECECEC"/>
<path d="M989.5 5638L989.5 -242" stroke="#ECECEC"/>
<path d="M749.5 5638L749.5 -242" stroke="#ECECEC"/>
<path d="M1800 58.5L720 58.5" stroke="#ECECEC"/>
<path d="M1800 298.5L720 298.5" stroke="#ECECEC"/>
<path d="M1800 538.501L720 538.501" stroke="#ECECEC"/>
<path d="M1800 778.5L720 778.5" stroke="#ECECEC"/>
<path d="M1800 1018.5L720 1018.5" stroke="#ECECEC"/>
<path d="M1800 1258.5L720 1258.5" stroke="#ECECEC"/>
<path d="M1800 1498.5L720 1498.5" stroke="#ECECEC"/>
<path d="M1800 178.5L720 178.5" stroke="#ECECEC"/>
<path d="M1800 418.501L720 418.501" stroke="#ECECEC"/>
<path d="M1800 658.501L720 658.501" stroke="#ECECEC"/>
<path d="M1800 898.5L720 898.5" stroke="#ECECEC"/>
<path d="M1800 1138.5L720 1138.5" stroke="#ECECEC"/>
<path d="M1800 1378.5L720 1378.5" stroke="#ECECEC"/>
<path d="M1800 1618.5L720 1618.5" stroke="#ECECEC"/>
<path d="M1800 118.5L720 118.5" stroke="#ECECEC"/>
<path d="M1800 358.5L720 358.5" stroke="#ECECEC"/>
<path d="M1800 598.501L720 598.501" stroke="#ECECEC"/>
<path d="M1800 838.5L720 838.5" stroke="#ECECEC"/>
<path d="M1800 1078.5L720 1078.5" stroke="#ECECEC"/>
<path d="M1800 1318.5L720 1318.5" stroke="#ECECEC"/>
<path d="M1800 1558.5L720 1558.5" stroke="#ECECEC"/>
<path d="M1800 238.5L720 238.5" stroke="#ECECEC"/>
<path d="M1800 478.501L720 478.501" stroke="#ECECEC"/>
<path d="M1800 718.501L720 718.501" stroke="#ECECEC"/>
<path d="M1800 958.5L720 958.5" stroke="#ECECEC"/>
<path d="M1800 1198.5L720 1198.5" stroke="#ECECEC"/>
<path d="M1800 1438.5L720 1438.5" stroke="#ECECEC"/>
<path d="M1800 1678.5L720 1678.5" stroke="#ECECEC"/>
<path d="M1800 1738.5L720 1738.5" stroke="#ECECEC"/>
<path d="M1800 1798.5L720 1798.5" stroke="#ECECEC"/>
<path d="M1800 2038.5L720 2038.5" stroke="#ECECEC"/>
<path d="M1800 2278.5L720 2278.5" stroke="#ECECEC"/>
<path d="M1800 2518.5L720 2518.5" stroke="#ECECEC"/>
<path d="M1800 2758.5L720 2758.5" stroke="#ECECEC"/>
<path d="M1800 2998.5L720 2998.5" stroke="#ECECEC"/>
<path d="M1800 3238.5L720 3238.5" stroke="#ECECEC"/>
<path d="M1800 3478.5L720 3478.5" stroke="#ECECEC"/>
<path d="M1800 1918.5L720 1918.5" stroke="#ECECEC"/>
<path d="M1800 2158.5L720 2158.5" stroke="#ECECEC"/>
<path d="M1800 2398.5L720 2398.5" stroke="#ECECEC"/>
<path d="M1800 2638.5L720 2638.5" stroke="#ECECEC"/>
<path d="M1800 2878.5L720 2878.5" stroke="#ECECEC"/>
<path d="M1800 3118.5L720 3118.5" stroke="#ECECEC"/>
<path d="M1800 3358.5L720 3358.5" stroke="#ECECEC"/>
<path d="M1800 3598.5L720 3598.5" stroke="#ECECEC"/>
<path d="M1800 1858.5L720 1858.5" stroke="#ECECEC"/>
<path d="M1800 2098.5L720 2098.5" stroke="#ECECEC"/>
<path d="M1800 2338.5L720 2338.5" stroke="#ECECEC"/>
<path d="M1800 2578.5L720 2578.5" stroke="#ECECEC"/>
<path d="M1800 2818.5L720 2818.5" stroke="#ECECEC"/>
<path d="M1800 3058.5L720 3058.5" stroke="#ECECEC"/>
<path d="M1800 3298.5L720 3298.5" stroke="#ECECEC"/>
<path d="M1800 3538.5L720 3538.5" stroke="#ECECEC"/>
<path d="M1800 1978.5L720 1978.5" stroke="#ECECEC"/>
<path d="M1800 2218.5L720 2218.5" stroke="#ECECEC"/>
<path d="M1800 2458.5L720 2458.5" stroke="#ECECEC"/>
<path d="M1800 2698.5L720 2698.5" stroke="#ECECEC"/>
<path d="M1800 2938.5L720 2938.5" stroke="#ECECEC"/>
<path d="M1800 3178.5L720 3178.5" stroke="#ECECEC"/>
<path d="M1800 3418.5L720 3418.5" stroke="#ECECEC"/>
<path d="M1800 3658.5L720 3658.5" stroke="#ECECEC"/>
<path d="M1800 3718.5L720 3718.5" stroke="#ECECEC"/>
<path d="M1800 3778.5L720 3778.5" stroke="#ECECEC"/>
<path d="M1800 4018.5L720 4018.5" stroke="#ECECEC"/>
<path d="M1800 4258.5L720 4258.5" stroke="#ECECEC"/>
<path d="M1800 4498.5L720 4498.5" stroke="#ECECEC"/>
<path d="M1800 4738.5L720 4738.5" stroke="#ECECEC"/>
<path d="M1800 4978.5L720 4978.5" stroke="#ECECEC"/>
<path d="M1800 5218.5L720 5218.5" stroke="#ECECEC"/>
<path d="M1800 5458.5L720 5458.5" stroke="#ECECEC"/>
<path d="M1800 3898.5L720 3898.5" stroke="#ECECEC"/>
<path d="M1800 4138.5L720 4138.5" stroke="#ECECEC"/>
<path d="M1800 4378.5L720 4378.5" stroke="#ECECEC"/>
<path d="M1800 4618.5L720 4618.5" stroke="#ECECEC"/>
<path d="M1800 4858.5L720 4858.5" stroke="#ECECEC"/>
<path d="M1800 5098.5L720 5098.5" stroke="#ECECEC"/>
<path d="M1800 5338.5L720 5338.5" stroke="#ECECEC"/>
<path d="M1800 5578.5L720 5578.5" stroke="#ECECEC"/>
<path d="M1800 3838.5L720 3838.5" stroke="#ECECEC"/>
<path d="M1800 4078.5L720 4078.5" stroke="#ECECEC"/>
<path d="M1800 4318.5L720 4318.5" stroke="#ECECEC"/>
<path d="M1800 4558.5L720 4558.5" stroke="#ECECEC"/>
<path d="M1800 4798.5L720 4798.5" stroke="#ECECEC"/>
<path d="M1800 5038.5L720 5038.5" stroke="#ECECEC"/>
<path d="M1800 5278.5L720 5278.5" stroke="#ECECEC"/>
<path d="M1800 5518.5L720 5518.5" stroke="#ECECEC"/>
<path d="M1800 3958.5L720 3958.5" stroke="#ECECEC"/>
<path d="M1800 4198.5L720 4198.5" stroke="#ECECEC"/>
<path d="M1800 4438.5L720 4438.5" stroke="#ECECEC"/>
<path d="M1800 4678.5L720 4678.5" stroke="#ECECEC"/>
<path d="M1800 4918.5L720 4918.5" stroke="#ECECEC"/>
<path d="M1800 5158.5L720 5158.5" stroke="#ECECEC"/>
<path d="M1800 5398.5L720 5398.5" stroke="#ECECEC"/>
</g>
<g opacity="0.1" clip-path="url(#clip2)">
<path d="M689.5 11518L689.5 5638" stroke="#ECECEC"/>
<path d="M569.5 11518L569.5 5638" stroke="#ECECEC"/>
<path d="M389.5 11518L389.5 5638" stroke="#ECECEC"/>
<path d="M209.5 11518L209.5 5638" stroke="#ECECEC"/>
<path d="M29.5 11518L29.5002 5638" stroke="#ECECEC"/>
<path d="M509.5 11518L509.5 5638" stroke="#ECECEC"/>
<path d="M329.5 11518L329.5 5638" stroke="#ECECEC"/>
<path d="M149.5 11518L149.5 5638" stroke="#ECECEC"/>
<path d="M629.5 11518L629.5 5638" stroke="#ECECEC"/>
<path d="M449.5 11518L449.5 5638" stroke="#ECECEC"/>
<path d="M269.5 11518L269.5 5638" stroke="#ECECEC"/>
<path d="M89.5 11518L89.5002 5638" stroke="#ECECEC"/>
<path d="M720 5638.5L-360 5638.5" stroke="#ECECEC"/>
<path d="M720 5698.5L-360 5698.5" stroke="#ECECEC"/>
<path d="M720 5938.5L-360 5938.5" stroke="#ECECEC"/>
<path d="M720 6178.5L-360 6178.5" stroke="#ECECEC"/>
<path d="M720 6418.5L-360 6418.5" stroke="#ECECEC"/>
<path d="M720 6658.5L-360 6658.5" stroke="#ECECEC"/>
<path d="M720 6898.5L-360 6898.5" stroke="#ECECEC"/>
<path d="M720 7138.5L-360 7138.5" stroke="#ECECEC"/>
<path d="M720 7378.5L-360 7378.5" stroke="#ECECEC"/>
<path d="M720 5818.5L-360 5818.5" stroke="#ECECEC"/>
<path d="M720 6058.5L-360 6058.5" stroke="#ECECEC"/>
<path d="M720 6298.5L-360 6298.5" stroke="#ECECEC"/>
<path d="M720 6538.5L-360 6538.5" stroke="#ECECEC"/>
<path d="M720 6778.5L-360 6778.5" stroke="#ECECEC"/>
<path d="M720 7018.5L-360 7018.5" stroke="#ECECEC"/>
<path d="M720 7258.5L-360 7258.5" stroke="#ECECEC"/>
<path d="M720 7498.5L-360 7498.5" stroke="#ECECEC"/>
<path d="M720 5758.5L-360 5758.5" stroke="#ECECEC"/>
<path d="M720 5998.5L-360 5998.5" stroke="#ECECEC"/>
<path d="M720 6238.5L-360 6238.5" stroke="#ECECEC"/>
<path d="M720 6478.5L-360 6478.5" stroke="#ECECEC"/>
<path d="M720 6718.5L-360 6718.5" stroke="#ECECEC"/>
<path d="M720 6958.5L-360 6958.5" stroke="#ECECEC"/>
<path d="M720 7198.5L-360 7198.5" stroke="#ECECEC"/>
<path d="M720 7438.5L-360 7438.5" stroke="#ECECEC"/>
<path d="M720 5878.5L-360 5878.5" stroke="#ECECEC"/>
<path d="M720 6118.5L-360 6118.5" stroke="#ECECEC"/>
<path d="M720 6358.5L-360 6358.5" stroke="#ECECEC"/>
<path d="M720 6598.5L-360 6598.5" stroke="#ECECEC"/>
<path d="M720 6838.5L-360 6838.5" stroke="#ECECEC"/>
<path d="M720 7078.5L-360 7078.5" stroke="#ECECEC"/>
<path d="M720 7318.5L-360 7318.5" stroke="#ECECEC"/>
<path d="M720 7558.5L-360 7558.5" stroke="#ECECEC"/>
<path d="M720 7618.5L-360 7618.5" stroke="#ECECEC"/>
<path d="M720 7678.5L-360 7678.5" stroke="#ECECEC"/>
<path d="M720 7918.5L-360 7918.5" stroke="#ECECEC"/>
<path d="M720 8158.5L-360 8158.5" stroke="#ECECEC"/>
<path d="M720 8398.5L-360 8398.5" stroke="#ECECEC"/>
<path d="M720 8638.5L-360 8638.5" stroke="#ECECEC"/>
<path d="M720 8878.5L-360 8878.5" stroke="#ECECEC"/>
<path d="M720 9118.5L-360 9118.5" stroke="#ECECEC"/>
<path d="M720 9358.5L-360 9358.5" stroke="#ECECEC"/>
<path d="M720 7798.5L-360 7798.5" stroke="#ECECEC"/>
<path d="M720 8038.5L-360 8038.5" stroke="#ECECEC"/>
<path d="M720 8278.5L-360 8278.5" stroke="#ECECEC"/>
<path d="M720 8518.5L-360 8518.5" stroke="#ECECEC"/>
<path d="M720 8758.5L-360 8758.5" stroke="#ECECEC"/>
<path d="M720 8998.5L-360 8998.5" stroke="#ECECEC"/>
<path d="M720 9238.5L-360 9238.5" stroke="#ECECEC"/>
<path d="M720 9478.5L-360 9478.5" stroke="#ECECEC"/>
<path d="M720 7738.5L-360 7738.5" stroke="#ECECEC"/>
<path d="M720 7978.5L-360 7978.5" stroke="#ECECEC"/>
<path d="M720 8218.5L-360 8218.5" stroke="#ECECEC"/>
<path d="M720 8458.5L-360 8458.5" stroke="#ECECEC"/>
<path d="M720 8698.5L-360 8698.5" stroke="#ECECEC"/>
<path d="M720 8938.5L-360 8938.5" stroke="#ECECEC"/>
<path d="M720 9178.5L-360 9178.5" stroke="#ECECEC"/>
<path d="M720 9418.5L-360 9418.5" stroke="#ECECEC"/>
<path d="M720 7858.5L-360 7858.5" stroke="#ECECEC"/>
<path d="M720 8098.5L-360 8098.5" stroke="#ECECEC"/>
<path d="M720 8338.5L-360 8338.5" stroke="#ECECEC"/>
<path d="M720 8578.5L-360 8578.5" stroke="#ECECEC"/>
<path d="M720 8818.5L-360 8818.5" stroke="#ECECEC"/>
<path d="M720 9058.5L-360 9058.5" stroke="#ECECEC"/>
<path d="M720 9298.5L-360 9298.5" stroke="#ECECEC"/>
<path d="M720 9538.5L-360 9538.5" stroke="#ECECEC"/>
<path d="M720 9598.5L-360 9598.5" stroke="#ECECEC"/>
<path d="M720 9658.5L-360 9658.5" stroke="#ECECEC"/>
<path d="M720 9898.5L-360 9898.5" stroke="#ECECEC"/>
<path d="M720 10138.5L-360 10138.5" stroke="#ECECEC"/>
<path d="M720 10378.5L-360 10378.5" stroke="#ECECEC"/>
<path d="M720 10618.5L-360 10618.5" stroke="#ECECEC"/>
<path d="M720 10858.5L-360 10858.5" stroke="#ECECEC"/>
<path d="M720 11098.5L-360 11098.5" stroke="#ECECEC"/>
<path d="M720 11338.5L-360 11338.5" stroke="#ECECEC"/>
<path d="M720 9778.5L-360 9778.5" stroke="#ECECEC"/>
<path d="M720 10018.5L-360 10018.5" stroke="#ECECEC"/>
<path d="M720 10258.5L-360 10258.5" stroke="#ECECEC"/>
<path d="M720 10498.5L-360 10498.5" stroke="#ECECEC"/>
<path d="M720 10738.5L-360 10738.5" stroke="#ECECEC"/>
<path d="M720 10978.5L-360 10978.5" stroke="#ECECEC"/>
<path d="M720 11218.5L-360 11218.5" stroke="#ECECEC"/>
<path d="M720 11458.5L-360 11458.5" stroke="#ECECEC"/>
<path d="M720 9718.5L-360 9718.5" stroke="#ECECEC"/>
<path d="M720 9958.5L-360 9958.5" stroke="#ECECEC"/>
<path d="M720 10198.5L-360 10198.5" stroke="#ECECEC"/>
<path d="M720 10438.5L-360 10438.5" stroke="#ECECEC"/>
<path d="M720 10678.5L-360 10678.5" stroke="#ECECEC"/>
<path d="M720 10918.5L-360 10918.5" stroke="#ECECEC"/>
<path d="M720 11158.5L-360 11158.5" stroke="#ECECEC"/>
<path d="M720 11398.5L-360 11398.5" stroke="#ECECEC"/>
<path d="M720 9838.5L-360 9838.5" stroke="#ECECEC"/>
<path d="M720 10078.5L-360 10078.5" stroke="#ECECEC"/>
<path d="M720 10318.5L-360 10318.5" stroke="#ECECEC"/>
<path d="M720 10558.5L-360 10558.5" stroke="#ECECEC"/>
<path d="M720 10798.5L-360 10798.5" stroke="#ECECEC"/>
<path d="M720 11038.5L-360 11038.5" stroke="#ECECEC"/>
<path d="M720 11278.5L-360 11278.5" stroke="#ECECEC"/>
</g>
<g opacity="0.1" clip-path="url(#clip3)">
<path d="M1289.5 11518L1289.5 5638" stroke="#ECECEC"/>
<path d="M1109.5 11518L1109.5 5638" stroke="#ECECEC"/>
<path d="M929.5 11518L929.5 5638" stroke="#ECECEC"/>
<path d="M1409.5 11518L1409.5 5638" stroke="#ECECEC"/>
<path d="M1229.5 11518L1229.5 5638" stroke="#ECECEC"/>
<path d="M1049.5 11518L1049.5 5638" stroke="#ECECEC"/>
<path d="M869.5 11518L869.5 5638" stroke="#ECECEC"/>
<path d="M809.5 11518L809.5 5638" stroke="#ECECEC"/>
<path d="M1349.5 11518L1349.5 5638" stroke="#ECECEC"/>
<path d="M1169.5 11518L1169.5 5638" stroke="#ECECEC"/>
<path d="M989.5 11518L989.5 5638" stroke="#ECECEC"/>
<path d="M749.5 11518L749.5 5638" stroke="#ECECEC"/>
<path d="M1800 5638.5L720 5638.5" stroke="#ECECEC"/>
<path d="M1800 5698.5L720 5698.5" stroke="#ECECEC"/>
<path d="M1800 5938.5L720 5938.5" stroke="#ECECEC"/>
<path d="M1800 6178.5L720 6178.5" stroke="#ECECEC"/>
<path d="M1800 6418.5L720 6418.5" stroke="#ECECEC"/>
<path d="M1800 6658.5L720 6658.5" stroke="#ECECEC"/>
<path d="M1800 6898.5L720 6898.5" stroke="#ECECEC"/>
<path d="M1800 7138.5L720 7138.5" stroke="#ECECEC"/>
<path d="M1800 7378.5L720 7378.5" stroke="#ECECEC"/>
<path d="M1800 5818.5L720 5818.5" stroke="#ECECEC"/>
<path d="M1800 6058.5L720 6058.5" stroke="#ECECEC"/>
<path d="M1800 6298.5L720 6298.5" stroke="#ECECEC"/>
<path d="M1800 6538.5L720 6538.5" stroke="#ECECEC"/>
<path d="M1800 6778.5L720 6778.5" stroke="#ECECEC"/>
<path d="M1800 7018.5L720 7018.5" stroke="#ECECEC"/>
<path d="M1800 7258.5L720 7258.5" stroke="#ECECEC"/>
<path d="M1800 7498.5L720 7498.5" stroke="#ECECEC"/>
<path d="M1800 5758.5L720 5758.5" stroke="#ECECEC"/>
<path d="M1800 5998.5L720 5998.5" stroke="#ECECEC"/>
<path d="M1800 6238.5L720 6238.5" stroke="#ECECEC"/>
<path d="M1800 6478.5L720 6478.5" stroke="#ECECEC"/>
<path d="M1800 6718.5L720 6718.5" stroke="#ECECEC"/>
<path d="M1800 6958.5L720 6958.5" stroke="#ECECEC"/>
<path d="M1800 7198.5L720 7198.5" stroke="#ECECEC"/>
<path d="M1800 7438.5L720 7438.5" stroke="#ECECEC"/>
<path d="M1800 5878.5L720 5878.5" stroke="#ECECEC"/>
<path d="M1800 6118.5L720 6118.5" stroke="#ECECEC"/>
<path d="M1800 6358.5L720 6358.5" stroke="#ECECEC"/>
<path d="M1800 6598.5L720 6598.5" stroke="#ECECEC"/>
<path d="M1800 6838.5L720 6838.5" stroke="#ECECEC"/>
<path d="M1800 7078.5L720 7078.5" stroke="#ECECEC"/>
<path d="M1800 7318.5L720 7318.5" stroke="#ECECEC"/>
<path d="M1800 7558.5L720 7558.5" stroke="#ECECEC"/>
<path d="M1800 7618.5L720 7618.5" stroke="#ECECEC"/>
<path d="M1800 7678.5L720 7678.5" stroke="#ECECEC"/>
<path d="M1800 7918.5L720 7918.5" stroke="#ECECEC"/>
<path d="M1800 8158.5L720 8158.5" stroke="#ECECEC"/>
<path d="M1800 8398.5L720 8398.5" stroke="#ECECEC"/>
<path d="M1800 8638.5L720 8638.5" stroke="#ECECEC"/>
<path d="M1800 8878.5L720 8878.5" stroke="#ECECEC"/>
<path d="M1800 9118.5L720 9118.5" stroke="#ECECEC"/>
<path d="M1800 9358.5L720 9358.5" stroke="#ECECEC"/>
<path d="M1800 7798.5L720 7798.5" stroke="#ECECEC"/>
<path d="M1800 8038.5L720 8038.5" stroke="#ECECEC"/>
<path d="M1800 8278.5L720 8278.5" stroke="#ECECEC"/>
<path d="M1800 8518.5L720 8518.5" stroke="#ECECEC"/>
<path d="M1800 8758.5L720 8758.5" stroke="#ECECEC"/>
<path d="M1800 8998.5L720 8998.5" stroke="#ECECEC"/>
<path d="M1800 9238.5L720 9238.5" stroke="#ECECEC"/>
<path d="M1800 9478.5L720 9478.5" stroke="#ECECEC"/>
<path d="M1800 7738.5L720 7738.5" stroke="#ECECEC"/>
<path d="M1800 7978.5L720 7978.5" stroke="#ECECEC"/>
<path d="M1800 8218.5L720 8218.5" stroke="#ECECEC"/>
<path d="M1800 8458.5L720 8458.5" stroke="#ECECEC"/>
<path d="M1800 8698.5L720 8698.5" stroke="#ECECEC"/>
<path d="M1800 8938.5L720 8938.5" stroke="#ECECEC"/>
<path d="M1800 9178.5L720 9178.5" stroke="#ECECEC"/>
<path d="M1800 9418.5L720 9418.5" stroke="#ECECEC"/>
<path d="M1800 7858.5L720 7858.5" stroke="#ECECEC"/>
<path d="M1800 8098.5L720 8098.5" stroke="#ECECEC"/>
<path d="M1800 8338.5L720 8338.5" stroke="#ECECEC"/>
<path d="M1800 8578.5L720 8578.5" stroke="#ECECEC"/>
<path d="M1800 8818.5L720 8818.5" stroke="#ECECEC"/>
<path d="M1800 9058.5L720 9058.5" stroke="#ECECEC"/>
<path d="M1800 9298.5L720 9298.5" stroke="#ECECEC"/>
<path d="M1800 9538.5L720 9538.5" stroke="#ECECEC"/>
<path d="M1800 9598.5L720 9598.5" stroke="#ECECEC"/>
<path d="M1800 9658.5L720 9658.5" stroke="#ECECEC"/>
<path d="M1800 9898.5L720 9898.5" stroke="#ECECEC"/>
<path d="M1800 10138.5L720 10138.5" stroke="#ECECEC"/>
<path d="M1800 10378.5L720 10378.5" stroke="#ECECEC"/>
<path d="M1800 10618.5L720 10618.5" stroke="#ECECEC"/>
<path d="M1800 10858.5L720 10858.5" stroke="#ECECEC"/>
<path d="M1800 11098.5L720 11098.5" stroke="#ECECEC"/>
<path d="M1800 11338.5L720 11338.5" stroke="#ECECEC"/>
<path d="M1800 9778.5L720 9778.5" stroke="#ECECEC"/>
<path d="M1800 10018.5L720 10018.5" stroke="#ECECEC"/>
<path d="M1800 10258.5L720 10258.5" stroke="#ECECEC"/>
<path d="M1800 10498.5L720 10498.5" stroke="#ECECEC"/>
<path d="M1800 10738.5L720 10738.5" stroke="#ECECEC"/>
<path d="M1800 10978.5L720 10978.5" stroke="#ECECEC"/>
<path d="M1800 11218.5L720 11218.5" stroke="#ECECEC"/>
<path d="M1800 11458.5L720 11458.5" stroke="#ECECEC"/>
<path d="M1800 9718.5L720 9718.5" stroke="#ECECEC"/>
<path d="M1800 9958.5L720 9958.5" stroke="#ECECEC"/>
<path d="M1800 10198.5L720 10198.5" stroke="#ECECEC"/>
<path d="M1800 10438.5L720 10438.5" stroke="#ECECEC"/>
<path d="M1800 10678.5L720 10678.5" stroke="#ECECEC"/>
<path d="M1800 10918.5L720 10918.5" stroke="#ECECEC"/>
<path d="M1800 11158.5L720 11158.5" stroke="#ECECEC"/>
<path d="M1800 11398.5L720 11398.5" stroke="#ECECEC"/>
<path d="M1800 9838.5L720 9838.5" stroke="#ECECEC"/>
<path d="M1800 10078.5L720 10078.5" stroke="#ECECEC"/>
<path d="M1800 10318.5L720 10318.5" stroke="#ECECEC"/>
<path d="M1800 10558.5L720 10558.5" stroke="#ECECEC"/>
<path d="M1800 10798.5L720 10798.5" stroke="#ECECEC"/>
<path d="M1800 11038.5L720 11038.5" stroke="#ECECEC"/>
<path d="M1800 11278.5L720 11278.5" stroke="#ECECEC"/>
</g>
<g opacity="0.1" clip-path="url(#clip4)">
<path d="M689.5 17398L689.5 11518" stroke="#ECECEC"/>
<path d="M569.5 17398L569.5 11518" stroke="#ECECEC"/>
<path d="M389.5 17398L389.5 11518" stroke="#ECECEC"/>
<path d="M209.5 17398L209.5 11518" stroke="#ECECEC"/>
<path d="M29.5 17398L29.5002 11518" stroke="#ECECEC"/>
<path d="M509.5 17398L509.5 11518" stroke="#ECECEC"/>
<path d="M329.5 17398L329.5 11518" stroke="#ECECEC"/>
<path d="M149.5 17398L149.5 11518" stroke="#ECECEC"/>
<path d="M629.5 17398L629.5 11518" stroke="#ECECEC"/>
<path d="M449.5 17398L449.5 11518" stroke="#ECECEC"/>
<path d="M269.5 17398L269.5 11518" stroke="#ECECEC"/>
<path d="M89.5 17398L89.5002 11518" stroke="#ECECEC"/>
<path d="M720 11518.5L-360 11518.5" stroke="#ECECEC"/>
<path d="M720 11578.5L-360 11578.5" stroke="#ECECEC"/>
<path d="M720 11818.5L-360 11818.5" stroke="#ECECEC"/>
<path d="M720 12058.5L-360 12058.5" stroke="#ECECEC"/>
<path d="M720 12298.5L-360 12298.5" stroke="#ECECEC"/>
<path d="M720 12538.5L-360 12538.5" stroke="#ECECEC"/>
<path d="M720 12778.5L-360 12778.5" stroke="#ECECEC"/>
<path d="M720 13018.5L-360 13018.5" stroke="#ECECEC"/>
<path d="M720 13258.5L-360 13258.5" stroke="#ECECEC"/>
<path d="M720 11698.5L-360 11698.5" stroke="#ECECEC"/>
<path d="M720 11938.5L-360 11938.5" stroke="#ECECEC"/>
<path d="M720 12178.5L-360 12178.5" stroke="#ECECEC"/>
<path d="M720 12418.5L-360 12418.5" stroke="#ECECEC"/>
<path d="M720 12658.5L-360 12658.5" stroke="#ECECEC"/>
<path d="M720 12898.5L-360 12898.5" stroke="#ECECEC"/>
<path d="M720 13138.5L-360 13138.5" stroke="#ECECEC"/>
<path d="M720 13378.5L-360 13378.5" stroke="#ECECEC"/>
<path d="M720 11638.5L-360 11638.5" stroke="#ECECEC"/>
<path d="M720 11878.5L-360 11878.5" stroke="#ECECEC"/>
<path d="M720 12118.5L-360 12118.5" stroke="#ECECEC"/>
<path d="M720 12358.5L-360 12358.5" stroke="#ECECEC"/>
<path d="M720 12598.5L-360 12598.5" stroke="#ECECEC"/>
<path d="M720 12838.5L-360 12838.5" stroke="#ECECEC"/>
<path d="M720 13078.5L-360 13078.5" stroke="#ECECEC"/>
<path d="M720 13318.5L-360 13318.5" stroke="#ECECEC"/>
<path d="M720 11758.5L-360 11758.5" stroke="#ECECEC"/>
<path d="M720 11998.5L-360 11998.5" stroke="#ECECEC"/>
<path d="M720 12238.5L-360 12238.5" stroke="#ECECEC"/>
<path d="M720 12478.5L-360 12478.5" stroke="#ECECEC"/>
<path d="M720 12718.5L-360 12718.5" stroke="#ECECEC"/>
<path d="M720 12958.5L-360 12958.5" stroke="#ECECEC"/>
<path d="M720 13198.5L-360 13198.5" stroke="#ECECEC"/>
<path d="M720 13438.5L-360 13438.5" stroke="#ECECEC"/>
<path d="M720 13498.5L-360 13498.5" stroke="#ECECEC"/>
<path d="M720 13558.5L-360 13558.5" stroke="#ECECEC"/>
<path d="M720 13798.5L-360 13798.5" stroke="#ECECEC"/>
<path d="M720 13678.5L-360 13678.5" stroke="#ECECEC"/>
<path d="M720 13918.5L-360 13918.5" stroke="#ECECEC"/>
<path d="M720 13618.5L-360 13618.5" stroke="#ECECEC"/>
<path d="M720 13858.5L-360 13858.5" stroke="#ECECEC"/>
<path d="M720 13738.5L-360 13738.5" stroke="#ECECEC"/>
<path d="M720 13978.5L-360 13978.5" stroke="#ECECEC"/>
</g>
<g opacity="0.1" clip-path="url(#clip5)">
<path d="M1289.5 17398L1289.5 11518" stroke="#ECECEC"/>
<path d="M1109.5 17398L1109.5 11518" stroke="#ECECEC"/>
<path d="M929.5 17398L929.5 11518" stroke="#ECECEC"/>
<path d="M1409.5 17398L1409.5 11518" stroke="#ECECEC"/>
<path d="M1229.5 17398L1229.5 11518" stroke="#ECECEC"/>
<path d="M1049.5 17398L1049.5 11518" stroke="#ECECEC"/>
<path d="M869.5 17398L869.5 11518" stroke="#ECECEC"/>
<path d="M809.5 17398L809.5 11518" stroke="#ECECEC"/>
<path d="M1349.5 17398L1349.5 11518" stroke="#ECECEC"/>
<path d="M1169.5 17398L1169.5 11518" stroke="#ECECEC"/>
<path d="M989.5 17398L989.5 11518" stroke="#ECECEC"/>
<path d="M749.5 17398L749.5 11518" stroke="#ECECEC"/>
<path d="M1800 11518.5L720 11518.5" stroke="#ECECEC"/>
<path d="M1800 11578.5L720 11578.5" stroke="#ECECEC"/>
<path d="M1800 11818.5L720 11818.5" stroke="#ECECEC"/>
<path d="M1800 12058.5L720 12058.5" stroke="#ECECEC"/>
<path d="M1800 12298.5L720 12298.5" stroke="#ECECEC"/>
<path d="M1800 12538.5L720 12538.5" stroke="#ECECEC"/>
<path d="M1800 12778.5L720 12778.5" stroke="#ECECEC"/>
<path d="M1800 13018.5L720 13018.5" stroke="#ECECEC"/>
<path d="M1800 13258.5L720 13258.5" stroke="#ECECEC"/>
<path d="M1800 11698.5L720 11698.5" stroke="#ECECEC"/>
<path d="M1800 11938.5L720 11938.5" stroke="#ECECEC"/>
<path d="M1800 12178.5L720 12178.5" stroke="#ECECEC"/>
<path d="M1800 12418.5L720 12418.5" stroke="#ECECEC"/>
<path d="M1800 12658.5L720 12658.5" stroke="#ECECEC"/>
<path d="M1800 12898.5L720 12898.5" stroke="#ECECEC"/>
<path d="M1800 13138.5L720 13138.5" stroke="#ECECEC"/>
<path d="M1800 13378.5L720 13378.5" stroke="#ECECEC"/>
<path d="M1800 11638.5L720 11638.5" stroke="#ECECEC"/>
<path d="M1800 11878.5L720 11878.5" stroke="#ECECEC"/>
<path d="M1800 12118.5L720 12118.5" stroke="#ECECEC"/>
<path d="M1800 12358.5L720 12358.5" stroke="#ECECEC"/>
<path d="M1800 12598.5L720 12598.5" stroke="#ECECEC"/>
<path d="M1800 12838.5L720 12838.5" stroke="#ECECEC"/>
<path d="M1800 13078.5L720 13078.5" stroke="#ECECEC"/>
<path d="M1800 13318.5L720 13318.5" stroke="#ECECEC"/>
<path d="M1800 11758.5L720 11758.5" stroke="#ECECEC"/>
<path d="M1800 11998.5L720 11998.5" stroke="#ECECEC"/>
<path d="M1800 12238.5L720 12238.5" stroke="#ECECEC"/>
<path d="M1800 12478.5L720 12478.5" stroke="#ECECEC"/>
<path d="M1800 12718.5L720 12718.5" stroke="#ECECEC"/>
<path d="M1800 12958.5L720 12958.5" stroke="#ECECEC"/>
<path d="M1800 13198.5L720 13198.5" stroke="#ECECEC"/>
<path d="M1800 13438.5L720 13438.5" stroke="#ECECEC"/>
<path d="M1800 13498.5L720 13498.5" stroke="#ECECEC"/>
<path d="M1800 13558.5L720 13558.5" stroke="#ECECEC"/>
<path d="M1800 13798.5L720 13798.5" stroke="#ECECEC"/>
<path d="M1800 13678.5L720 13678.5" stroke="#ECECEC"/>
<path d="M1800 13918.5L720 13918.5" stroke="#ECECEC"/>
<path d="M1800 13618.5L720 13618.5" stroke="#ECECEC"/>
<path d="M1800 13858.5L720 13858.5" stroke="#ECECEC"/>
<path d="M1800 13738.5L720 13738.5" stroke="#ECECEC"/>
<path d="M1800 13978.5L720 13978.5" stroke="#ECECEC"/>
</g>
<defs>
<clipPath id="clip0">
<rect width="5880" height="1080" fill="white" transform="translate(720 -242) rotate(90)"/>
</clipPath>
<clipPath id="clip1">
<rect width="5880" height="1080" fill="white" transform="translate(1800 -242) rotate(90)"/>
</clipPath>
<clipPath id="clip2">
<rect width="5880" height="1080" fill="white" transform="translate(720 5638) rotate(90)"/>
</clipPath>
<clipPath id="clip3">
<rect width="5880" height="1080" fill="white" transform="translate(1800 5638) rotate(90)"/>
</clipPath>
<clipPath id="clip4">
<rect width="5880" height="1080" fill="white" transform="translate(720 11518) rotate(90)"/>
</clipPath>
<clipPath id="clip5">
<rect width="5880" height="1080" fill="white" transform="translate(1800 11518) rotate(90)"/>
</clipPath>
</defs>
</svg>
