<svg width="40" height="40" viewBox="0 0 40 40" fill="none" xmlns="http://www.w3.org/2000/svg">
<path d="M0 20C0 8.95431 8.95431 0 20 0C31.0457 0 40 8.95431 40 20C40 31.0457 31.0457 40 20 40C8.95431 40 0 31.0457 0 20Z" fill="#FC132D"/>
<rect width="40" height="40" rx="20" fill="#FC132D"/>
<path fill-rule="evenodd" clip-rule="evenodd" d="M12.1589 15.0335C12.1839 14.7861 12.0896 14.5416 11.9049 14.3751L10.0231 12.1082V11.7695H15.866L20.3823 21.6743L24.3528 11.7695H29.9229V12.1082L28.314 13.6508C28.1753 13.7565 28.1065 13.9303 28.1352 14.1023V25.4368C28.1065 25.6088 28.1753 25.7826 28.314 25.8883L29.8853 27.4309V27.7695H21.9818V27.4309L23.6095 25.8507C23.7695 25.6908 23.7695 25.6437 23.7695 25.3992V16.2375L19.2438 27.7319H18.6322L13.3632 16.2375V23.9412C13.3193 24.2651 13.4269 24.5912 13.6549 24.8254L15.7719 27.3933V27.7319H9.76904V27.3933L11.886 24.8254C12.1124 24.5908 12.2137 24.2625 12.1589 23.9412V15.0335Z" fill="white"/>
</svg>
