<svg width="40" height="40" viewBox="0 0 40 40" fill="none" xmlns="http://www.w3.org/2000/svg">
<path d="M0 20C0 8.95431 8.95431 0 20 0C31.0457 0 40 8.95431 40 20C40 31.0457 31.0457 40 20 40C8.95431 40 0 31.0457 0 20Z" fill="#FC132D"/>
<rect width="40" height="40" rx="20" fill="#FC132D"/>
<path fill-rule="evenodd" clip-rule="evenodd" d="M10.2761 19.9828C12.1465 18.9525 14.2344 18.0926 16.1852 17.2284C19.5413 15.8128 22.9108 14.4217 26.3143 13.1266C26.9765 12.906 28.1663 12.6902 28.2829 13.6715C28.219 15.0606 27.9562 16.4415 27.776 17.8224C27.3185 20.8592 26.7897 23.8856 26.274 26.9124C26.0963 27.9207 24.8333 28.4426 24.0252 27.7974C22.0831 26.4855 20.126 25.1864 18.2087 23.8442C17.5806 23.206 18.163 22.2895 18.7239 21.8338C20.3235 20.2574 22.0199 18.918 23.5359 17.2602C23.9449 16.2727 22.7366 17.1049 22.338 17.3599C20.1482 18.869 18.0119 20.4702 15.7031 21.7964C14.5238 22.4456 13.1492 21.8909 11.9704 21.5286C10.9135 21.091 9.3648 20.65 10.2761 19.9828Z" fill="white"/>
</svg>
