<svg width="40" height="40" viewBox="0 0 40 40" fill="none" xmlns="http://www.w3.org/2000/svg">
<path d="M0 20C0 8.95431 8.95431 0 20 0C31.0457 0 40 8.95431 40 20C40 31.0457 31.0457 40 20 40C8.95431 40 0 31.0457 0 20Z" fill="#FC132D"/>
<rect width="40" height="40" rx="20" fill="#FC132D"/>
<path fill-rule="evenodd" clip-rule="evenodd" d="M30.4704 13.9395C30.6322 13.3868 30.4704 13 29.7154 13H27.1987C26.5516 13 26.264 13.35 26.1022 13.7368C26.1022 13.7368 24.8259 16.9421 23.0103 19.0053C22.417 19.6132 22.1654 19.7974 21.8418 19.7974C21.68 19.7974 21.4463 19.6132 21.4463 19.0605V13.9395C21.4463 13.2763 21.2665 13 20.7273 13H16.7725C16.377 13 16.1253 13.3132 16.1253 13.5895C16.1253 14.2158 17.0241 14.3632 17.132 16.0947V19.8895C17.132 20.7184 16.9882 20.8658 16.6646 20.8658C15.8197 20.8658 13.7345 17.6605 12.5121 13.9763C12.2604 13.2947 12.0267 13 11.3796 13H8.86286C8.14381 13 8 13.35 8 13.7368C8 14.4184 8.84489 17.8079 11.9728 22.2842C14.058 25.3421 16.9882 27 19.6487 27C21.2486 27 21.4463 26.6316 21.4463 26.0053V23.6842C21.4463 22.9474 21.5901 22.8 22.1114 22.8C22.4889 22.8 23.1181 22.9842 24.6101 24.4579C26.3179 26.2079 26.6055 27 27.5583 27H30.075C30.794 27 31.1535 26.6316 30.9378 25.9132C30.7041 25.1947 29.8952 24.1447 28.8166 22.8921C28.2234 22.1737 27.3426 21.4184 27.0909 21.0316C26.7134 20.5342 26.8212 20.3132 27.0909 19.8895C27.0909 19.8711 30.1648 15.45 30.4704 13.9395Z" fill="white"/>
</svg>
