<svg width="40" height="40" viewBox="0 0 40 40" fill="none" xmlns="http://www.w3.org/2000/svg">
<path d="M0 20C0 8.95431 8.95431 0 20 0C31.0457 0 40 8.95431 40 20C40 31.0457 31.0457 40 20 40C8.95431 40 0 31.0457 0 20Z" fill="#FC132D"/>
<rect width="40" height="40" rx="20" fill="#FC132D"/>
<g clip-path="url(#clip0)">
<path d="M30.8693 14.4171C30.6129 13.4657 29.8574 12.7164 28.898 12.4621C27.1592 12 20.1867 12 20.1867 12C20.1867 12 13.2142 12 11.4753 12.4621C10.516 12.7164 9.76044 13.4657 9.50401 14.4171C9.03809 16.1417 9.03809 19.7397 9.03809 19.7397C9.03809 19.7397 9.03809 23.3378 9.50401 25.0624C9.76044 26.0138 10.516 26.7319 11.4753 26.9862C13.2142 27.4483 20.1867 27.4483 20.1867 27.4483C20.1867 27.4483 27.1592 27.4483 28.898 26.9862C29.8574 26.7319 30.6129 26.0138 30.8693 25.0624C31.3353 23.3378 31.3353 19.7397 31.3353 19.7397C31.3353 19.7397 31.3353 16.1417 30.8693 14.4171ZM17.9063 23.0065V16.473L23.7339 19.7398L17.9063 23.0065Z" fill="white"/>
</g>
<defs>
<clipPath id="clip0">
<rect width="22.3734" height="15.4483" fill="white" transform="translate(9 12)"/>
</clipPath>
</defs>
</svg>
