<?xml version="1.0" encoding="UTF-8"?>
<svg width="32px" height="32px" viewBox="0 0 32 32" version="1.1" xmlns="http://www.w3.org/2000/svg" xmlns:xlink="http://www.w3.org/1999/xlink">
    <title>fb</title>
    <g id="Page-1" stroke="none" stroke-width="1" fill="none" fill-rule="evenodd">
        <g id="HardcoreFC-Index-(Ru)-v09-e" transform="translate(-1147.000000, -12380.000000)" fill="#FF0000">
            <g id="Footer-Group" transform="translate(0.000000, 11450.000000)">
                <g id="Footer" transform="translate(53.000000, 0.000000)">
                    <g id="Icons" transform="translate(915.000000, 930.000000)">
                        <path d="M211,16 C211,7.16412402 203.835876,0 195,0 C186.164124,0 179,7.16412402 179,16 C179,23.9853593 184.850148,30.6049459 192.500246,31.8065945 L192.500246,20.6261073 L188.436639,20.6261073 L188.436639,16 L192.500246,16 L192.500246,12.4741634 C192.500246,8.46456693 194.889764,6.24827756 198.543799,6.24827756 C200.294291,6.24827756 202.125861,6.56102362 202.125861,6.56102362 L202.125861,10.4986467 L200.10753,10.4986467 C198.120817,10.4986467 197.499754,11.7316683 197.499754,12.9984006 L197.499754,15.999877 L201.936762,15.999877 L201.227977,20.6259843 L197.499631,20.6259843 L197.499631,31.8065945 C205.149729,30.6070374 211,23.9874508 211,15.999877 L211,16 Z" id="fb"></path>
                    </g>
                </g>
            </g>
        </g>
    </g>
</svg>