<svg width="40" height="40" viewBox="0 0 40 40" fill="none" xmlns="http://www.w3.org/2000/svg">
<path d="M0 20C0 8.95431 8.95431 0 20 0C31.0457 0 40 8.95431 40 20C40 31.0457 31.0457 40 20 40C8.95431 40 0 31.0457 0 20Z" fill="#1C1C1C"/>
<g clip-path="url(#clip0)">
<path d="M20.0036 15.9568C17.7321 15.9568 15.9 17.7604 15.9 19.9963C15.9 22.2322 17.7321 24.0357 20.0036 24.0357C22.275 24.0357 24.1071 22.2322 24.1071 19.9963C24.1071 17.7604 22.275 15.9568 20.0036 15.9568ZM20.0036 22.6225C18.5357 22.6225 17.3357 21.4447 17.3357 19.9963C17.3357 18.5479 18.5321 17.3701 20.0036 17.3701C21.475 17.3701 22.6714 18.5479 22.6714 19.9963C22.6714 21.4447 21.4714 22.6225 20.0036 22.6225ZM25.2321 15.7916C25.2321 16.3154 24.8036 16.7338 24.275 16.7338C23.7429 16.7338 23.3179 16.3119 23.3179 15.7916C23.3179 15.2713 23.7464 14.8494 24.275 14.8494C24.8036 14.8494 25.2321 15.2713 25.2321 15.7916ZM27.95 16.7479C27.8893 15.4857 27.5964 14.3678 26.6571 13.4467C25.7214 12.5256 24.5857 12.2373 23.3036 12.174C21.9821 12.1002 18.0214 12.1002 16.7 12.174C15.4214 12.2338 14.2857 12.5221 13.3464 13.4432C12.4071 14.3643 12.1179 15.4822 12.0536 16.7443C11.9786 18.0451 11.9786 21.9439 12.0536 23.2447C12.1143 24.5068 12.4071 25.6248 13.3464 26.5459C14.2857 27.467 15.4179 27.7553 16.7 27.8186C18.0214 27.8924 21.9821 27.8924 23.3036 27.8186C24.5857 27.7588 25.7214 27.4705 26.6571 26.5459C27.5929 25.6248 27.8857 24.5068 27.95 23.2447C28.025 21.9439 28.025 18.0486 27.95 16.7479ZM26.2429 24.6404C25.9643 25.3295 25.425 25.8603 24.7214 26.1381C23.6679 26.5494 21.1679 26.4545 20.0036 26.4545C18.8393 26.4545 16.3357 26.5459 15.2857 26.1381C14.5857 25.8639 14.0464 25.333 13.7643 24.6404C13.3464 23.6033 13.4429 21.1424 13.4429 19.9963C13.4429 18.8502 13.35 16.3857 13.7643 15.3521C14.0429 14.6631 14.5821 14.1322 15.2857 13.8545C16.3393 13.4432 18.8393 13.5381 20.0036 13.5381C21.1679 13.5381 23.6714 13.4467 24.7214 13.8545C25.4214 14.1287 25.9607 14.6596 26.2429 15.3521C26.6607 16.3893 26.5643 18.8502 26.5643 19.9963C26.5643 21.1424 26.6607 23.6068 26.2429 24.6404Z" fill="white"/>
</g>
<defs>
<clipPath id="clip0">
<rect width="16" height="18" fill="white" transform="translate(12 11)"/>
</clipPath>
</defs>
</svg>
