<?xml version="1.0" encoding="UTF-8"?>
<svg width="30px" height="30px" viewBox="0 0 30 30" version="1.1" xmlns="http://www.w3.org/2000/svg" xmlns:xlink="http://www.w3.org/1999/xlink">
    <title>insta</title>
    <g id="Page-1" stroke="none" stroke-width="1" fill="none" fill-rule="evenodd">
        <g id="HardcoreFC-Index-(Ru)-v09-e" transform="translate(-1028.000000, -12382.000000)" fill="#FF0000">
            <g id="Footer-Group" transform="translate(0.000000, 11450.000000)">
                <g id="Footer" transform="translate(53.000000, 0.000000)">
                    <g id="Icons" transform="translate(915.000000, 930.000000)">
                        <path d="M81.0628382,2 C85.9907556,2 90,6.00919 90,10.9371618 L90,10.9371618 L90,23.0628382 C90,27.99081 85.99081,32 81.0628382,32 L81.0628382,32 L68.9371618,32 C64.00919,32 60,27.99081 60,23.0628382 L60,23.0628382 L60,10.9371618 C60,6.00919 64.00919,2 68.9371618,2 L68.9371618,2 Z M81.0628382,5.01799889 L68.9371618,5.01799889 C65.6681257,5.01799889 63.0179989,7.6680713 63.0179989,10.9371618 L63.0179989,10.9371618 L63.0179989,23.0628382 C63.0179989,26.3318743 65.6681257,28.9820011 68.9371618,28.9820011 L68.9371618,28.9820011 L81.0628382,28.9820011 C84.3318743,28.9820011 86.9820011,26.3318743 86.9820011,23.0628382 L86.9820011,23.0628382 L86.9820011,10.9371618 C86.9820011,7.6680713 84.3318743,5.01799889 81.0628382,5.01799889 L81.0628382,5.01799889 Z M75,9.2409325 C79.2783567,9.2409325 82.7590675,12.7215889 82.7590675,16.9999456 C82.7590675,21.2783022 79.2783567,24.7590131 75,24.7590131 C70.7216433,24.7590131 67.2409325,21.2782478 67.2409325,16.9999456 C67.2409325,12.7216433 70.7216433,9.2409325 75,9.2409325 Z M75,12.2589314 C72.3816135,12.2589314 70.2589314,14.381559 70.2589314,17 C70.2589314,19.618441 72.381559,21.7410686 75,21.7410686 C77.6183865,21.7410686 79.7410686,19.6183865 79.7410686,17 C79.7410686,14.381559 77.618441,12.2589314 75,12.2589314 Z M82.7740938,7.4399547 C83.8009192,7.4399547 84.6333257,8.27236119 84.6333257,9.29918662 C84.6333257,10.3260121 83.8009192,11.1584185 82.7740938,11.1584185 C81.7472684,11.1584185 80.9148619,10.3260121 80.9148619,9.29918662 C80.9148619,8.27236119 81.7472684,7.4399547 82.7740938,7.4399547 Z" id="insta"></path>
                    </g>
                </g>
            </g>
        </g>
    </g>
</svg>