<?xml version="1.0" encoding="UTF-8"?>
<svg width="30px" height="30px" viewBox="0 0 30 30" version="1.1" xmlns="http://www.w3.org/2000/svg" xmlns:xlink="http://www.w3.org/1999/xlink">
    <title>m</title>
    <g id="Page-1" stroke="none" stroke-width="1" fill="none" fill-rule="evenodd">
        <g id="HardcoreFC-Index-(Ru)-v09-e" transform="translate(-968.000000, -12382.000000)" fill="#FF0000">
            <g id="Footer-Group" transform="translate(0.000000, 11450.000000)">
                <g id="Footer" transform="translate(53.000000, 0.000000)">
                    <g id="Icons" transform="translate(915.000000, 930.000000)">
                        <path d="M30,2 L30,32 L0,32 L0,2 L30,2 Z M10.8661926,8.76923077 L5.02327085,8.76923077 L5.02327085,9.10785511 L6.9050492,11.3747569 C7.08978462,11.5412663 7.18412889,11.7857934 7.15908928,12.0331931 L7.15908928,12.0331931 L7.15908928,20.9408945 C7.2139052,21.2622285 7.11260955,21.5904732 6.88623142,21.8250803 L6.88623142,21.8250803 L4.76923077,24.3929815 L4.76923077,24.7316058 L10.7721037,24.7316058 L10.7721037,24.3929815 L8.65510306,21.8250803 C8.4270646,21.5908615 8.31949658,21.2647798 8.36342742,20.9408945 L8.36342742,20.9408945 L8.36342742,13.2371908 L13.6324068,24.7316058 L14.2439848,24.7316058 L18.7696617,13.2371908 L18.7691954,22.492484 C18.7663974,22.6591635 18.7468115,22.7132973 18.6097106,22.8503595 L18.6097106,22.8503595 L16.9819723,24.4306065 L16.9819723,24.7692308 L24.8854414,24.7692308 L24.8854414,24.4306065 L23.3141565,22.8879845 C23.1754498,22.7822542 23.1066443,22.6084791 23.1353875,22.4364854 L23.1353875,22.4364854 L23.1353875,11.1019762 C23.1066443,10.9299825 23.1754498,10.7562073 23.3141565,10.6504771 L23.3141565,10.6504771 L24.9230769,9.10785511 L24.9230769,8.76923077 L19.3530131,8.76923077 L15.3824607,18.6739926 L10.8661926,8.76923077 Z" id="m"></path>
                    </g>
                </g>
            </g>
        </g>
    </g>
</svg>