<svg width="40" height="40" viewBox="0 0 40 40" fill="none" xmlns="http://www.w3.org/2000/svg">
<path d="M0 20C0 8.95431 8.95431 0 20 0C31.0457 0 40 8.95431 40 20C40 31.0457 31.0457 40 20 40C8.95431 40 0 31.0457 0 20Z" fill="#1C1C1C"/>
<rect width="40" height="40" rx="20" fill="#1C1C1C"/>
<path fill-rule="evenodd" clip-rule="evenodd" d="M12.1591 15.0335C12.1841 14.7861 12.0898 14.5416 11.905 14.3751L10.0233 12.1082V11.7695H15.8662L20.3825 21.6743L24.353 11.7695H29.9231V12.1082L28.3142 13.6508C28.1754 13.7565 28.1066 13.9303 28.1354 14.1023V25.4368C28.1066 25.6088 28.1754 25.7826 28.3142 25.8883L29.8854 27.4309V27.7695H21.982V27.4309L23.6097 25.8507C23.7697 25.6908 23.7697 25.6437 23.7697 25.3992V16.2375L19.244 27.7319H18.6324L13.3634 16.2375V23.9412C13.3195 24.2651 13.4271 24.5912 13.6551 24.8254L15.7721 27.3933V27.7319H9.76923V27.3933L11.8862 24.8254C12.1126 24.5908 12.2139 24.2625 12.1591 23.9412V15.0335Z" fill="white"/>
</svg>
