<svg width="23" height="21" viewBox="0 0 23 21" fill="none" xmlns="http://www.w3.org/2000/svg">
<g clip-path="url(#clip0_68:25756)">
<path d="M21.8597 0.636353L13.1484 6.82072L14.7684 3.17607L21.8597 0.636353Z" fill="#E17726" stroke="#E17726" stroke-width="0.25" stroke-linecap="round" stroke-linejoin="round"/>
<path d="M1.7666 0.636353L10.4003 6.87844L8.85797 3.17607L1.7666 0.636353Z" fill="#E27625" stroke="#E27625" stroke-width="0.25" stroke-linecap="round" stroke-linejoin="round"/>
<path d="M18.7231 14.9758L16.4053 18.3731L21.3683 19.6842L22.7901 15.0501L18.7231 14.9758Z" fill="#E27625" stroke="#E27625" stroke-width="0.25" stroke-linecap="round" stroke-linejoin="round"/>
<path d="M0.84375 15.0501L2.25684 19.6842L7.21133 18.3731L4.9021 14.9758L0.84375 15.0501Z" fill="#E27625" stroke="#E27625" stroke-width="0.25" stroke-linecap="round" stroke-linejoin="round"/>
<path d="M6.94502 9.23677L5.56641 11.2323L10.4778 11.4467L10.3141 6.37549L6.94502 9.23677Z" fill="#E27625" stroke="#E27625" stroke-width="0.25" stroke-linecap="round" stroke-linejoin="round"/>
<path d="M16.6811 9.23682L13.2605 6.31781L13.1484 11.4467L18.0598 11.2323L16.6811 9.23682Z" fill="#E27625" stroke="#E27625" stroke-width="0.25" stroke-linecap="round" stroke-linejoin="round"/>
<path d="M7.21191 18.3731L10.1846 16.996L7.62552 15.083L7.21191 18.3731Z" fill="#E27625" stroke="#E27625" stroke-width="0.25" stroke-linecap="round" stroke-linejoin="round"/>
<path d="M13.4414 16.996L16.4054 18.3731L16.0004 15.083L13.4414 16.996Z" fill="#E27625" stroke="#E27625" stroke-width="0.25" stroke-linecap="round" stroke-linejoin="round"/>
<path d="M16.4054 18.3732L13.4414 16.9962L13.6826 18.8433L13.6568 19.6266L16.4054 18.3732Z" fill="#D5BFB2" stroke="#D5BFB2" stroke-width="0.25" stroke-linecap="round" stroke-linejoin="round"/>
<path d="M7.21191 18.3732L9.9692 19.6266L9.95196 18.8433L10.1846 16.9962L7.21191 18.3732Z" fill="#D5BFB2" stroke="#D5BFB2" stroke-width="0.25" stroke-linecap="round" stroke-linejoin="round"/>
<path d="M10.021 13.8626L7.55664 13.17L9.29716 12.4031L10.021 13.8626Z" fill="#233447" stroke="#233447" stroke-width="0.25" stroke-linecap="round" stroke-linejoin="round"/>
<path d="M13.6055 13.8626L14.3293 12.4031L16.0784 13.17L13.6055 13.8626Z" fill="#233447" stroke="#233447" stroke-width="0.25" stroke-linecap="round" stroke-linejoin="round"/>
<path d="M7.21154 18.3731L7.64239 14.9758L4.90234 15.0501L7.21154 18.3731Z" fill="#CC6228" stroke="#CC6228" stroke-width="0.25" stroke-linecap="round" stroke-linejoin="round"/>
<path d="M15.9834 14.9758L16.4056 18.3731L18.7234 15.0501L15.9834 14.9758Z" fill="#CC6228" stroke="#CC6228" stroke-width="0.25" stroke-linecap="round" stroke-linejoin="round"/>
<path d="M18.0598 11.2322L13.1484 11.4466L13.6051 13.8627L14.3289 12.4031L16.078 13.17L18.0598 11.2322Z" fill="#CC6228" stroke="#CC6228" stroke-width="0.25" stroke-linecap="round" stroke-linejoin="round"/>
<path d="M7.5568 13.17L9.29732 12.4031L10.0211 13.8627L10.4778 11.4466L5.56641 11.2322L7.5568 13.17Z" fill="#CC6228" stroke="#CC6228" stroke-width="0.25" stroke-linecap="round" stroke-linejoin="round"/>
<path d="M5.56641 11.2322L7.62575 15.083L7.55678 13.17L5.56641 11.2322Z" fill="#E27525" stroke="#E27525" stroke-width="0.25" stroke-linecap="round" stroke-linejoin="round"/>
<path d="M16.0785 13.17L16.001 15.083L18.0603 11.2322L16.0785 13.17Z" fill="#E27525" stroke="#E27525" stroke-width="0.25" stroke-linecap="round" stroke-linejoin="round"/>
<path d="M10.4772 11.4466L10.0205 13.8627L10.5978 16.7157L10.7271 12.9556L10.4772 11.4466Z" fill="#E27525" stroke="#E27525" stroke-width="0.25" stroke-linecap="round" stroke-linejoin="round"/>
<path d="M13.1485 11.4466L12.9072 12.9474L13.0279 16.7157L13.6052 13.8627L13.1485 11.4466Z" fill="#E27525" stroke="#E27525" stroke-width="0.25" stroke-linecap="round" stroke-linejoin="round"/>
<path d="M13.6056 13.8627L13.0283 16.7157L13.4419 16.9961L16.001 15.0831L16.0786 13.17L13.6056 13.8627Z" fill="#F5841F" stroke="#F5841F" stroke-width="0.25" stroke-linecap="round" stroke-linejoin="round"/>
<path d="M7.55664 13.17L7.62562 15.0831L10.1847 16.9961L10.5983 16.7157L10.021 13.8627L7.55664 13.17Z" fill="#F5841F" stroke="#F5841F" stroke-width="0.25" stroke-linecap="round" stroke-linejoin="round"/>
<path d="M13.657 19.6266L13.6828 18.8432L13.4589 18.6618H10.1674L9.95196 18.8432L9.9692 19.6266L7.21191 18.3732L8.17695 19.1318L10.1329 20.4264H13.4847L15.4492 19.1318L16.4056 18.3732L13.657 19.6266Z" fill="#C0AC9D" stroke="#C0AC9D" stroke-width="0.25" stroke-linecap="round" stroke-linejoin="round"/>
<path d="M13.4418 16.9961L13.0282 16.7158H10.5984L10.1848 16.9961L9.95215 18.8432L10.1676 18.6618H13.459L13.6831 18.8432L13.4418 16.9961Z" fill="#161616" stroke="#161616" stroke-width="0.25" stroke-linecap="round" stroke-linejoin="round"/>
<path d="M22.2301 7.22475L22.9626 3.811L21.8596 0.636353L13.4414 6.61461L16.6811 9.23674L21.2565 10.5149L22.2646 9.38521L21.8252 9.08007L22.5231 8.46992L21.9889 8.07411L22.6869 7.56285L22.2301 7.22475Z" fill="#763E1A" stroke="#763E1A" stroke-width="0.25" stroke-linecap="round" stroke-linejoin="round"/>
<path d="M0.663086 3.811L1.4041 7.22475L0.930199 7.56285L1.63675 8.07411L1.10253 8.46992L1.80046 9.08007L1.36102 9.38521L2.36915 10.5149L6.94452 9.23674L10.1843 6.61461L1.76599 0.636353L0.663086 3.811Z" fill="#763E1A" stroke="#763E1A" stroke-width="0.25" stroke-linecap="round" stroke-linejoin="round"/>
<path d="M21.257 10.5148L16.6817 9.23676L18.0603 11.2323L16.001 15.083L18.7238 15.0501H22.7907L21.257 10.5148Z" fill="#F5841F" stroke="#F5841F" stroke-width="0.25" stroke-linecap="round" stroke-linejoin="round"/>
<path d="M6.94417 9.23676L2.36886 10.5148L0.84375 15.0501H4.9021L7.62487 15.083L5.56557 11.2323L6.94417 9.23676Z" fill="#F5841F" stroke="#F5841F" stroke-width="0.25" stroke-linecap="round" stroke-linejoin="round"/>
<path d="M13.1484 11.4467L13.4414 6.61457L14.7683 3.17609H8.85742L10.1843 6.61457L10.4773 11.4467L10.5893 12.9639L10.5979 16.7158H13.0278L13.0364 12.9639L13.1484 11.4467Z" fill="#F5841F" stroke="#F5841F" stroke-width="0.25" stroke-linecap="round" stroke-linejoin="round"/>
</g>
<defs>
<clipPath id="clip0_68:25756">
<rect width="23" height="21" fill="white"/>
</clipPath>
</defs>
</svg>
