<?xml version="1.0" encoding="UTF-8"?>
<svg width="32px" height="32px" viewBox="0 0 32 32" version="1.1" xmlns="http://www.w3.org/2000/svg" xmlns:xlink="http://www.w3.org/1999/xlink">
    <title>telega</title>
    <g id="Page-1" stroke="none" stroke-width="1" fill="none" fill-rule="evenodd">
        <g id="HardcoreFC-Index-(Ru)-v09-e" transform="translate(-1087.000000, -12380.000000)" fill="#FF0000">
            <g id="Footer-Group" transform="translate(0.000000, 11450.000000)">
                <g id="Footer" transform="translate(53.000000, 0.000000)">
                    <g id="Icons" transform="translate(915.000000, 930.000000)">
                        <path d="M135,0 C143.836556,0 151,7.163444 151,16 C151,24.836556 143.836556,32 135,32 C126.163444,32 119,24.836556 119,16 C119,7.163444 126.163444,0 135,0 Z M142.1656,9.67204646 C142.048933,8.69075316 140.85912,8.90651316 140.196933,9.12716648 C136.793467,10.4222332 133.424,11.8132999 130.067867,13.2288999 C128.117067,14.0931665 126.0292,14.9530599 124.1588,15.9832999 C123.24736,16.6506532 124.796173,17.0915465 125.853093,17.5291599 C127.031893,17.8913985 128.406427,18.4461732 129.58576,17.7969865 C131.02876,16.9680698 132.404364,16.0317574 133.767781,15.0776649 L135.401564,13.929955 L135.401564,13.929955 L136.220693,13.3604532 C136.32402,13.2943369 136.481774,13.1894243 136.651661,13.0874841 L136.799264,13.001809 C137.24507,12.7528124 137.691209,12.6023799 137.418587,13.2606999 C135.902587,14.9185665 134.206187,16.2578999 132.606587,17.8342999 C132.045668,18.2900332 131.463253,19.2065265 132.09132,19.8446999 C134.008653,21.1869664 135.96572,22.4860864 137.907853,23.7978998 C138.715987,24.4431132 139.978973,23.9212198 140.156653,22.9129798 C140.67232,19.8861799 141.201147,16.8597799 141.658653,13.8229799 C141.838893,12.4420465 142.101688,11.0611132 142.1656,9.67204646 Z" id="telega"></path>
                    </g>
                </g>
            </g>
        </g>
    </g>
</svg>