<?xml version="1.0" encoding="UTF-8"?>
<svg width="35px" height="28px" viewBox="0 0 35 28" version="1.1" xmlns="http://www.w3.org/2000/svg" xmlns:xlink="http://www.w3.org/1999/xlink">
    <title>twitter</title>
    <g id="Page-1" stroke="none" stroke-width="1" fill="none" fill-rule="evenodd">
        <g id="HardcoreFC-Index-(Ru)-v09-e" transform="translate(-1205.000000, -12382.000000)" fill="#FF0000">
            <g id="Footer-Group" transform="translate(0.000000, 11450.000000)">
                <g id="Footer" transform="translate(53.000000, 0.000000)">
                    <g id="Icons" transform="translate(915.000000, 930.000000)">
                        <path d="M271.533333,5.31284058 C270.262313,5.87501584 268.898526,6.25627667 267.465616,6.42648943 C268.928714,5.55193827 270.04868,4.16477744 270.579489,2.51694665 C269.207069,3.32683724 267.692171,3.91492177 266.078017,4.23371868 C264.785441,2.85731585 262.946877,2 260.907601,2 C256.995284,2 253.823121,5.16639678 253.823121,9.06946224 C253.823121,9.62301983 253.885699,10.1636791 254.006566,10.6806821 C248.119751,10.3855415 242.899736,7.5702719 239.406052,3.29236662 C238.795341,4.33493389 238.44792,5.54974161 238.44792,6.84650154 C238.44792,9.29994227 239.699529,11.4647197 241.598527,12.7312334 C240.437539,12.6924821 239.345618,12.3736852 238.389687,11.8437839 L238.389687,11.9321008 C238.389687,15.3569709 240.832473,18.2153287 244.071502,18.8658772 C243.478058,19.0252757 242.852281,19.1135925 242.204893,19.1135925 C241.747438,19.1135925 241.30505,19.068364 240.871295,18.9821873 C241.773282,21.7931764 244.388735,23.8373066 247.487542,23.8933495 C245.064167,25.7888957 242.008526,26.9154428 238.689653,26.9154428 C238.117821,26.9154428 237.554566,26.8809722 237,26.8185082 C240.135485,28.8282243 243.857925,30 247.85872,30 C260.890447,30 268.013805,19.2256221 268.013805,9.8815495 L267.99005,8.9661067 C269.381881,7.97518903 270.585979,6.73019136 271.533333,5.31284058 Z" id="twitter"></path>
                    </g>
                </g>
            </g>
        </g>
    </g>
</svg>