<svg width="56" height="54" viewBox="0 0 56 54" fill="none" xmlns="http://www.w3.org/2000/svg">
<path d="M10.8483 38.75H50V5.75H6V42.5588L10.8483 38.75ZM12.7512 44.25L0.5 53.875V3C0.5 2.27065 0.789731 1.57118 1.30546 1.05546C1.82118 0.539731 2.52065 0.25 3.25 0.25H52.75C53.4793 0.25 54.1788 0.539731 54.6945 1.05546C55.2103 1.57118 55.5 2.27065 55.5 3V41.5C55.5 42.2293 55.2103 42.9288 54.6945 43.4445C54.1788 43.9603 53.4793 44.25 52.75 44.25H12.7512ZM25.25 30.5H30.75V36H25.25V30.5ZM18.5593 16.2357C18.9165 14.4477 19.7743 12.7978 21.0326 11.4782C22.2909 10.1585 23.8981 9.22337 25.6672 8.78148C27.4363 8.3396 29.2945 8.40918 31.0255 8.98212C32.7566 9.55506 34.2894 10.6078 35.4455 12.0179C36.6016 13.4279 37.3336 15.1373 37.5561 16.9471C37.7787 18.7568 37.4828 20.5926 36.7027 22.2408C35.9227 23.8889 34.6907 25.2817 33.15 26.257C31.6094 27.2323 29.8234 27.7501 28 27.75H25.25V22.25H28C28.7812 22.25 29.5464 22.0281 30.2064 21.6102C30.8664 21.1922 31.3942 20.5955 31.7284 19.8894C32.0625 19.1832 32.1893 18.3967 32.0939 17.6213C31.9985 16.8459 31.6849 16.1136 31.1895 15.5095C30.6942 14.9054 30.0375 14.4544 29.2959 14.2089C28.5542 13.9635 27.7581 13.9336 27.0002 14.1229C26.2422 14.3122 25.5536 14.7129 25.0145 15.2782C24.4754 15.8436 24.1079 16.5504 23.9548 17.3165L18.5593 16.2357Z" fill="#FC1531"/>
</svg>
