<?xml version="1.0" encoding="UTF-8"?>
<svg width="41px" height="25px" viewBox="0 0 41 25" version="1.1" xmlns="http://www.w3.org/2000/svg" xmlns:xlink="http://www.w3.org/1999/xlink">
    <title>vk</title>
    <g id="Page-1" stroke="none" stroke-width="1" fill="none" fill-rule="evenodd">
        <g id="HardcoreFC-Index-(Ru)-v09-e" transform="translate(-1321.000000, -12383.000000)" fill="#FF0000">
            <g id="Footer-Group" transform="translate(0.000000, 11450.000000)">
                <g id="Footer" transform="translate(53.000000, 0.000000)">
                    <g id="Icons" transform="translate(915.000000, 930.000000)">
                        <path d="M392.869724,5.44220948 C393.153934,4.49484106 392.869724,3.83168317 391.543408,3.83168317 L387.122355,3.83168317 C385.985513,3.83168317 385.48025,4.43168317 385.19604,5.09484106 C385.19604,5.09484106 382.953934,10.5895779 379.764461,14.12642 C378.722355,15.1685253 378.28025,15.4843147 377.711829,15.4843147 C377.427619,15.4843147 377.017092,15.1685253 377.017092,14.2211569 L377.017092,5.44220948 C377.017092,4.30536738 376.701303,3.83168317 375.753934,3.83168317 L368.806566,3.83168317 C368.111829,3.83168317 367.669724,4.36852527 367.669724,4.84220948 C367.669724,5.91589369 369.248671,6.16852527 369.438145,9.13694633 L369.438145,15.6422095 C369.438145,17.0632621 369.185513,17.3158937 368.617092,17.3158937 C367.132882,17.3158937 363.469724,11.8211569 361.322355,5.50536738 C360.88025,4.33694633 360.469724,3.83168317 359.332882,3.83168317 L354.911829,3.83168317 C353.648671,3.83168317 353.39604,4.43168317 353.39604,5.09484106 C353.39604,6.26326212 354.88025,12.0737884 360.374987,19.7474726 C364.038145,24.9895779 369.185513,27.8316832 373.859197,27.8316832 C376.669724,27.8316832 377.017092,27.2001042 377.017092,26.12642 L377.017092,22.1474726 C377.017092,20.8843147 377.269724,20.6316832 378.185513,20.6316832 C378.848671,20.6316832 379.953934,20.9474726 382.574987,23.4737884 C385.574987,26.4737884 386.08025,27.8316832 387.753934,27.8316832 L392.174987,27.8316832 C393.438145,27.8316832 394.069724,27.2001042 393.690776,25.9685253 C393.28025,24.7369463 391.859197,22.9369463 389.964461,20.7895779 C388.922355,19.557999 387.374987,18.2632621 386.932882,17.6001042 C386.269724,16.7474726 386.459197,16.3685253 386.932882,15.6422095 C386.932882,15.6106305 392.332882,8.03168317 392.869724,5.44220948 L392.869724,5.44220948 Z" id="vk"></path>
                    </g>
                </g>
            </g>
        </g>
    </g>
</svg>