<?xml version="1.0" encoding="UTF-8"?>
<svg width="38px" height="26px" viewBox="0 0 38 26" version="1.1" xmlns="http://www.w3.org/2000/svg" xmlns:xlink="http://www.w3.org/1999/xlink">
    <title>yt</title>
    <g id="Page-1" stroke="none" stroke-width="1" fill="none" fill-rule="evenodd">
        <g id="HardcoreFC-Index-(Ru)-v09-e" transform="translate(-1263.000000, -12383.000000)" fill="#FF0000">
            <g id="Footer-Group" transform="translate(0.000000, 11450.000000)">
                <g id="Footer" transform="translate(53.000000, 0.000000)">
                    <g id="Icons" transform="translate(915.000000, 930.000000)">
                        <path d="M314.13997,3.00270848 C316.512978,3.01496235 325.579662,3.10686636 328.098185,3.79614642 C329.688832,4.22439734 330.942995,5.47856075 331.371246,7.06920704 C332.080121,9.65932713 332.132996,14.7524397 332.136115,15.8290365 L332.136073,16.0653098 C332.136042,16.0763255 332.135994,16.090001 332.135924,16.1062426 L332.135154,16.233732 C332.127099,17.3050459 332.052996,22.3738576 331.371246,24.9639777 C330.942995,26.554624 329.688832,27.8087874 328.098185,28.2370383 C326.887357,28.5556774 324.162993,28.7415502 321.396586,28.849976 L320.732594,28.8745395 C317.747781,28.9786389 314.851237,28.9975661 313.89662,29.0010074 L313.65288,29.0016765 C313.634355,29.0017084 313.618775,29.0017296 313.606236,29.0017438 L313.530349,29.0017427 C313.517842,29.0017279 313.502303,29.0017058 313.483824,29.0016727 L313.240693,29.0009768 C311.336138,28.9938189 301.681221,28.9222398 299.038301,28.206449 C297.447655,27.7781981 296.193492,26.5240346 295.765241,24.9333884 C295.08363,22.3705327 295.009542,17.2803836 295.001489,16.204109 L295.001489,15.7994528 C295.009542,14.7281388 295.08363,9.65932713 295.765241,7.06920704 C296.193492,5.47856075 297.478244,4.19380799 299.038301,3.76555706 C300.152264,3.47240911 302.547282,3.29163454 305.077524,3.18015689 L305.739901,3.15261939 L305.739901,3.15261939 L306.403892,3.12805586 C309.167608,3.03166754 311.855648,3.00830067 312.996517,3.00263598 Z M309.866932,10.4340357 L309.866932,21.5685597 L319.533167,16.0012977 L309.866932,10.4340357 Z" id="yt"></path>
                    </g>
                </g>
            </g>
        </g>
    </g>
</svg>